<svg xmlns="http://www.w3.org/2000/svg" xmlns:xlink="http://www.w3.org/1999/xlink" viewBox="0 0 916.14 779.2"><defs><style>.cls-1{fill:none;}.cls-11,.cls-2,.cls-3,.cls-4{fill:#fff6c7;}.cls-2{opacity:0.51;}.cls-3{opacity:0.2;}.cls-4{opacity:0.11;}.cls-5{fill:#fff27d;}.cls-6{fill:#fcf3c0;opacity:0.5;}.cls-7{clip-path:url(#clip-path);}.cls-8{fill:#e6ffff;}.cls-9{fill:#80d873;}.cls-10{fill:#63c955;}.cls-11{opacity:0.43;}.cls-12{fill:#fea1a1;}.cls-13{fill:#fd8f90;}.cls-14{fill:#e93f4b;}.cls-15{opacity:0.52;}.cls-16{fill:#ce2539;}.cls-17{fill:#090963;}.cls-18,.cls-36{fill:#18127b;}.cls-19{opacity:0.49;}.cls-20{fill:#0097cf;}.cls-21{fill:#fff;}.cls-22,.cls-33{opacity:0.21;}.cls-23,.cls-33{fill:#e0d8ce;}.cls-24{fill:#d32647;}.cls-25{fill:#e5374b;}.cls-26{fill:#ffc501;}.cls-27{fill:#edb107;}.cls-28{fill:#ff9201;}.cls-29{fill:#feac00;}.cls-30{opacity:0.4;}.cls-31{fill:#bc6404;}.cls-32{fill:#d32935;}.cls-34{fill:#d7e1fc;}.cls-35,.cls-36{opacity:0.15;}.cls-37{opacity:0.42;}.cls-38{opacity:0.54;}.cls-39{fill:#3e723e;}</style><clipPath id="clip-path" transform="translate(-267.35 39.11)"><rect class="cls-1" x="-5" width="1029" height="600"/></clipPath></defs><title>landingBigBanner</title><g id="BG"><circle class="cls-2" cx="892.12" cy="123.85" r="58.86" transform="translate(-93.62 706.21) rotate(-45)"/><circle class="cls-3" cx="624.95" cy="162.95" r="86.82"/><circle class="cls-4" cx="624.95" cy="162.95" r="116.15"/><circle class="cls-5" cx="624.78" cy="162.95" r="35.98"/><polygon class="cls-6" points="619.54 188.05 129.24 536.04 129.24 642.11 619.54 188.05"/><polygon class="cls-6" points="619.54 144.05 317.05 598.11 533.1 598.11 619.54 144.05"/><g class="cls-7"><path class="cls-8" d="M689.6-39.11s68.74,40.45,18.8,73.92S524.46,88.47,527.72,151.64s61.68,28.81,41.55,103-169,80-160.86,184.06-187.86,102.88-130.54,193,819.56,6,819.56,6L1070.25-21Z" transform="translate(-267.35 39.11)"/><path class="cls-9" d="M1183.48,627.31c0,62.29-184.22,112.79-411.48,112.79-180.41,0-333.7-31.84-389.22-76.12-14.42-11.49-22.25-23.83-22.25-36.67,0-31.13,46-59.34,120.44-79.74,10.08-2.76,20.69-5.39,31.76-7.85h0c70.77-15.77,161-25.21,259.26-25.21,18.91,0,37.54.35,55.79,1q19.14.69,37.69,1.87c41.9,2.68,81.34,7.1,117.25,13C1103,550.09,1183.48,586.13,1183.48,627.31Z" transform="translate(-267.35 39.11)"/><path class="cls-10" d="M827.79,515.55a12.7,12.7,0,0,1-.62,1.78c-2.73,6.2-8.55,1.69-11.22,5.32-1.16,1.56.47,3.78,2.28,4.49s4,.81,5.42,2.1c3,2.6.54,7.91-3.14,9.38s-7.78.68-11.73.88a2.42,2.42,0,0,0-2,.81c-.5.74-.08,1.74-.14,2.63-.11,1.8-2.11,2.92-3.89,2.95s-3.49-.7-5.26-1a10.84,10.84,0,0,0-8.05,1.94c.16,1.13,1.38,1.7,2.35,2.32a2.28,2.28,0,0,1,1.1,2.73c-8.31,3.88-10.69-4.76-17.88-5.8-9.47-1.36-14,6.38-14.53,14.1-2.22,1.28-5-.16-7.3-1.21s-5.79-1.37-6.84,1c-1,2.13,1,4.35,2.59,6.09s2.77,4.77.87,6.12a4.46,4.46,0,0,1-3,.45c-7.65-.62-15.27-1.25-22.92-1.89a2,2,0,0,1-1.64-.67,2.61,2.61,0,0,1-.17-1.45c0-2.17-1.66-4-3.65-4.92a16.85,16.85,0,0,0-6.37-.94,10.36,10.36,0,0,1-3.38,4.79c-3-3.83-.7-16.7-8.73-16.56-5.89.11-16.82.2-29.2,6.35-3.9,2-7.16,6.07-11.16,7.59-4.92,1.86-7.92-.82-12.47-.67-3.56.11-6.91,3.35-10.32.68-2.55-2,.62-7-2.45-8.4a4.1,4.1,0,0,0-3,.28,6,6,0,0,1-.64,3.49c-2.35-.16-8.56-3.54-10.49-2.33s-2.1,8.47,0,9.09c-9.79-2.9-16.67-13.48-15.35-23.62a5.7,5.7,0,0,0,6.37-2.7,19.87,19.87,0,0,0,15.33,4.79c1.14-2.23-1.58-4.55-4-5s-5.26-.09-7.14-1.73c-1.31-1.15-1.78-3-2.72-4.45-3-4.75-9.85-4.83-15.45-4.14-3.69.46-7.56,1.08-10.54,3.31s-4.68,6.64-2.76,9.84c-3.43-.22-7-.41-10.1,1.05s-5.42,5.15-4.17,8.33c-2.87,3-7.87.28-10.93-2.58s-7.77-5.87-10.93-3.16l2.47,4.4c-3.07,2.44-8.47.27-9-3.63-.14-1,0-2.06-.19-3.07-.56-2.76-3.53-4.43-6.33-4.63s-5.56.7-8.32,1.19c-5.48,1-10.17.9-13.65-1.61,70.77-15.77,161-25.21,259.26-25.21C790.91,514.51,809.54,514.86,827.79,515.55Z" transform="translate(-267.35 39.11)"/><path class="cls-10" d="M953.26,542.79a9.23,9.23,0,0,0,0,8.48c-2.21-1.67-5.42,1.54-4.82,4.25s3.21,4.45,5.6,5.88q12.25,7.35,24.5,14.71c-10.89,5.6-24-2-32.41-10.88-3.44-3.68-6.67-7.68-10.93-10.36s-10-3.83-14.31-1.32c-.27,3-.51,6-.76,9-2.34.24-4.7.47-7,.69a17.72,17.72,0,0,1,1.72,8.2,99.45,99.45,0,0,1-19.29.43,31.15,31.15,0,0,1-5.64-14.45c-3,0-6.08-.09-9.12-.15A13.14,13.14,0,0,1,875.14,568,67.16,67.16,0,0,0,856.92,556c-1.83,1.69-.53,5.26,1.81,5.63-3.19-.19-6.55-.53-9.05-2.51s-3.46-6.69-.74-8.64c4.45-3.19,9.78,4,15.24,3.63,3.67-.28,6.25-4.92,4.54-8.2a69.44,69.44,0,0,1-20.41-7.37c2.81.5,4-3.83,2.66-6.34s-3.94-4.4-4.55-7.19l14.45-1.76c1.59-.2,3.46-.59,4.07-2.07.48-1.2-.1-2.67.54-3.79,41.9,2.68,81.34,7.1,117.25,13C975.89,539.15,964.33,544.23,953.26,542.79Z" transform="translate(-267.35 39.11)"/><path class="cls-10" d="M511,597.17c-9.12-3.21-20.25,4.39-20.6,14a10.22,10.22,0,0,1-.55,4.26,7.18,7.18,0,0,1-3.37,2.84,56.8,56.8,0,0,1-24.09,6.41,15.76,15.76,0,0,0-4.75.6c-2.12.74-3.74,2.43-5.39,3.92-13.57,12.21-33.61,13.29-51.82,12.42a8.09,8.09,0,0,0-4.27.58c-3.43,1.89-2.26,6.94-2.63,10.84-.55,5.47-5.34,9.7-10.73,10.91-14.42-11.49-22.25-23.83-22.25-36.67,0-31.13,46-59.34,120.44-79.74.61.12,1.2.24,1.8.38,3.38.78,10.56,1.32,11.13,4.9.84,5.2-5,6.17-8.45,4.62a18.61,18.61,0,0,0-4.24-1.7c-1.52-.25-3.31.23-4,1.61-1.18,2.37,1.87,5,3.75,5.83a85.25,85.25,0,0,0-9.31-.12c6.13,3.33,13.74,3.48,20.55,4.4-.2.91-.08,2.57,1.1,2.87l-4.06,2.37a5.61,5.61,0,0,1-.95,7.74,14.29,14.29,0,0,0,7.68,4c-.68-4.23,1.78-9.33,6.06-9.75s7.29,6.54,3.43,8.42l6.23,2.74A33.45,33.45,0,0,1,511,597.17Z" transform="translate(-267.35 39.11)"/><path class="cls-10" d="M523.4,568.06a8.85,8.85,0,0,1-10.25-6.55c3.17-.61,7-1.91,7.44-5.11a4.34,4.34,0,0,1,.25-1.4,2.35,2.35,0,0,1,2.52-1c2.7.38,4.82,2.66,5.8,5.2a23.24,23.24,0,0,1,1.07,8.06l-6,.13Z" transform="translate(-267.35 39.11)"/><path class="cls-10" d="M543.29,568c-1.49.43-2.39-2.07-1.3-3.18s2.9-1,4.41-.61c2.05.55,4.22,1.76,4.69,3.83.33,1.4-.22,2.84-.31,4.28s.62,3.19,2.06,3.3l-4.49.16c.48-1.52-.73-3.14-2.21-3.71a9.57,9.57,0,0,0-4.7-.16,1.92,1.92,0,0,1,2.11-2.06Z" transform="translate(-267.35 39.11)"/></g></g><g id="SUN"><circle class="cls-2" cx="893.12" cy="124.85" r="58.86" transform="translate(-94.04 707.21) rotate(-45)"/><circle class="cls-3" cx="625.95" cy="163.95" r="86.82"/><circle class="cls-4" cx="625.95" cy="163.95" r="116.15"/><circle class="cls-5" cx="625.78" cy="163.95" r="35.98"/><polygon class="cls-11" points="620.54 145.05 130.24 493.04 130.24 599.11 620.54 145.05"/><polygon class="cls-11" points="620.54 145.05 318.05 599.11 534.1 599.11 620.54 145.05"/></g><g id="Layer_1" data-name="Layer 1"><path class="cls-12" d="M592.72,342c-5.49,10.16-8.31,21.58-13.8,31.73-2.91,5.39-5.55,7.36-9.21,12.81-1.53,2.27-4.53,5.51-5.19,8.17s.44,7.36.63,10.13l.43,6.07c-1.15.73-1.93-1-2.29-2.31a6.1,6.1,0,0,0-2.06-3.34c-2.26,3.23-3.42,5.8-2.46,11.24-.78.86-2-2.11-1.93-3.51l-.18,2c-.45,1.15-1.62-1.72-2.42-2.58a2.83,2.83,0,0,1-1-2.05,17.25,17.25,0,0,1,.06-4.31A175.19,175.19,0,0,1,562.53,384c1.16-2.42,2.38-4.81,3.6-7.2,1.33-2.63,2.67-5.25,4.2-7.77,1.08-1.76,2.25-3.47,3.27-5.27,5.52-9.83,6-21.82,11.09-31.87" transform="translate(-267.35 39.11)"/><path class="cls-13" d="M629.56,336.5c3.47,8,9,17.14,12.48,25.14,1.54,3.54,3.11,7.14,5.58,10.11a40.62,40.62,0,0,0,7.93,6.78c7,5.05,16,10.13,23,15.19,3.64,2.61,3.9,6.09,7.57,9.35a16.41,16.41,0,0,1,8.72-4.44c-5.45-9.72-8.74-6.82-12.85-10.77-6.07-5.84-10.59-10.4-16.66-16.24-3.39-3.26-8.21-5.9-11-9.67-2.47-3.29-6.94-13.37-8.83-17-3.36-6.49-3.87-9.37-6.63-16.13" transform="translate(-267.35 39.11)"/><path class="cls-12" d="M608.9,304a8.71,8.71,0,0,1-3.08,11.65c-.16.1-.34.24-.31.42a.49.49,0,0,0,.19.24,22,22,0,0,0,4.9,3.15,11.42,11.42,0,0,0,5.69,1,15.41,15.41,0,0,0,6.59-2.67.38.38,0,0,0,.17-.16c.05-.11,0-.23-.08-.33a11.46,11.46,0,0,1-1.61-6.66,23,23,0,0,1,1.57-6" transform="translate(-267.35 39.11)"/><path class="cls-13" d="M629.55,414.1q4.25,39.57,11,78.82A157.3,157.3,0,0,0,646,515.5c3.29,9.94,6.45,10.56,16.57,16.47-6.5-1.93-16.83-1.17-23.32-3.1a2.25,2.25,0,0,1-1.15-.6,2.33,2.33,0,0,1-.3-1.71c1.19-17.41-10.66-32.93-14-50.07-.88-4.58-1.14-9.25-1.79-13.87-2.6-18.31-11.29-35.15-16-53" transform="translate(-267.35 39.11)"/><path class="cls-14" d="M637.78,524.29a10.42,10.42,0,0,0-.79,8.4,1.54,1.54,0,0,0,.39.72,1.73,1.73,0,0,0,.78.31c4.1.92,8.4.6,12.54,1.37,1.48.28,2.95.7,4.45.84a25.18,25.18,0,0,0,3.25,0l7.25-.28c1.6-.06,3.51-.31,4.13-1.66a.84.84,0,0,0,0-.74,1.31,1.31,0,0,0-.51-.41,40.31,40.31,0,0,0-11.89-4.2,3.9,3.9,0,0,0-1.27-.09,4.91,4.91,0,0,0-1,.33c-5.72,2.35-12.67-.62-17.39-4.61" transform="translate(-267.35 39.11)"/><g class="cls-15"><path class="cls-16" d="M668.42,535.05c-1.76.31-3.56-.25-5.36-.43-2.23-.21-4.49.18-6.72-.07a42.27,42.27,0,0,1-5.31-1.27,26.36,26.36,0,0,0-7.29-.76,36.35,36.35,0,0,1-5.52.12,4.78,4.78,0,0,1-1.31-.34c0,.13.06.26.1.39a1.54,1.54,0,0,0,.39.72,1.87,1.87,0,0,0,.78.32c4.1.91,8.4.59,12.54,1.36,1.48.28,2.95.7,4.45.84a22,22,0,0,0,3.25,0l7.25-.28a6.57,6.57,0,0,0,3.37-.8A4.4,4.4,0,0,1,668.42,535.05Z" transform="translate(-267.35 39.11)"/></g><path class="cls-12" d="M593.15,410.66l15.11,37.43c1.18,2.91,2.38,6,1.91,9.12-.58,3.83-3.54,6.78-6.13,9.67-7.45,8.28-12.93,18.11-19.43,27.16-4.89,6.82-7.93,13.06-15.83,19.57,2.22,4.52,3.17,9.93,16.2,17.77-11.76-17.21,3.65-27.52,12.84-37.29s19.07-19,26.73-30a17.29,17.29,0,0,0,2.74-5.22c.79-2.93.14-6-.51-9q-5.55-25.09-11.54-50.08" transform="translate(-267.35 39.11)"/><path class="cls-14" d="M568.86,513.36a10.41,10.41,0,0,0-5.23,6.62,1.49,1.49,0,0,0-.06.81,1.73,1.73,0,0,0,.48.69c2.94,3,6.73,5.07,9.78,8,1.09,1,2.09,2.19,3.28,3.13a24.32,24.32,0,0,0,2.71,1.78l6.23,3.71c1.38.82,3.12,1.65,4.38.85a.83.83,0,0,0,.43-.6,1.26,1.26,0,0,0-.2-.61,40.08,40.08,0,0,0-7.69-10,3.82,3.82,0,0,0-1-.76,4.12,4.12,0,0,0-1-.26c-6.08-1.14-10.3-7.41-12.09-13.33" transform="translate(-267.35 39.11)"/><g class="cls-15"><path class="cls-16" d="M588.72,539.05c-1.64-.69-2.85-2.15-4.26-3.26-1.77-1.4-3.87-2.3-5.61-3.73a40.14,40.14,0,0,1-3.76-3.95,26.27,26.27,0,0,0-5.7-4.6,37.09,37.09,0,0,1-4.7-2.9,5.11,5.11,0,0,1-.91-1c0,.13-.09.25-.13.38a1.4,1.4,0,0,0-.06.81,1.61,1.61,0,0,0,.47.69c3,3,6.73,5.07,9.78,8,1.1,1,2.1,2.19,3.28,3.13a24.53,24.53,0,0,0,2.72,1.79l6.23,3.7a6.63,6.63,0,0,0,3.27,1.17A4.48,4.48,0,0,1,588.72,539.05Z" transform="translate(-267.35 39.11)"/></g><path class="cls-13" d="M608.93,304.17c.73,2.17,1.46,4.53.73,6.7a12,12,0,0,0,11.9-1.93l-4.07-1.45" transform="translate(-267.35 39.11)"/><path class="cls-12" d="M624.76,283.89c.92,2.1.56,4.27.75,6.55.11,1.37.61,3.24.82,4.6.77,4.84-1.09,9.48-4.35,13.42a3.29,3.29,0,0,1-1.44,1.18,3.16,3.16,0,0,1-1.3,0,21.76,21.76,0,0,1-9-3.15,10.43,10.43,0,0,1-2.54-2.79,9.86,9.86,0,0,1-1.07-2.49,36.94,36.94,0,0,1-2.24-7.8c-.39-2.69-1.74-11.17-.75-13.69" transform="translate(-267.35 39.11)"/><path class="cls-13" d="M624.79,287c-2.44,1.1-10.84,4.49-13.46,5a37.27,37.27,0,0,0-4.84,1.08,1.7,1.7,0,0,0-.86.53,1.74,1.74,0,0,0-.22,1.08c.12,2.49,1.07,4.88,1.33,7.36,0,.06,0,.14,0,.17a.17.17,0,0,1-.14,0,7.45,7.45,0,0,1-3.21-2.65,22,22,0,0,1-2-3.7c-.48-1-1-2-1.39-3.06a6.35,6.35,0,0,1-.67-3.58,5.42,5.42,0,0,1,.77-1.74,62.67,62.67,0,0,1,8.1-8.35" transform="translate(-267.35 39.11)"/><circle class="cls-13" cx="342.76" cy="338.76" r="1.55"/><circle class="cls-13" cx="356.56" cy="336.71" r="1.55"/><path class="cls-13" d="M617.69,294.56c1,1.34,1.2,3.11,2.09,4.52.16.25.33.62.11.82a.46.46,0,0,1-.22.11l-1.53.54a3.18,3.18,0,0,1-1.25.26c0-1.74.78-4.51.8-6.25" transform="translate(-267.35 39.11)"/><path class="cls-17" d="M609.25,295.45a5.81,5.81,0,0,1,1.91-1.51,4.08,4.08,0,0,1,2.47,0,.21.21,0,0,0,.11-.4,4.54,4.54,0,0,0-2.68,0,5.9,5.9,0,0,0-2.09,1.62.2.2,0,0,0,.28.29Z" transform="translate(-267.35 39.11)"/><path class="cls-17" d="M620.24,293.45a3.83,3.83,0,0,1,1.69-1.37,3,3,0,0,1,2.19.42c.24.12.45-.24.21-.36a3.52,3.52,0,0,0-2.51-.46,4.41,4.41,0,0,0-1.94,1.56c-.16.21.2.42.36.21Z" transform="translate(-267.35 39.11)"/><path class="cls-17" d="M607,292.76c1.72-.91,3.51-1.81,5.52-1.56.27,0,.27-.38,0-.41-2.08-.26-3.95.67-5.74,1.62-.23.12,0,.48.21.35Z" transform="translate(-267.35 39.11)"/><path class="cls-18" d="M636.47,299.8c-1.64-2.27-3.93-4.12-5-6.71a15,15,0,0,1-.89-4,66.18,66.18,0,0,0-.87-6.58,13.39,13.39,0,0,0-2.74-6,14.29,14.29,0,0,0-9.53-5c-2.09-.12-4.89-.12-6.55,1.1-3.58-.36-6.94,1.94-9.66,4.28a19.35,19.35,0,0,0-2.79,3.07,25.48,25.48,0,0,0-3.8,6.69c-.77,2.14-1.16,4.4-2,6.53-1.31,3.54-3.71,6.65-4.6,10.32a25.51,25.51,0,0,0-.57,4.54,1.18,1.18,0,0,0,.13.79,1.12,1.12,0,0,0,.51.34,13.54,13.54,0,0,0,4.13,1.31c1.38.14,2.77-.15,4.16-.14,1.71,0,3.38.48,5.09.59a12.66,12.66,0,0,0,7-1.56,5.53,5.53,0,0,0,2.22-2.53c-1.35-.45-2.22-1.91-3-3.12a18.87,18.87,0,0,1-1.67-3.92,37.89,37.89,0,0,1-1.93-7.57l2-.12a10.12,10.12,0,0,0,2.58-.38.83.83,0,0,0,.43-.24,1,1,0,0,0,.18-.53,38.2,38.2,0,0,0,.11-7.56,24.62,24.62,0,0,1,2,7.58l3-.13a.43.43,0,0,0,.29-.08.44.44,0,0,0,.11-.29,57,57,0,0,0,.05-7.53,31.12,31.12,0,0,1,2.75,6.68.45.45,0,0,0,.11.23.45.45,0,0,0,.29.1,12.09,12.09,0,0,0,2.62-.07,19.22,19.22,0,0,0,4.72-1.24c0,.34,0,.69,0,1,.19,2.95,1.23,5.83,1.07,8.78-.18,3.42-1.95,6.53-3.85,9.37,3.41.66,7.22.91,10.07-1.07a13.43,13.43,0,0,0,3.92-5.06,2,2,0,0,0,.31-1.06A2,2,0,0,0,636.47,299.8Z" transform="translate(-267.35 39.11)"/><path class="cls-17" d="M609.22,287a5.37,5.37,0,0,1-.84,2.3,2.61,2.61,0,0,1-2.09,1.15c-.39,0-2.15.11-2.53,0-.69,2.56.06,6.57.6,9.17a24,24,0,0,0,1.36,4.86,3.41,3.41,0,0,1,.42,1.44,2.06,2.06,0,0,1-1.67,1.72,7.85,7.85,0,0,1-2.56,0,16.83,16.83,0,0,0-8.34,1.41,2.45,2.45,0,0,0-1.52,1.44l.21,0c1.38.14,2.77-.15,4.16-.14,1.71,0,3.39.48,5.09.59a12.66,12.66,0,0,0,7-1.56,4.88,4.88,0,0,0,2.24-2.53,12.07,12.07,0,0,1-3.09-3.28,16.79,16.79,0,0,1-1.57-3.76,37.25,37.25,0,0,1-1.94-7.57l2-.12a10.19,10.19,0,0,0,2.58-.38.88.88,0,0,0,.43-.24,1,1,0,0,0,.17-.53,37.32,37.32,0,0,0,.15-6.93,2.48,2.48,0,0,0-.19-.26A11.22,11.22,0,0,1,609.22,287Z" transform="translate(-267.35 39.11)"/><path class="cls-17" d="M630.42,304.62a4.07,4.07,0,0,1-2.64-1.2,3.37,3.37,0,0,1-.28-2.56,24.9,24.9,0,0,0,.57-3.73c0-1.72-.42-3.43-.33-5.16,0-.71.16-1.41.2-2.13.16-2.91-1.39-7.46-3.87-9,.31.87.61,1.74.91,2.61a3.94,3.94,0,0,1,.29,2.56,2.68,2.68,0,0,1-1.56,1.48,7.47,7.47,0,0,1-2.16.43,4.82,4.82,0,0,1-3.3-.44,4.77,4.77,0,0,1-1-1.12l-2.05-2.76a31.07,31.07,0,0,1,2.4,6,.51.51,0,0,0,.12.23.45.45,0,0,0,.28.1,12.06,12.06,0,0,0,2.62-.08,18.37,18.37,0,0,0,4.72-1.24c0,.35,0,.69.05,1,.18,2.95,1.23,5.83,1.07,8.79-.19,3.41-2.06,6.53-4,9.38,3.41.65,7.33.9,10.18-1.08l0,0a1.14,1.14,0,0,0,0-.45C632.49,305.31,631.39,304.84,630.42,304.62Z" transform="translate(-267.35 39.11)"/><path class="cls-17" d="M612.5,289.86c-.74-.24-1-1.14-1.14-1.89a10.64,10.64,0,0,0-1.44-3.29,24.48,24.48,0,0,1,1.49,6.31l3-.13a.43.43,0,0,0,.29-.08.44.44,0,0,0,.11-.29,33.37,33.37,0,0,0,.14-4.07,5.15,5.15,0,0,1-.79,2.73A1.56,1.56,0,0,1,612.5,289.86Z" transform="translate(-267.35 39.11)"/><g class="cls-19"><path class="cls-20" d="M608.38,276.38a2.3,2.3,0,0,0-1.31.32c-.07.05,0,.17.07.12a2.16,2.16,0,0,1,1.24-.3.07.07,0,0,0,0-.14Z" transform="translate(-267.35 39.11)"/></g><g class="cls-19"><path class="cls-20" d="M608.87,277.14a4.77,4.77,0,0,0-1.51,1.16c-.06.07,0,.17.1.1a4.59,4.59,0,0,1,1.48-1.14c.08,0,0-.16-.07-.12Z" transform="translate(-267.35 39.11)"/></g><g class="cls-19"><path class="cls-20" d="M610.23,278.86a3.43,3.43,0,0,0-1,.83c-.06.06,0,.16.09.1a3.47,3.47,0,0,1,1-.82.07.07,0,1,0-.07-.11Z" transform="translate(-267.35 39.11)"/></g><g class="cls-19"><path class="cls-20" d="M602.47,279.2a21.24,21.24,0,0,0-1.73,1.55.07.07,0,0,0,.1.1,19.69,19.69,0,0,1,1.73-1.55c.07-.06,0-.15-.1-.1Z" transform="translate(-267.35 39.11)"/></g><g class="cls-19"><path class="cls-20" d="M603.09,281.51a5,5,0,0,0-1.51,1.73c0,.07.07.15.12.07a5,5,0,0,1,1.45-1.68c.07-.05,0-.17-.06-.12Z" transform="translate(-267.35 39.11)"/></g><g class="cls-19"><path class="cls-20" d="M603.78,284.21l-.75,1.27c0,.07.08.14.12.07l.75-1.27c0-.08-.08-.15-.12-.07Z" transform="translate(-267.35 39.11)"/></g><g class="cls-19"><path class="cls-20" d="M598.78,285.39a5.54,5.54,0,0,0-1.36,2.49c0,.08.11.12.13,0a5.41,5.41,0,0,1,1.32-2.43c.06-.07,0-.16-.09-.1Z" transform="translate(-267.35 39.11)"/></g><g class="cls-19"><path class="cls-20" d="M599.14,289.57a9.41,9.41,0,0,0-.43,1.72c0,.09.13.09.14,0a8.79,8.79,0,0,1,.42-1.68c0-.08-.1-.12-.13,0Z" transform="translate(-267.35 39.11)"/></g><g class="cls-19"><path class="cls-20" d="M595.42,292.91a3.51,3.51,0,0,0-.34,1.52.07.07,0,0,0,.14,0,3.32,3.32,0,0,1,.31-1.45c0-.08-.08-.15-.11-.07Z" transform="translate(-267.35 39.11)"/></g><g class="cls-19"><path class="cls-20" d="M598.06,293.49a9.82,9.82,0,0,0-.56,2.11c0,.09.12.13.13,0a9.16,9.16,0,0,1,.57-2.11c0-.08-.1-.12-.14,0Z" transform="translate(-267.35 39.11)"/></g><g class="cls-19"><path class="cls-20" d="M599.93,295.22l-.11,1.06c0,.09.12.09.13,0l.12-1c0-.09-.13-.09-.14,0Z" transform="translate(-267.35 39.11)"/></g><g class="cls-19"><path class="cls-20" d="M594.09,297.26l-.3,1.28c0,.09.12.12.14,0l.29-1.28c0-.09-.12-.12-.13,0Z" transform="translate(-267.35 39.11)"/></g><g class="cls-19"><path class="cls-20" d="M596,299.08a5.46,5.46,0,0,0-.09,1.51c0,.08.14.09.13,0a5.18,5.18,0,0,1,.09-1.47c0-.09-.11-.12-.13,0Z" transform="translate(-267.35 39.11)"/></g><g class="cls-19"><path class="cls-20" d="M598.42,300.07a2.87,2.87,0,0,0,.09,1.83c0,.09.16.05.13,0a2.82,2.82,0,0,1-.09-1.77.07.07,0,0,0-.13,0Z" transform="translate(-267.35 39.11)"/></g><g class="cls-19"><path class="cls-20" d="M600.73,301.93l.38,1.6c0,.09.15.05.13,0l-.38-1.59a.07.07,0,1,0-.13,0Z" transform="translate(-267.35 39.11)"/></g><g class="cls-19"><path class="cls-20" d="M593.2,302.21a4.37,4.37,0,0,0-.71,2.16.07.07,0,0,0,.14,0,4.31,4.31,0,0,1,.68-2.09c.05-.07-.07-.14-.11-.07Z" transform="translate(-267.35 39.11)"/></g><g class="cls-19"><path class="cls-20" d="M596.25,304.17a2.15,2.15,0,0,0-.11.87c0,.09.15.09.14,0a2.13,2.13,0,0,1,.1-.83c0-.08-.1-.12-.13,0Z" transform="translate(-267.35 39.11)"/></g><g class="cls-19"><path class="cls-20" d="M614.69,277a2.55,2.55,0,0,0,1.31.43.07.07,0,0,0,0-.14,2.38,2.38,0,0,1-1.24-.41.07.07,0,1,0-.07.12Z" transform="translate(-267.35 39.11)"/></g><g class="cls-19"><path class="cls-20" d="M617,274.6l1,.32c.08,0,.12-.1,0-.13l-1-.33c-.08,0-.12.11,0,.14Z" transform="translate(-267.35 39.11)"/></g><g class="cls-19"><path class="cls-20" d="M621.83,275.08a7.43,7.43,0,0,1,1.78.95c.07.06.14-.06.07-.11a7.73,7.73,0,0,0-1.81-1c-.08,0-.12.11,0,.14Z" transform="translate(-267.35 39.11)"/></g><g class="cls-19"><path class="cls-20" d="M621.66,278.44a6.58,6.58,0,0,0,1.38,1.2c.07.05.14-.07.07-.12a6.06,6.06,0,0,1-1.35-1.18c0-.06-.15,0-.1.1Z" transform="translate(-267.35 39.11)"/></g><g class="cls-19"><path class="cls-20" d="M625.65,278.17l.87,2c0,.08.15,0,.12-.07l-.88-2c0-.08-.15,0-.11.07Z" transform="translate(-267.35 39.11)"/></g><g class="cls-19"><path class="cls-20" d="M624.85,281.89l1.31,2c.05.07.17,0,.12-.07l-1.31-2a.07.07,0,1,0-.12.07Z" transform="translate(-267.35 39.11)"/></g><g class="cls-19"><path class="cls-20" d="M628,283.23l.23,2c0,.09.15.09.14,0l-.24-2c0-.09-.14-.09-.13,0Z" transform="translate(-267.35 39.11)"/></g><g class="cls-19"><path class="cls-20" d="M626.42,287.35a2.66,2.66,0,0,0,.66,1.94c.06.06.16,0,.1-.1a2.44,2.44,0,0,1-.62-1.84.07.07,0,0,0-.14,0Z" transform="translate(-267.35 39.11)"/></g><g class="cls-19"><path class="cls-20" d="M629.15,288.77a11.59,11.59,0,0,0,.52,1.92c0,.08.16,0,.13,0a11.48,11.48,0,0,1-.52-1.91.07.07,0,0,0-.13,0Z" transform="translate(-267.35 39.11)"/></g><g class="cls-19"><path class="cls-20" d="M628.79,293.41A4.89,4.89,0,0,0,629,295c0,.08.16.05.13,0a4.87,4.87,0,0,1-.2-1.57c0-.09-.13-.09-.14,0Z" transform="translate(-267.35 39.11)"/></g><g class="cls-19"><path class="cls-20" d="M630.67,295.34a3.07,3.07,0,0,0,.54,1.52c0,.07.17,0,.12-.07a2.8,2.8,0,0,1-.52-1.45c0-.09-.15-.09-.14,0Z" transform="translate(-267.35 39.11)"/></g><g class="cls-19"><path class="cls-20" d="M628.62,297.7a8.84,8.84,0,0,0,1.2,1.7c.06.06.16,0,.1-.1a8.54,8.54,0,0,1-1.18-1.67c0-.08-.16,0-.12.07Z" transform="translate(-267.35 39.11)"/></g><g class="cls-19"><path class="cls-20" d="M631.49,299.13l1,1.15c0,.07.15,0,.09-.1l-1-1.15c-.05-.07-.15,0-.09.1Z" transform="translate(-267.35 39.11)"/></g><g class="cls-19"><path class="cls-20" d="M629.92,300.66a5.24,5.24,0,0,0,.91,1.41c.06.07.16,0,.1-.09a5.23,5.23,0,0,1-.89-1.39c0-.08-.16,0-.12.07Z" transform="translate(-267.35 39.11)"/></g><g class="cls-19"><path class="cls-20" d="M632.49,302.62l.35.62c0,.08.16,0,.11-.07l-.34-.62c0-.08-.16,0-.12.07Z" transform="translate(-267.35 39.11)"/></g><g class="cls-19"><path class="cls-20" d="M633.42,298.67a3.64,3.64,0,0,0,.94,1.53c.06.06.16,0,.1-.1a3.51,3.51,0,0,1-.91-1.47c0-.08-.16-.05-.13,0Z" transform="translate(-267.35 39.11)"/></g><g class="cls-19"><path class="cls-20" d="M628.67,305.57a5.24,5.24,0,0,1-.53-2.2c0-.09-.13-.09-.13,0a5.27,5.27,0,0,0,.54,2.28c0,.08.15,0,.12-.07Z" transform="translate(-267.35 39.11)"/></g><g class="cls-19"><path class="cls-20" d="M626.69,305.56a4.92,4.92,0,0,1-.2-1.47.07.07,0,0,0-.14,0,5.07,5.07,0,0,0,.2,1.5c0,.09.16.05.14,0Z" transform="translate(-267.35 39.11)"/></g><g class="cls-19"><path class="cls-20" d="M598.66,307.73l.23-1.16c0-.09-.11-.12-.13,0l-.23,1.16c0,.09.11.13.13,0Z" transform="translate(-267.35 39.11)"/></g><g class="cls-19"><path class="cls-20" d="M602.29,308.18a16.56,16.56,0,0,1,.42-2.21c0-.08-.11-.12-.13,0a17.14,17.14,0,0,0-.42,2.25c0,.09.12.09.13,0Z" transform="translate(-267.35 39.11)"/></g><g class="cls-19"><path class="cls-20" d="M611.42,280l-.62,1a.07.07,0,1,0,.12.07l.62-1a.07.07,0,0,0-.12-.07Z" transform="translate(-267.35 39.11)"/></g><g class="cls-19"><path class="cls-20" d="M613.36,279.85a3.61,3.61,0,0,0-.43,1.31c0,.09.12.09.13,0a3.63,3.63,0,0,1,.41-1.24c0-.07-.07-.14-.11-.07Z" transform="translate(-267.35 39.11)"/></g><g class="cls-19"><path class="cls-20" d="M616.76,279.65a3.61,3.61,0,0,0,1.07,1c.08.05.15-.07.07-.11a3.55,3.55,0,0,1-1-.95c0-.07-.17,0-.12.07Z" transform="translate(-267.35 39.11)"/></g><g class="cls-19"><path class="cls-20" d="M618.59,278.41q1,.9,2.13,1.71c.07.05.14-.06.07-.12-.72-.53-1.42-1.1-2.11-1.68-.06-.06-.16,0-.09.09Z" transform="translate(-267.35 39.11)"/></g><g class="cls-19"><path class="cls-20" d="M620.43,282.17a16.11,16.11,0,0,1,1.51,2.07c0,.08.16,0,.12-.07a14.89,14.89,0,0,0-1.54-2.1c0-.07-.15,0-.09.1Z" transform="translate(-267.35 39.11)"/></g><g class="cls-19"><path class="cls-20" d="M622.75,281.85l.86,1.37c0,.07.17,0,.12-.07l-.86-1.37c0-.07-.17,0-.12.07Z" transform="translate(-267.35 39.11)"/></g><path class="cls-12" d="M625.36,292.57A2.26,2.26,0,0,1,627,291a1.41,1.41,0,0,1,1.43,1.06,4.07,4.07,0,0,1,0,1.93,8.65,8.65,0,0,1-.65,2.23,3,3,0,0,1-1.64,1.57" transform="translate(-267.35 39.11)"/><path class="cls-13" d="M626.25,296.46c0-.3-.11-3.39.14-3.56a1,1,0,0,1,.36-.16.76.76,0,0,1,.78.58,2.24,2.24,0,0,1,0,1.06,4.75,4.75,0,0,1-.36,1.22,1.65,1.65,0,0,1-.9.86" transform="translate(-267.35 39.11)"/><path class="cls-12" d="M605.68,296.55a3.48,3.48,0,0,0-2.18-1.23,2,2,0,0,0-2.06,1.19,2.36,2.36,0,0,0,.14,1.65,8.71,8.71,0,0,0,2.66,3.2,3.89,3.89,0,0,0,3.89,1.07" transform="translate(-267.35 39.11)"/><path class="cls-13" d="M606.59,300.82c-.93-2.93-1.82-3.38-2.23-3.42a1,1,0,0,0-1,.57,1.14,1.14,0,0,0,.07.79,4,4,0,0,0,1.28,1.54,2.36,2.36,0,0,0,.76.49,2.59,2.59,0,0,0,1.11,0" transform="translate(-267.35 39.11)"/><path class="cls-21" d="M615.09,303.17c2.49,0,5.31-1.33,7.68-2.09a9.23,9.23,0,0,1-.92,1.69,3.94,3.94,0,0,1-2.94,2,4,4,0,0,1-1.63-.37,10.89,10.89,0,0,1-2.19-1.21" transform="translate(-267.35 39.11)"/><path class="cls-14" d="M599,364.27c-6.2,8.91-12.47,18-16.22,28.14a127.78,127.78,0,0,0-4.7,18l-3.34,15.93c6.39.89,12.44,3.37,18.56,5.42s12.58,3.7,19,2.83c5.84-.78,11.51-3.64,17.35-2.82,1.76.24,3.45.82,5.2,1.18a21.41,21.41,0,0,0,16.92-3.78c-6.2-5.54-9.66-13.53-11.79-21.57s-3.11-16.34-5.36-24.34a79.71,79.71,0,0,0-7.78-18.4" transform="translate(-267.35 39.11)"/><g class="cls-15"><path class="cls-16" d="M610.47,393A175.72,175.72,0,0,1,614,413.9c.21,2,.42,4.16,1.59,5.83A11.42,11.42,0,0,0,620,423c1.83.91,3.69,1.77,5.56,2.59s3.91,1.48,5.51.41l-9.49-16a60.48,60.48,0,0,0-5-7.61,30.34,30.34,0,0,1-3.26-4.25c-.86-1.56-1.82-3.06-2.76-5.1" transform="translate(-267.35 39.11)"/></g><g class="cls-15"><path class="cls-16" d="M584.11,403.49a163.42,163.42,0,0,1,7.27,15.38,7.47,7.47,0,0,1,.76,3.12,2.07,2.07,0,0,1-.41,1.21,2.29,2.29,0,0,1-.91.61,6.85,6.85,0,0,1-6.76-1.09,8.2,8.2,0,0,1-2.91-6.33c0-4.44,3.25-8.47,3-12.9" transform="translate(-267.35 39.11)"/></g><path class="cls-21" d="M606.11,315.18a17,17,0,0,0,15.22,2.16,4.69,4.69,0,0,1,1.79-.42,4.2,4.2,0,0,1,1.73.59l7.48,3.82a1.35,1.35,0,0,1,.9,1.6l.06,17.74a33.78,33.78,0,0,1-.38,6.44,31.11,31.11,0,0,1-2,6c-1.65,4-3.5,8.06-3.41,12.37a106.19,106.19,0,0,1-27.18.93A2.61,2.61,0,0,1,599,366a2.72,2.72,0,0,1-.78-1.9,71.67,71.67,0,0,0-3.49-16c-.57-1.54-1.23-3.05-1.68-4.62a36.72,36.72,0,0,1-.93-10.2l0-10.73a2,2,0,0,1,.18-1,2,2,0,0,1,.79-.66,61.9,61.9,0,0,1,13-5.72" transform="translate(-267.35 39.11)"/><path class="cls-21" d="M593.22,321.07a4.93,4.93,0,0,0-2.43,1.47,60.2,60.2,0,0,0-10.15,12.35.86.86,0,0,0,.22,1.4,58.31,58.31,0,0,0,10.62,6.88c.33.16.75.32,1,.1a1,1,0,0,0,.28-.88l-.07-20.11" transform="translate(-267.35 39.11)"/><path class="cls-21" d="M632.34,321.3a6.12,6.12,0,0,1,2.9,1.94c3.23,3.24,6.54,6.57,8.42,10.75a18.22,18.22,0,0,1-4.08,3.95,50.57,50.57,0,0,1-5.45,3.57.85.85,0,0,1-.59.15c-.32-.09-.41-.49-.43-.82-.07-1.53.18-3,.2-4.57.07-4.74-2-9.62-.41-14.08" transform="translate(-267.35 39.11)"/><g class="cls-22"><path class="cls-23" d="M597.36,348.68c2.39,1.34,4.9,2.71,7.64,2.83s5.22-1,7.86-1.31c5.31-.69,10.89,1.57,15.95-.17-1.65,1.65-2.74,4.36-5,4.49a6.88,6.88,0,0,1-2.31-.46,13.67,13.67,0,0,0-9.22.56,26.9,26.9,0,0,1-4.22,1.8,8.13,8.13,0,0,1-6.46-1.5c-1.84-1.34-3.22-4.18-4.19-6.24" transform="translate(-267.35 39.11)"/></g><path class="cls-14" d="M615.48,318.29c.3,6.22.69,12.44.89,18.66a167.07,167.07,0,0,1-.62,18.85c-.3,3.53-.65,7.06-1,10.58,0,.1.15.1.16,0,.63-6.27,1.25-12.55,1.53-18.85s0-12.46-.28-18.7l-.53-10.54c0-.1-.16-.1-.15,0Z" transform="translate(-267.35 39.11)"/><path class="cls-14" d="M597.39,328.24a.22.22,0,0,0,0-.43.22.22,0,0,0,0,.43Z" transform="translate(-267.35 39.11)"/><path class="cls-14" d="M596.36,333.45a.22.22,0,0,0,0-.43.22.22,0,0,0,0,.43Z" transform="translate(-267.35 39.11)"/><path class="cls-14" d="M603.79,324.56a.22.22,0,0,0,0-.43.22.22,0,0,0,0,.43Z" transform="translate(-267.35 39.11)"/><path class="cls-14" d="M600.56,321.43c.28,0,.28-.42,0-.43a.22.22,0,0,0,0,.43Z" transform="translate(-267.35 39.11)"/><path class="cls-14" d="M595.32,324c.28,0,.28-.42,0-.43a.22.22,0,0,0,0,.43Z" transform="translate(-267.35 39.11)"/><path class="cls-14" d="M588.73,331.08a.22.22,0,0,0,0-.43.22.22,0,0,0,0,.43Z" transform="translate(-267.35 39.11)"/><path class="cls-14" d="M589.79,338.1a.22.22,0,0,0,0-.43.22.22,0,0,0,0,.43Z" transform="translate(-267.35 39.11)"/><path class="cls-14" d="M584.94,334.47a.22.22,0,0,0,0-.43.22.22,0,0,0,0,.43Z" transform="translate(-267.35 39.11)"/><path class="cls-14" d="M589.92,325.72a.22.22,0,0,0,0-.43.22.22,0,0,0,0,.43Z" transform="translate(-267.35 39.11)"/><path class="cls-14" d="M605.71,319.68a.22.22,0,0,0,0-.43.22.22,0,0,0,0,.43Z" transform="translate(-267.35 39.11)"/><path class="cls-14" d="M608.82,325.41a.22.22,0,0,0,0-.43.22.22,0,0,0,0,.43Z" transform="translate(-267.35 39.11)"/><path class="cls-14" d="M603.85,329.65a.22.22,0,0,0,0-.43.22.22,0,0,0,0,.43Z" transform="translate(-267.35 39.11)"/><path class="cls-14" d="M600.86,333.07a.22.22,0,0,0,0-.43.22.22,0,0,0,0,.43Z" transform="translate(-267.35 39.11)"/><path class="cls-14" d="M597.56,338.38a.22.22,0,0,0,0-.43.22.22,0,0,0,0,.43Z" transform="translate(-267.35 39.11)"/><path class="cls-14" d="M597,343.16c.28,0,.28-.42,0-.43a.22.22,0,0,0,0,.43Z" transform="translate(-267.35 39.11)"/><path class="cls-14" d="M596.83,347.67a.22.22,0,0,0,0-.43.22.22,0,0,0,0,.43Z" transform="translate(-267.35 39.11)"/><path class="cls-14" d="M602.56,344.7a.22.22,0,0,0,0-.43.22.22,0,0,0,0,.43Z" transform="translate(-267.35 39.11)"/><path class="cls-14" d="M602.81,341a.22.22,0,0,0,0-.43.22.22,0,0,0,0,.43Z" transform="translate(-267.35 39.11)"/><path class="cls-14" d="M605.61,336a.22.22,0,0,0,0-.43.22.22,0,0,0,0,.43Z" transform="translate(-267.35 39.11)"/><path class="cls-14" d="M607.54,340.18a.22.22,0,0,0,0-.43.22.22,0,0,0,0,.43Z" transform="translate(-267.35 39.11)"/><path class="cls-14" d="M610.18,336.2a.22.22,0,0,0,0-.43.22.22,0,0,0,0,.43Z" transform="translate(-267.35 39.11)"/><path class="cls-14" d="M585.59,338.82a.22.22,0,0,0,0-.43.22.22,0,0,0,0,.43Z" transform="translate(-267.35 39.11)"/><path class="cls-14" d="M611,330.64v.07a.22.22,0,0,0,.43,0v-.07a.22.22,0,0,0-.43,0Z" transform="translate(-267.35 39.11)"/><path class="cls-14" d="M607.2,331.59a.22.22,0,0,0,0-.43.22.22,0,0,0,0,.43Z" transform="translate(-267.35 39.11)"/><path class="cls-14" d="M613.83,324.05h-.07a.22.22,0,0,0,0,.43h.07a.22.22,0,0,0,0-.43Z" transform="translate(-267.35 39.11)"/><path class="cls-14" d="M611.26,320.65a.22.22,0,0,0,0-.43.22.22,0,0,0,0,.43Z" transform="translate(-267.35 39.11)"/><path class="cls-14" d="M614.82,330a.22.22,0,0,0,0-.43.22.22,0,0,0,0,.43Z" transform="translate(-267.35 39.11)"/><path class="cls-14" d="M613.8,333.21a.22.22,0,0,0,0-.43.22.22,0,0,0,0,.43Z" transform="translate(-267.35 39.11)"/><path class="cls-14" d="M614.08,340.18a.22.22,0,0,0,0-.43.22.22,0,0,0,0,.43Z" transform="translate(-267.35 39.11)"/><path class="cls-14" d="M610.8,344.44a.22.22,0,0,0,0-.43.22.22,0,0,0,0,.43Z" transform="translate(-267.35 39.11)"/><path class="cls-14" d="M608.3,347.65a.22.22,0,0,0,0-.43.22.22,0,0,0,0,.43Z" transform="translate(-267.35 39.11)"/><path class="cls-14" d="M610.78,352.46a.22.22,0,0,0,0-.43.22.22,0,0,0,0,.43Z" transform="translate(-267.35 39.11)"/><path class="cls-14" d="M609.38,359a.22.22,0,0,0,0-.43.22.22,0,0,0,0,.43Z" transform="translate(-267.35 39.11)"/><path class="cls-14" d="M612,362.32a.22.22,0,0,0,0-.43.22.22,0,0,0,0,.43Z" transform="translate(-267.35 39.11)"/><path class="cls-14" d="M614.32,357.21a.22.22,0,0,0,0-.43.22.22,0,0,0,0,.43Z" transform="translate(-267.35 39.11)"/><path class="cls-14" d="M615,347.71v-.07a.22.22,0,0,0-.43,0v.07a.22.22,0,0,0,.43,0Z" transform="translate(-267.35 39.11)"/><path class="cls-14" d="M603.09,348.85v-.07a.22.22,0,0,0-.43,0v.07c0,.28.42.28.43,0Z" transform="translate(-267.35 39.11)"/><path class="cls-14" d="M598.75,352.61c.28,0,.28-.42,0-.43a.22.22,0,0,0,0,.43Z" transform="translate(-267.35 39.11)"/><path class="cls-14" d="M598.19,358.73a.22.22,0,0,0,0-.43.22.22,0,0,0,0,.43Z" transform="translate(-267.35 39.11)"/><path class="cls-14" d="M600.59,364.45a.22.22,0,0,0,0-.43.22.22,0,0,0,0,.43Z" transform="translate(-267.35 39.11)"/><path class="cls-14" d="M603.68,359a.22.22,0,0,0,0-.43.22.22,0,0,0,0,.43Z" transform="translate(-267.35 39.11)"/><path class="cls-14" d="M605.21,353.81a.22.22,0,0,0,0-.43.22.22,0,0,0,0,.43Z" transform="translate(-267.35 39.11)"/><path class="cls-14" d="M606.65,364.31a.22.22,0,0,0,0-.43.22.22,0,0,0,0,.43Z" transform="translate(-267.35 39.11)"/><path class="cls-20" d="M614,366a.05.05,0,0,0,0-.1.05.05,0,0,0,0,.1Z" transform="translate(-267.35 39.11)"/><path class="cls-14" d="M617.81,320a.22.22,0,0,0,0-.43.22.22,0,0,0,0,.43Z" transform="translate(-267.35 39.11)"/><path class="cls-14" d="M618.68,324.89a.22.22,0,0,0,0-.44.22.22,0,0,0,0,.44Z" transform="translate(-267.35 39.11)"/><path class="cls-14" d="M622.39,319.93a.22.22,0,0,0,0-.43.22.22,0,0,0,0,.43Z" transform="translate(-267.35 39.11)"/><path class="cls-14" d="M623.83,323.67a.22.22,0,0,0,0-.43.22.22,0,0,0,0,.43Z" transform="translate(-267.35 39.11)"/><path class="cls-14" d="M628.91,321.62a.22.22,0,0,0,0-.43.22.22,0,0,0,0,.43Z" transform="translate(-267.35 39.11)"/><path class="cls-14" d="M621.81,328.3a.22.22,0,0,0,0-.43c-.28,0-.28.42,0,.43Z" transform="translate(-267.35 39.11)"/><path class="cls-14" d="M619.24,331.58a.22.22,0,0,0,0-.43.22.22,0,0,0,0,.43Z" transform="translate(-267.35 39.11)"/><path class="cls-14" d="M620.39,336a.22.22,0,0,0,0-.43.22.22,0,0,0,0,.43Z" transform="translate(-267.35 39.11)"/><path class="cls-14" d="M627.54,325.54a.22.22,0,0,0,0-.43.22.22,0,0,0,0,.43Z" transform="translate(-267.35 39.11)"/><path class="cls-14" d="M631,329.38h.07a.22.22,0,0,0,0-.43H631a.22.22,0,0,0,0,.43Z" transform="translate(-267.35 39.11)"/><path class="cls-14" d="M626.21,330.88a.22.22,0,0,0,0-.43.22.22,0,0,0,0,.43Z" transform="translate(-267.35 39.11)"/><path class="cls-14" d="M625.3,337.41a.22.22,0,0,0,0-.43.22.22,0,0,0,0,.43Z" transform="translate(-267.35 39.11)"/><path class="cls-14" d="M619.62,341.78a.22.22,0,0,0,0-.43.22.22,0,0,0,0,.43Z" transform="translate(-267.35 39.11)"/><path class="cls-14" d="M624.65,345.15a.22.22,0,0,0,0-.44.22.22,0,0,0,0,.44Z" transform="translate(-267.35 39.11)"/><path class="cls-14" d="M630.67,335.36a.22.22,0,0,0,0-.43.22.22,0,0,0,0,.43Z" transform="translate(-267.35 39.11)"/><path class="cls-14" d="M630.23,343.52h.07a.22.22,0,0,0,0-.43h-.07a.22.22,0,0,0,0,.44Z" transform="translate(-267.35 39.11)"/><path class="cls-14" d="M619.64,347.27a.22.22,0,0,0,0-.43.22.22,0,0,0,0,.43Z" transform="translate(-267.35 39.11)"/><path class="cls-14" d="M621.34,352.22a.22.22,0,0,0,0-.43.22.22,0,0,0,0,.43Z" transform="translate(-267.35 39.11)"/><path class="cls-14" d="M628.54,350a.22.22,0,0,0,0-.43.22.22,0,0,0,0,.43Z" transform="translate(-267.35 39.11)"/><path class="cls-14" d="M626.44,356.14a.22.22,0,0,0,0-.43.22.22,0,0,0,0,.43Z" transform="translate(-267.35 39.11)"/><path class="cls-14" d="M619.59,358.11a.22.22,0,0,0,0-.43.22.22,0,0,0,0,.43Z" transform="translate(-267.35 39.11)"/><path class="cls-14" d="M618.61,364.86a.22.22,0,0,0,0-.43c-.28,0-.28.42,0,.43Z" transform="translate(-267.35 39.11)"/><path class="cls-14" d="M625.05,362.16l-.07-.07c-.19-.2-.5.11-.31.3l.07.08a.22.22,0,0,0,.31-.31Z" transform="translate(-267.35 39.11)"/><path class="cls-14" d="M617.32,353.37h.07a.22.22,0,0,0,0-.43h-.07a.22.22,0,0,0,0,.43Z" transform="translate(-267.35 39.11)"/><path class="cls-14" d="M635.56,325.77a.22.22,0,0,0,0-.43c-.28,0-.28.42,0,.43Z" transform="translate(-267.35 39.11)"/><path class="cls-14" d="M635.83,332.74h.07a.22.22,0,0,0,0-.43h-.07a.22.22,0,0,0,0,.43Z" transform="translate(-267.35 39.11)"/><path class="cls-14" d="M640.7,331.66a.22.22,0,0,0,0-.43.22.22,0,0,0,0,.43Z" transform="translate(-267.35 39.11)"/><path class="cls-14" d="M635.92,338a.22.22,0,0,0,0-.43.22.22,0,0,0,0,.43Z" transform="translate(-267.35 39.11)"/><path class="cls-14" d="M641,335.47a.22.22,0,0,0,0-.43.22.22,0,0,0,0,.43Z" transform="translate(-267.35 39.11)"/><g class="cls-22"><path class="cls-23" d="M629.69,355.49a8.23,8.23,0,0,0-.79,1.94,11.23,11.23,0,0,1-3.6,5.07c-3.4,2.72-8.12,3.25-12.43,2.63-1-.15-2-.35-3-.45-2.45-.25-5.09.05-7.2-1.2a8.66,8.66,0,0,1-3.44-5.07,55.38,55.38,0,0,0-1.77-6,21.86,21.86,0,0,0-2.78-4.31v0a71.26,71.26,0,0,1,3.5,16A2.66,2.66,0,0,0,599,366a2.72,2.72,0,0,0,1.35.39,107.22,107.22,0,0,0,27.31-.94c-.09-3.69,1.26-7.2,2.69-10.64A2.47,2.47,0,0,0,629.69,355.49Z" transform="translate(-267.35 39.11)"/></g><path class="cls-12" d="M767.33,297.83a32.34,32.34,0,0,1-4.28,11.05,16,16,0,0,1-3.68,4.34c3.57,3.44,8.23,5.47,12.78,7.44l2.82,1.21a18.47,18.47,0,0,1,2.73-16" transform="translate(-267.35 39.11)"/><path class="cls-13" d="M776.16,308.29a6.7,6.7,0,0,1-2.48.19c-3-.34-5.42-2.66-7.42-5a1.78,1.78,0,0,1-.52-1.05,1.94,1.94,0,0,1,.3-.83l2.89-5c.06-.1.16-.22.27-.18a.19.19,0,0,1,.1.1c2.47,3.63,4.07,8.14,7.66,10.55" transform="translate(-267.35 39.11)"/><path class="cls-12" d="M789.33,282a15.63,15.63,0,0,1-.22,6.53,10.58,10.58,0,0,0-.45,2.28c0,1.9,1.32,3.58,2.89,4.64a1,1,0,0,1,.46.47c.23.63-.71.93-1.31,1.23-1,.52-1.34,1.84-1.61,3a50,50,0,0,1-2.57,7.48c-.3.75-.69,1.59-1.46,1.84a2.76,2.76,0,0,1-1.28,0c-3-.43-6.08-.91-8.53-2.66a21.66,21.66,0,0,1-7.46-9.77c-1-3-.44-6.2-.67-9.39a12.68,12.68,0,0,1,2.45-9" transform="translate(-267.35 39.11)"/><path class="cls-13" d="M788.94,300.7a6.89,6.89,0,0,1-4.85-.8,4.22,4.22,0,0,0,.77,1.22l.9.84a2.32,2.32,0,0,0,1,.55,2.51,2.51,0,0,0,1.58.11" transform="translate(-267.35 39.11)"/><path class="cls-13" d="M771,291.63a5,5,0,0,0,6.76-1.37c.51-.8.86-1.82,1.74-2.16a3.53,3.53,0,0,1,1.41-.11,12.22,12.22,0,0,0,5.87-1.31,3.9,3.9,0,0,0,2-1.8,3.15,3.15,0,0,0-.43-2.87,9.09,9.09,0,0,0-2.16-2.08" transform="translate(-267.35 39.11)"/><path class="cls-17" d="M785.64,290.12a.19.19,0,0,0-.21-.15.24.24,0,0,0-.44.1c-.06.46-.12.92-.19,1.37,0,.21.27.31.4.17A1.46,1.46,0,0,0,785.64,290.12Z" transform="translate(-267.35 39.11)"/><circle class="cls-13" cx="512.44" cy="335.28" r="2.13"/><path class="cls-24" d="M788,287.2a7.84,7.84,0,0,0-4.78.58c-.25.14-.05.55.21.4a7.43,7.43,0,0,1,4.54-.53.23.23,0,0,0,0-.45Z" transform="translate(-267.35 39.11)"/><path class="cls-25" d="M764,303.34c2.53,0,4.17-1.76,5.49-3.92,1.52-2.46,1.13-5.33.36-7.74a4.85,4.85,0,0,0,4.41-.56,6.48,6.48,0,0,0,2.56-3.72,1.24,1.24,0,0,1,.45-.8,1.18,1.18,0,0,1,.88,0,17.07,17.07,0,0,0,13.89-1.47,12,12,0,0,0,4.36-4.16,7.63,7.63,0,0,0,.86-5.87,6.32,6.32,0,0,0-9.11-3.75c1-2.3-.07-5.11-2-6.7a11,11,0,0,0-7-2.18,14.36,14.36,0,0,0-8.22,2.26A9.44,9.44,0,0,0,766.7,272a10.31,10.31,0,0,0-14.35,9.36,8.28,8.28,0,0,0,.63,3.37c1.14,2.61,3.77,4.21,6.24,5.63-.6,2.61-1.21,5.32-.62,7.93s2.74,5.07,5.41,5.08" transform="translate(-267.35 39.11)"/><path class="cls-24" d="M797.33,275.27a6.39,6.39,0,0,0-.27-.73,7.06,7.06,0,0,1-1.35,5,10.13,10.13,0,0,1-3.89,2.94,18.65,18.65,0,0,1-9.82,1.66c-1.94-.2-4.08-.67-5.7.42s-2.18,3.34-3.95,4c-1,.39-2.17.18-3.1.7-1.39.77-1.52,2.71-2.45,4a1.83,1.83,0,0,1-1.52.89c-.77,0-1.31-.8-1.53-1.54-.53-1.83.12-4-1.06-5.53-.77-1-2.1-1.32-3.26-1.83a7.5,7.5,0,0,1-3.34-2.73,7.37,7.37,0,0,1-.59-6.3,10.31,10.31,0,0,1,2.37-3.76c-.26.14-.53.28-.78.44a10.48,10.48,0,0,0-4.68,8.51,8.28,8.28,0,0,0,.63,3.37c1.14,2.61,3.77,4.2,6.24,5.63-.61,2.6-1.21,5.32-.62,7.93s2.74,5.07,5.41,5.08,4.17-1.76,5.49-3.92c1.52-2.46,1.13-5.33.36-7.75a4.85,4.85,0,0,0,4.41-.55,6.48,6.48,0,0,0,2.56-3.73,1.16,1.16,0,0,1,.45-.79,1.18,1.18,0,0,1,.88,0,17.11,17.11,0,0,0,13.89-1.47,12,12,0,0,0,4.36-4.17A7.6,7.6,0,0,0,797.33,275.27Z" transform="translate(-267.35 39.11)"/><path class="cls-24" d="M771.58,274.46a1.31,1.31,0,0,0,.63.78,9.12,9.12,0,0,0,7.87.69,26.06,26.06,0,0,0,7-4.09,2.67,2.67,0,0,1-.4,2.7,7.65,7.65,0,0,1-2.2,1.83A22.94,22.94,0,0,1,780,278.8a7.84,7.84,0,0,1-5,.3c-1.63-.5-3.13-3-3.44-4.64" transform="translate(-267.35 39.11)"/><path class="cls-24" d="M767.38,275.64c.64,1.32.13,3.19-.26,4.61s-1.63,2.63-2.26,4.05a.45.45,0,0,0,0,.46.43.43,0,0,0,.29.15,3.62,3.62,0,0,0,2.5-.36,4.51,4.51,0,0,0,2-4.4,8,8,0,0,0-2.29-4.51" transform="translate(-267.35 39.11)"/><path class="cls-24" d="M758.08,276a7.12,7.12,0,0,1-1,1.61c0,.06,0,.15.09.09a7.56,7.56,0,0,0,1.05-1.63c0-.07-.07-.14-.11-.07Z" transform="translate(-267.35 39.11)"/><path class="cls-24" d="M759.48,277l-.37.8c0,.08.07.14.11.07l.37-.8c0-.08-.08-.14-.11-.07Z" transform="translate(-267.35 39.11)"/><path class="cls-24" d="M756.09,280.88a5.1,5.1,0,0,0-.16,1.4c0,.09.13.09.13,0a5.24,5.24,0,0,1,.15-1.37c0-.08-.1-.11-.12,0Z" transform="translate(-267.35 39.11)"/><path class="cls-24" d="M758.24,283a4.93,4.93,0,0,0-.12,1.53c0,.08.13.08.12,0a5.33,5.33,0,0,1,.12-1.49c0-.08-.1-.11-.12,0Z" transform="translate(-267.35 39.11)"/><path class="cls-24" d="M760.55,282.1l.13,1.62c0,.08.13.09.13,0l-.13-1.62c0-.08-.13-.08-.13,0Z" transform="translate(-267.35 39.11)"/><path class="cls-24" d="M763.12,279.24a6.4,6.4,0,0,1,1.1-2c0-.06,0-.15-.09-.09a6.47,6.47,0,0,0-1.13,2.08c0,.07.1.11.12,0Z" transform="translate(-267.35 39.11)"/><path class="cls-24" d="M761.8,275.1l1.29-1.14a.06.06,0,0,0-.09-.09L761.72,275c-.06.06,0,.15.08.09Z" transform="translate(-267.35 39.11)"/><path class="cls-24" d="M758.53,287l.93,1.38c0,.07.16,0,.11-.06l-.93-1.38c0-.07-.16,0-.11.06Z" transform="translate(-267.35 39.11)"/><path class="cls-24" d="M762.5,284.55a14.88,14.88,0,0,0,.13,1.76c0,.08.14,0,.13,0a14.06,14.06,0,0,1-.13-1.71c0-.09-.13-.09-.13,0Z" transform="translate(-267.35 39.11)"/><path class="cls-24" d="M761.38,292.9l.37,1.62c0,.08.13.05.12,0l-.36-1.62c0-.08-.14-.05-.13,0Z" transform="translate(-267.35 39.11)"/><path class="cls-24" d="M763.42,294.79l.46,1.16c0,.07.15,0,.12,0l-.46-1.17c0-.07-.15,0-.12,0Z" transform="translate(-267.35 39.11)"/><path class="cls-24" d="M768.16,273.15a2.09,2.09,0,0,1,.51-1.57c.05-.07,0-.16-.09-.09a2.32,2.32,0,0,0-.55,1.66c0,.08.13.08.13,0Z" transform="translate(-267.35 39.11)"/><path class="cls-24" d="M771.34,268.33a4,4,0,0,1,1-1.11c.06-.05,0-.14-.09-.09a4.29,4.29,0,0,0-1,1.13c0,.07.07.14.11.07Z" transform="translate(-267.35 39.11)"/><path class="cls-24" d="M775.79,265.51a4,4,0,0,1,1.37-.68.06.06,0,0,0,0-.12,4,4,0,0,0-1.42.71c-.07.05,0,.14.08.09Z" transform="translate(-267.35 39.11)"/><path class="cls-24" d="M779.37,264.91a20.27,20.27,0,0,1,2.18-.27c.08,0,.08-.14,0-.13a20.53,20.53,0,0,0-2.21.28c-.08,0-.05.13,0,.12Z" transform="translate(-267.35 39.11)"/><path class="cls-24" d="M773.87,272.69c-.55-.54,1.63-1.76,2-1.9.07,0,0-.15,0-.12-.45.18-2.75,1.41-2,2.11.06.05.15,0,.09-.09Z" transform="translate(-267.35 39.11)"/><path class="cls-24" d="M778.85,269.47l2.45-.35c.08,0,.05-.14,0-.13l-2.45.36c-.08,0-.05.14,0,.12Z" transform="translate(-267.35 39.11)"/><path class="cls-24" d="M782.34,267.35a7.11,7.11,0,0,1,1.84.09c.08,0,.11-.11,0-.12a7.32,7.32,0,0,0-1.87-.1.07.07,0,0,0,0,.13Z" transform="translate(-267.35 39.11)"/><path class="cls-24" d="M778.87,266.91a4.57,4.57,0,0,1,1.38-.05c.08,0,.09-.12,0-.13a4.77,4.77,0,0,0-1.41.06.06.06,0,1,0,0,.12Z" transform="translate(-267.35 39.11)"/><path class="cls-24" d="M779.14,271.93a4.76,4.76,0,0,0,1.41.13c.08,0,.08-.13,0-.12a4.87,4.87,0,0,1-1.37-.13c-.08,0-.12.1,0,.12Z" transform="translate(-267.35 39.11)"/><path class="cls-24" d="M784.25,270.63l1.51.42a.07.07,0,0,0,0-.13l-1.52-.42c-.08,0-.11.1,0,.13Z" transform="translate(-267.35 39.11)"/><path class="cls-24" d="M785.63,266.8a2.07,2.07,0,0,0,.86.56c.08,0,.11-.09,0-.12a1.94,1.94,0,0,1-.81-.53.06.06,0,1,0-.09.09Z" transform="translate(-267.35 39.11)"/><path class="cls-24" d="M773.16,269.21h.7c.08,0,.08-.12,0-.12h-.69c-.09,0-.09.13,0,.13Z" transform="translate(-267.35 39.11)"/><path class="cls-24" d="M775.8,273.63l.81-.22c.08,0,0-.15,0-.12l-.82.22c-.07,0,0,.14,0,.12Z" transform="translate(-267.35 39.11)"/><path class="cls-24" d="M790.13,273a1.07,1.07,0,0,1,.63.9c0,.08.13.08.12,0a1.13,1.13,0,0,0-.69-1c-.07,0-.14.07-.06.1Z" transform="translate(-267.35 39.11)"/><path class="cls-24" d="M792.65,273.06a20.82,20.82,0,0,1-.17,2.08c0,.08.11.08.12,0a16.06,16.06,0,0,0,.17-2.08.06.06,0,0,0-.12,0Z" transform="translate(-267.35 39.11)"/><path class="cls-24" d="M794.36,274v1.74a.06.06,0,0,0,.12,0l0-1.74c0-.08-.12-.08-.13,0Z" transform="translate(-267.35 39.11)"/><path class="cls-24" d="M789.94,276.84l-.46,1.27c0,.08.09.11.12,0l.46-1.27c0-.08-.09-.11-.12,0Z" transform="translate(-267.35 39.11)"/><path class="cls-24" d="M791.57,278.32a3.1,3.1,0,0,0-1,.79c-.05.06,0,.16.09.09a3,3,0,0,1,.95-.77c.07,0,0-.14-.07-.11Z" transform="translate(-267.35 39.11)"/><path class="cls-24" d="M793,279.06a4.34,4.34,0,0,1-.78,1.37c0,.07,0,.16.09.09a4.92,4.92,0,0,0,.82-1.42c0-.08-.1-.11-.13,0Z" transform="translate(-267.35 39.11)"/><path class="cls-24" d="M784.76,280.08l.93-.32c.08,0,0-.15,0-.12l-.93.32c-.08,0-.05.15,0,.12Z" transform="translate(-267.35 39.11)"/><path class="cls-24" d="M785.25,277.54l1-.2c.08,0,.05-.14,0-.13l-1,.21a.06.06,0,1,0,0,.12Z" transform="translate(-267.35 39.11)"/><path class="cls-24" d="M780.05,281.46a1.24,1.24,0,0,0,1.1.21c.08,0,.05-.15,0-.13a1.21,1.21,0,0,1-1-.19c-.06-.05-.13.06-.06.11Z" transform="translate(-267.35 39.11)"/><path class="cls-24" d="M786.24,281.51a10.48,10.48,0,0,0,1.76-.32c.08,0,0-.15,0-.12a10.12,10.12,0,0,1-1.73.31c-.08,0-.08.13,0,.13Z" transform="translate(-267.35 39.11)"/><path class="cls-24" d="M782.86,283.8l1.62-.12c.08,0,.08-.14,0-.13l-1.62.12c-.08,0-.08.14,0,.13Z" transform="translate(-267.35 39.11)"/><path class="cls-24" d="M789.28,282l.7-.34c.07,0,0-.15-.07-.11l-.69.34c-.08,0,0,.14.06.11Z" transform="translate(-267.35 39.11)"/><path class="cls-24" d="M775.34,282.37a8.09,8.09,0,0,1,2-.79c.08,0,0-.15,0-.13a8.2,8.2,0,0,0-2,.81c-.07,0,0,.15.06.11Z" transform="translate(-267.35 39.11)"/><path class="cls-24" d="M770.23,286.29a1.37,1.37,0,0,1,.92-.53c.08,0,.05-.14,0-.12a1.43,1.43,0,0,0-1,.56c0,.06,0,.15.09.09Z" transform="translate(-267.35 39.11)"/><path class="cls-24" d="M773.35,286.09l.82-.45c.07,0,0-.15-.06-.11l-.82.45c-.07,0,0,.14.06.11Z" transform="translate(-267.35 39.11)"/><path class="cls-24" d="M778,283.5l.46-.11c.08,0,0-.14,0-.13l-.46.12a.06.06,0,1,0,0,.12Z" transform="translate(-267.35 39.11)"/><path class="cls-24" d="M770,289.41a1.83,1.83,0,0,1,.9-.65c.07,0,0-.15,0-.13a2.13,2.13,0,0,0-1,.72c0,.06.06.13.11.06Z" transform="translate(-267.35 39.11)"/><path class="cls-12" d="M772.77,293.5a3.48,3.48,0,0,0-3.38-3.76,2.14,2.14,0,0,0-1.12.24,2.6,2.6,0,0,0-1,2.61,6.36,6.36,0,0,0,4.5,5.29" transform="translate(-267.35 39.11)"/><path class="cls-13" d="M772.27,291.83a2,2,0,0,0-2.16-1.07,1.84,1.84,0,0,0-1.39,1.78,3.42,3.42,0,0,0,.41,1.42c.36.74.92,1.55,1.74,1.59a1.72,1.72,0,0,0,1.6-1.42,5,5,0,0,0-.2-2.3" transform="translate(-267.35 39.11)"/><path class="cls-12" d="M698.82,392.58c-1.5,1.5-3.1,3.25-3.07,5.37,0,.78.24,1.53.28,2.31a4.84,4.84,0,0,1-2.18,4.28c-.4.26-1,.41-1.28,0a1.21,1.21,0,0,1,0-.92,3.26,3.26,0,0,0-.26-2,.85.85,0,0,0-.28-.37c-.32-.22-.78,0-1,.31s-.37.7-.63,1a4.91,4.91,0,0,1-.92.71c-.93.7-.73,1.54-1.11,2.64-.82.48-2-.39-2.2-1.12a1.46,1.46,0,0,1-2.49-1.31,1,1,0,0,1-1,.31.6.6,0,0,1-.34-.88c-.7.14-1.11-.81-1-1.52a5.87,5.87,0,0,1,1.32-2.56,40.6,40.6,0,0,1,7.5-7.49,13.48,13.48,0,0,0,3.89-3.74" transform="translate(-267.35 39.11)"/><path class="cls-26" d="M722.42,519.73a23.8,23.8,0,0,1-3.46,4.68,27.86,27.86,0,0,0-5.23,10.14,2.85,2.85,0,0,0-.11,1.5c.25.88,1.2,1.32,2,1.65l10.73,4.17,1.72.67c1.6.62,3.2,1.25,4.82,1.85s3,1.09,4.56,1.54a21.74,21.74,0,0,0,8.87.93,1.11,1.11,0,0,0,.64-.23,1.05,1.05,0,0,0,.22-.74A7.85,7.85,0,0,0,745.4,541a23.65,23.65,0,0,0-3.85-3.63l-6.42-5.2a12.72,12.72,0,0,1-2.86-2.86,4.35,4.35,0,0,1-.6-3.86" transform="translate(-267.35 39.11)"/><path class="cls-27" d="M731.3,527.53c-1,.84-2.08,1.65-3.18,2.41-.2.14,0,.47.19.33,1.12-.78,2.21-1.6,3.26-2.47.19-.16-.08-.43-.27-.27Z" transform="translate(-267.35 39.11)"/><path class="cls-27" d="M732.89,530.1a16.51,16.51,0,0,0-3.32,3.46c-.14.2.19.4.33.2a16.13,16.13,0,0,1,3.26-3.39c.19-.15-.08-.42-.27-.27Z" transform="translate(-267.35 39.11)"/><path class="cls-27" d="M735.13,532.52a12.56,12.56,0,0,0-2,2.92c-.11.22.22.41.33.19a12.11,12.11,0,0,1,2-2.83c.17-.18-.1-.46-.27-.28Z" transform="translate(-267.35 39.11)"/><path class="cls-27" d="M737.39,534.2a9.19,9.19,0,0,0-1.44,2.6c-.09.23.28.34.37.1a9.11,9.11,0,0,1,1.4-2.51c.15-.19-.18-.39-.33-.19Z" transform="translate(-267.35 39.11)"/><path class="cls-27" d="M746.07,541.89a2.37,2.37,0,0,1-.42,1.31,4,4,0,0,1-1.91,1.27,8,8,0,0,1-4.8.17,25.37,25.37,0,0,1-5.43-2.79c-4.5-2.51-9.69-3.36-14.45-5.3a4.58,4.58,0,0,1-2.59-1.95,4.15,4.15,0,0,1-.28-2.24,11.65,11.65,0,0,1,2.28-6c.7-.94,1.54-1.76,2.2-2.71a5.34,5.34,0,0,0,1.05-2.85,41.28,41.28,0,0,1-2.76,3.45,27.82,27.82,0,0,0-5.23,10.15,2.85,2.85,0,0,0-.11,1.5c.25.88,1.2,1.32,2,1.65l10.73,4.17,1.72.67c1.6.62,3.21,1.24,4.82,1.84s3,1.1,4.56,1.54a21.92,21.92,0,0,0,8.87.94,1.12,1.12,0,0,0,.64-.24,1,1,0,0,0,.22-.73A7.22,7.22,0,0,0,746.07,541.89Z" transform="translate(-267.35 39.11)"/><path class="cls-26" d="M798.28,521.64a23.44,23.44,0,0,1-.64,5.63,26.92,26.92,0,0,0,.53,11.12,2.71,2.71,0,0,0,.63,1.32,2.94,2.94,0,0,0,2.54.39l11.1-1.7,1.78-.28c1.65-.25,3.31-.51,5-.79s3.09-.55,4.61-.92a21.41,21.41,0,0,0,7.94-3.54,1,1,0,0,0,.43-.51,1.09,1.09,0,0,0-.17-.73,7.72,7.72,0,0,0-3.92-3.21,22.66,22.66,0,0,0-5-1.19l-8-1.26a12.35,12.35,0,0,1-3.81-1c-1.18-.6-2.43-2.94-2.62-4.24" transform="translate(-267.35 39.11)"/><path class="cls-27" d="M809.59,523.88c-.46,1.22-1,2.42-1.52,3.59-.1.22.22.41.33.19.57-1.2,1.08-2.43,1.55-3.68.08-.22-.28-.32-.36-.1Z" transform="translate(-267.35 39.11)"/><path class="cls-27" d="M812.18,525.28a16.22,16.22,0,0,0-1.12,4.55c0,.24.36.24.38,0a16,16,0,0,1,1.1-4.45c.09-.22-.27-.32-.36-.1Z" transform="translate(-267.35 39.11)"/><path class="cls-27" d="M815.26,526.24a12.2,12.2,0,0,0-.31,3.46c0,.24.39.24.38,0a11.53,11.53,0,0,1,.29-3.36c0-.24-.31-.34-.36-.1Z" transform="translate(-267.35 39.11)"/><path class="cls-27" d="M818,526.55a9.11,9.11,0,0,0,0,2.9c0,.24.41.15.36-.09a8.77,8.77,0,0,1,0-2.8c0-.24-.34-.25-.38,0Z" transform="translate(-267.35 39.11)"/><path class="cls-27" d="M829.06,528.82a2.21,2.21,0,0,1,.28,1.31,3.76,3.76,0,0,1-1,2,7.83,7.83,0,0,1-4,2.49,25.08,25.08,0,0,1-6,.29c-5,.08-9.82,1.88-14.79,2.57a4.46,4.46,0,0,1-3.14-.39,4.19,4.19,0,0,1-1.33-1.76,11.51,11.51,0,0,1-1-6.14c.14-1.13.45-2.23.54-3.37a5.28,5.28,0,0,0-.49-2.91c-.09,1.43-.43,2.84-.66,4.26a27.09,27.09,0,0,0,.53,11.12,2.8,2.8,0,0,0,.64,1.33,3,3,0,0,0,2.54.39l11.1-1.71,1.77-.28c1.66-.25,3.32-.51,5-.79s3.09-.54,4.61-.92a21.28,21.28,0,0,0,8-3.53,1.06,1.06,0,0,0,.42-.52,1,1,0,0,0-.17-.72A7,7,0,0,0,829.06,528.82Z" transform="translate(-267.35 39.11)"/><path class="cls-17" d="M781,393.62c11.09,27.54,16.1,57.23,21,86.62l6.89,41.17-7.7,2.05c-1.51.4-3.2.79-4.57,0a6.46,6.46,0,0,1-2.17-2.63c-5.35-9.48-10.72-19-14.2-29.4-2.36-7-3.81-14.32-5.75-21.48a160.46,160.46,0,0,0-8.8-24.42" transform="translate(-267.35 39.11)"/><path class="cls-18" d="M748.52,393.13c-5,16.22-.42,33.64-.25,50.61a97.1,97.1,0,0,1-10.49,44.78c-5.57,10.94-13.28,21-16.36,32.87l8.81,4a7.63,7.63,0,0,0,2.35.77c2.06.21,3.88-1.24,5.41-2.63a121.43,121.43,0,0,0,27.93-38,75.5,75.5,0,0,0,4.15-10.63,110.79,110.79,0,0,0,3-15.25L779,419.78c.76-5.14,1.52-10.28,1.89-15.46.44-6.05.3-12.37-2.34-17.84" transform="translate(-267.35 39.11)"/><path class="cls-13" d="M688.23,405.8a1.25,1.25,0,0,0-.58-.86,9.08,9.08,0,0,1-.88-.6,1.77,1.77,0,0,1-.45-1.86.56.56,0,0,1,.18-.27.6.6,0,0,1,.4,0,4.35,4.35,0,0,1,1.1.38,1.48,1.48,0,0,1-.2-1.37c.2-.43.92-.58,1.16-.16a2.09,2.09,0,0,1-.09-.86.69.69,0,0,1,.55-.59c.38,0,.66.33.86.65l0-1.06a.51.51,0,0,1,.06-.27c.11-.15.34-.13.52-.07a3,3,0,0,1,1.42,1.54,2.08,2.08,0,0,1,.3,1,.73.73,0,0,1-.62.72,2.19,2.19,0,0,1,.2,1,.76.76,0,0,1-.61.69c-.26,0-.53-.14-.78-.06.27.35.54.84.27,1.18s-.72.23-1.1.12c0,.41.07.91-.27,1.15a1.1,1.1,0,0,1-.53.16c-.54,0-.7,0-.95-.48" transform="translate(-267.35 39.11)"/><path class="cls-13" d="M823.57,393.76a12.49,12.49,0,0,1,3.38,3l6.15,7a1.07,1.07,0,0,0,.62.43,1,1,0,0,0,.62-.16q3-1.45,5.85-3.12c.16-.09.34-.2.38-.38a.69.69,0,0,0-.12-.51,12.82,12.82,0,0,0-4.18-4c-3.48-2.42-7-4.74-10.65-7" transform="translate(-267.35 39.11)"/><path class="cls-28" d="M777.75,331.37a108.24,108.24,0,0,0,7.79,16.48c2.43,4.46,4.94,9,8.56,12.53a54.79,54.79,0,0,0,4.18,3.58q13.66,11,26.8,22.61a2,2,0,0,1,.59.73c.25.65-.21,1.34-.66,1.88-1.7,2.08-3.81,4.35-6.49,4.21a8.48,8.48,0,0,1-3.4-1.21,125.71,125.71,0,0,1-39.77-33.79c-.65-.84-1.29-1.7-1.86-2.6a19.88,19.88,0,0,1-2.27-15.88" transform="translate(-267.35 39.11)"/><path class="cls-29" d="M819.41,393.36a17.81,17.81,0,0,0,4.36-4.08c.54-.7,1-1.44,1.59-2.11a.58.58,0,0,1,.36-.24.56.56,0,0,1,.4.19l1.89,1.65a2.08,2.08,0,0,1,.7.89,1.88,1.88,0,0,1-.24,1.34,16.78,16.78,0,0,1-1.94,3.23,3.15,3.15,0,0,1-2,1.45,3.27,3.27,0,0,1-1.85-.52,17.89,17.89,0,0,1-3.27-1.8" transform="translate(-267.35 39.11)"/><path class="cls-28" d="M823.74,390.84l1.74,1.18c.23.15.5-.16.28-.31L824,390.52c-.22-.15-.5.16-.27.32Z" transform="translate(-267.35 39.11)"/><path class="cls-28" d="M822,392.59l1.75,1.18c.22.15.5-.16.27-.31l-1.75-1.19c-.22-.15-.5.17-.27.32Z" transform="translate(-267.35 39.11)"/><path class="cls-28" d="M824.72,388.94l1.82.78c.25.11.44-.27.19-.37l-1.82-.79c-.25-.1-.44.27-.19.38Z" transform="translate(-267.35 39.11)"/><path class="cls-29" d="M761.87,310.6c2.5,4,6.89,6.36,11.43,7.72a2.82,2.82,0,0,1,1.4.7,2.59,2.59,0,0,1,.44,1l3.11,10.3a50.15,50.15,0,0,1,1.64,6.52,48.78,48.78,0,0,1,.43,6l.59,19.5c.31,10.4.62,20.81.71,31.22a1.43,1.43,0,0,1-.3,1.11,1.45,1.45,0,0,1-1,.27l-23.33.6c-2.59.06-5.27.11-7.64-.91a3.21,3.21,0,0,1-1.42-1c-.64-.92-.38-2.16-.3-3.28.21-3.21-1.35-6.24-2.21-9.34a40.16,40.16,0,0,1-1.11-8.95A148.92,148.92,0,0,1,744.4,357c.67-11.11,1-18.16,4.94-28.56.93-2.43,5.21-9,6.68-11.15a45.6,45.6,0,0,1,5.85-6.64" transform="translate(-267.35 39.11)"/><g class="cls-30"><path class="cls-28" d="M777.26,390.88l-8.45.94c-6,.66-12.24,1.32-18.08-.33a8.38,8.38,0,0,0-2.2-.46,3.21,3.21,0,0,0-.92.14,3.66,3.66,0,0,0,.37,2.5,3.16,3.16,0,0,0,1.41,1c2.38,1,5.06,1,7.64.91l23.34-.6a1.47,1.47,0,0,0,1-.26,1.49,1.49,0,0,0,.31-1.12c0-.91,0-1.82,0-2.73-.12,0-.24-.07-.37-.09A15.17,15.17,0,0,0,777.26,390.88Z" transform="translate(-267.35 39.11)"/></g><g class="cls-30"><path class="cls-31" d="M749.85,391.64a11.17,11.17,0,0,0,0,1.53c0,.17.29.17.27,0a9.75,9.75,0,0,1,0-1.53c0-.17-.27-.17-.28,0Z" transform="translate(-267.35 39.11)"/><path class="cls-31" d="M751.81,392.1a10.86,10.86,0,0,0,.13,1.51c0,.17.28.1.26-.07a11.49,11.49,0,0,1-.12-1.44.14.14,0,0,0-.27,0Z" transform="translate(-267.35 39.11)"/><path class="cls-31" d="M753.82,392.5a6.47,6.47,0,0,0,.15,1.24c0,.17.29.1.26-.07a6.56,6.56,0,0,1-.14-1.17.14.14,0,0,0-.27,0Z" transform="translate(-267.35 39.11)"/><path class="cls-31" d="M756.76,392.8a5.27,5.27,0,0,0,.1,1.19c0,.17.29.1.26-.07a5.2,5.2,0,0,1-.09-1.11c0-.18-.26-.18-.27,0Z" transform="translate(-267.35 39.11)"/><path class="cls-31" d="M760.18,393l.09.87c0,.17.29.18.27,0l-.09-.87c0-.17-.29-.18-.27,0Z" transform="translate(-267.35 39.11)"/><path class="cls-31" d="M762.49,392.65v1a.14.14,0,0,0,.27,0v-1a.14.14,0,1,0-.27,0Z" transform="translate(-267.35 39.11)"/><path class="cls-31" d="M764.52,392.54a12.48,12.48,0,0,1,.29,1.48c0,.17.29.1.26-.07a10.75,10.75,0,0,0-.29-1.48c0-.17-.3-.1-.26.07Z" transform="translate(-267.35 39.11)"/><path class="cls-31" d="M767,392.69a4.51,4.51,0,0,0,0,1c0,.17.28.1.26-.07a4.42,4.42,0,0,1,0-.89c0-.18-.26-.18-.27,0Z" transform="translate(-267.35 39.11)"/><path class="cls-31" d="M769.06,392.39a4.32,4.32,0,0,0,.13,1.29c0,.17.3.1.26-.07a4.18,4.18,0,0,1-.12-1.22c0-.18-.26-.18-.27,0Z" transform="translate(-267.35 39.11)"/><path class="cls-31" d="M771.38,392.23l.33,1.47a.13.13,0,1,0,.26-.07l-.33-1.47c0-.17-.3-.1-.26.07Z" transform="translate(-267.35 39.11)"/><path class="cls-31" d="M773.6,391.83a5.49,5.49,0,0,0,0,1.46c0,.17.28.1.26-.07a5.31,5.31,0,0,1,0-1.38c0-.18-.24-.18-.27,0Z" transform="translate(-267.35 39.11)"/><path class="cls-31" d="M775.58,392.13l.13,1.48c0,.17.29.17.27,0l-.13-1.48c0-.17-.29-.17-.27,0Z" transform="translate(-267.35 39.11)"/><path class="cls-31" d="M777.66,391.79a5.45,5.45,0,0,0,0,1.71c0,.17.3.1.27-.07a4.36,4.36,0,0,1,0-1.57c0-.17-.24-.24-.27-.07Z" transform="translate(-267.35 39.11)"/><path class="cls-31" d="M779.62,391.52l.08,1.42c0,.17.29.18.27,0l-.08-1.42c0-.17-.28-.18-.27,0Z" transform="translate(-267.35 39.11)"/></g><g class="cls-30"><path class="cls-28" d="M751.72,387.72c1,1.77,3,1,3.93.4a3.47,3.47,0,0,0,1.29-2.91c0-2.41-1.29-4.59-2.22-6.8-2.24-5.32-2.46-11.24-2.77-17-.05-1-.2-2.22-1.07-2.77a11.21,11.21,0,0,0-1.41,4,44.83,44.83,0,0,0,2.25,25.1" transform="translate(-267.35 39.11)"/></g><g class="cls-30"><path class="cls-28" d="M768.68,387.53c0,1.21,1.74,2.42,4.37,1.88a3.85,3.85,0,0,0,2.44-2.51,14.51,14.51,0,0,0,.94-4.85,46.67,46.67,0,0,0-.2-7.84c-.31-2.83-.88-5.66-.66-8.49.16-2,.7-3.94.57-5.91a2.53,2.53,0,0,0-.7-1.82A39.7,39.7,0,0,0,772,373.38c-.08,3.81.38,7.7-.67,11.37a1.85,1.85,0,0,1-.85,1.29c-.32.15-.7.11-1,.23a1.2,1.2,0,0,0-.74,1.26" transform="translate(-267.35 39.11)"/></g><path class="cls-28" d="M760.49,319c2.59-1,5.66.78,6.79,3.33s.7,5.53-.22,8.15a23.17,23.17,0,0,1-3.45,6.4c-2.58,3.37-6,6-9.27,8.71-12.42,10.51-22.34,23.79-35.11,33.89A92.68,92.68,0,0,1,703,389.78a2,2,0,0,1-1,.29,2.05,2.05,0,0,1-1-.48l-3.39-2.54a5.14,5.14,0,0,1-1.77-1.88c-.72-1.62.37-3.44,1.47-4.85a74.88,74.88,0,0,1,10.44-10.92c3.1-2.65,6.42-5,9.47-7.77a118.38,118.38,0,0,0,9.24-9.5l19.41-21.46a43.91,43.91,0,0,1,8.26-7.69c3.16-2.06,3.67-3.13,6.35-4" transform="translate(-267.35 39.11)"/><path class="cls-29" d="M695.69,383.37c-1.69.57-2.51,2-3.28,3.59a2.51,2.51,0,0,0-.27,1.77,3,3,0,0,0,1.18,1.37l2.52,1.95a9.09,9.09,0,0,0,2.8,1.67,1.81,1.81,0,0,0,1.39,0,2,2,0,0,0,.52-.45c1-1.07,2.06-2.41,1.77-3.86a4.88,4.88,0,0,0-2.14-2.62l-4.49-3.4" transform="translate(-267.35 39.11)"/><path class="cls-28" d="M693.84,388.82a4.06,4.06,0,0,1,2-1.62c.24-.09.14-.48-.11-.39a4.55,4.55,0,0,0-2.28,1.8c-.15.22.2.43.34.21Z" transform="translate(-267.35 39.11)"/><path class="cls-28" d="M696.2,390.27a10.53,10.53,0,0,1,2.41-2.7c.2-.16-.09-.45-.29-.29a10.76,10.76,0,0,0-2.47,2.78c-.14.22.21.43.35.21Z" transform="translate(-267.35 39.11)"/><path class="cls-28" d="M698.55,391.14a8.11,8.11,0,0,0,1-1.58c.12-.23-.23-.44-.35-.21a7.55,7.55,0,0,1-.94,1.5c-.16.2.12.5.29.29Z" transform="translate(-267.35 39.11)"/><g class="cls-30"><path class="cls-28" d="M767.88,330c1.34,1.42.84,3.77-.13,5.46a30.81,30.81,0,0,1-5.26,6.1A92,92,0,0,0,755,350a30,30,0,0,1-4.43,5,8.3,8.3,0,0,1-6.19,2.09c.95-5.3,1.33-10.69,2.39-16s2.87-10.54,6.31-14.68" transform="translate(-267.35 39.11)"/></g><path class="cls-12" d="M925.34,350.49l9.58,5.72c1.51.9,3,1.81,4.59,2.61a78.12,78.12,0,0,0,7.9,3.33c.66-2.62,1.55-6.32,2.18-8.94,2.1-8.71,2.56-11,1.53-16.2-.6-3,.61-4.08,3-5.95l2,3.62a4.06,4.06,0,0,1,.48,1.11c.14.62-.24,1.25-.18,1.89,1.06,12.48-.64,22.51-2.19,33.68a.73.73,0,0,1-.27.57,29.47,29.47,0,0,1-3.35-.34,137.09,137.09,0,0,1-18-6.77,46.25,46.25,0,0,1-12.57-8.15" transform="translate(-267.35 39.11)"/><path class="cls-12" d="M905.81,318.11a23.17,23.17,0,0,1-3.88,16.09,1.78,1.78,0,0,0-.35.7,1.59,1.59,0,0,0,.31,1,19.37,19.37,0,0,0,13.8,9,18.34,18.34,0,0,1,.47-16.44" transform="translate(-267.35 39.11)"/><path class="cls-12" d="M869.11,473.69c-3.54,9.43-4.47,19.62-6.77,29.43C861,508.9,858.87,515,854,518.39c-.34.24-.74.53-.77,1a1.38,1.38,0,0,0,.4.87,67.58,67.58,0,0,0,19.13,16.42c-2.82-5.87-5.71-12-5.4-18.56a35.76,35.76,0,0,1,2.2-9.65,170,170,0,0,1,15.15-32.67" transform="translate(-267.35 39.11)"/><path class="cls-18" d="M857.2,515.35a13.43,13.43,0,0,0-7,7.35,1.73,1.73,0,0,0-.19.94,1.84,1.84,0,0,0,.44.81c3,3.61,7,6.17,10.07,9.66a49.16,49.16,0,0,0,3.31,3.76,26.29,26.29,0,0,0,2.85,2.19l6.62,4.57c1.46,1,3.34,2,4.89,1.19a1,1,0,0,0,.58-.66,1.39,1.39,0,0,0-.14-.72,41.49,41.49,0,0,0-7.38-11.89,3.73,3.73,0,0,0-1.06-.92,4.7,4.7,0,0,0-1.1-.35c-6.81-1.61-10.75-9-11.94-15.93" transform="translate(-267.35 39.11)"/><path class="cls-17" d="M876.26,545.89c-1.78-.88-3-2.61-4.42-4-1.81-1.69-4.1-2.83-5.89-4.56a43,43,0,0,1-3.74-4.73,27,27,0,0,0-5.87-5.58,37.47,37.47,0,0,1-5-3.57,5.08,5.08,0,0,1-.91-1.19c-.06.14-.14.28-.2.43a1.37,1.37,0,0,0,.26,1.75c2.94,3.6,7,6.16,10.06,9.65,1.11,1.26,2.09,2.63,3.31,3.77a25.38,25.38,0,0,0,2.86,2.18l6.61,4.57a7.19,7.19,0,0,0,3.58,1.51A5.6,5.6,0,0,1,876.26,545.89Z" transform="translate(-267.35 39.11)"/><path class="cls-12" d="M895.38,376.07a14.21,14.21,0,0,1-.61,8,42.84,42.84,0,0,1-3.62,7.27l-3,5.13a8.32,8.32,0,0,0,3.73.95l21.56,2a1,1,0,0,0,.87-.2,1.1,1.1,0,0,0,.16-.47c.65-4.41.88-8.86,1.1-13.31l.56-11.07" transform="translate(-267.35 39.11)"/><path class="cls-32" d="M914.1,341.86c3.41.6,6.26,2.86,8.94,5l4.11,3.35c-.62.74-1.26,1.48-1.9,2.22L918.74,360a.85.85,0,0,1-.55.37.89.89,0,0,1-.47-.19L915,358.34" transform="translate(-267.35 39.11)"/><path class="cls-14" d="M902.14,333.89c1.72,2.9,4.79,4.27,7.83,5.73a14.41,14.41,0,0,0,2.75,1.08,3.78,3.78,0,0,1,1.48.51,3,3,0,0,1,.77,1.14l7.29,15.58a7.19,7.19,0,0,1,.6,1.6c.39,1.87-.71,3.68-1.66,5.34a43.25,43.25,0,0,0-5.31,15.6,82.75,82.75,0,0,1-19.7-.68,1,1,0,0,1-.52-.17,1.07,1.07,0,0,1-.3-.64,86.53,86.53,0,0,1-1.93-21.53,33.4,33.4,0,0,1,.8-6.77,36.78,36.78,0,0,1,1.47-4.45c.81-2.13.11-2.61,1-4.7a32.76,32.76,0,0,1,5.41-7.64" transform="translate(-267.35 39.11)"/><g class="cls-15"><path class="cls-32" d="M920.9,364.51a7.76,7.76,0,0,1-4.72.38c-1.63-.27-3.21-.75-4.86-.86a29.51,29.51,0,0,0-4,.13,32.34,32.34,0,0,1-4.4-.06c2.25,1,4.88,1.41,7.13,2.39,1.19.53,2.26,1.19,3.47,1.69a7,7,0,0,0,4,.52c1.7-.38,3-2.35,3.41-4.19" transform="translate(-267.35 39.11)"/></g><g class="cls-15"><path class="cls-32" d="M906.12,341.73c.91,1.3,1,3.95.6,5.49-.7,2.66-1.56,5.38-3.36,7.45a2.86,2.86,0,0,1-1.22.94,5.37,5.37,0,0,1-1.56.13c-2.49.07-5.38,2.35-7.19,4.06l-.2-3.1,11.53-14.1Z" transform="translate(-267.35 39.11)"/></g><path class="cls-12" d="M930,491.44c4.26,9.14,10.88,16.93,16.27,25.44,3.18,5,6,10.78,5.08,16.63a1.46,1.46,0,0,0,.14,1.22,1.32,1.32,0,0,0,.91.33,67.75,67.75,0,0,0,25.11-2.15c-6.16-2.1-12.6-4.37-17-9.15a35.42,35.42,0,0,1-5.34-8.33,169.74,169.74,0,0,1-12.72-33.69" transform="translate(-267.35 39.11)"/><path class="cls-18" d="M951.36,529.12a13.43,13.43,0,0,0,.39,10.11,1.73,1.73,0,0,0,.53.79,1.84,1.84,0,0,0,.9.25c4.63.42,9.29-.67,13.93-.42,1.67.08,3.34.34,5,.27a25.23,25.23,0,0,0,3.56-.51l7.89-1.52c1.74-.34,3.8-1,4.28-2.66a1,1,0,0,0-.07-.88,1.28,1.28,0,0,0-.61-.4,41.35,41.35,0,0,0-13.65-3.06,4.17,4.17,0,0,0-1.41.11,4.51,4.51,0,0,0-1,.55c-5.92,3.73-14,1.34-19.74-2.63" transform="translate(-267.35 39.11)"/><path class="cls-17" d="M986.51,536.9c-1.87.65-3.94.28-5.92.37-2.49.11-4.9,1-7.38,1a43.62,43.62,0,0,1-6-.64,26.79,26.79,0,0,0-8.09.29,37.53,37.53,0,0,1-6,1,5,5,0,0,1-1.49-.18c.06.14.11.29.17.44a1.73,1.73,0,0,0,.53.79,1.84,1.84,0,0,0,.9.25c4.63.42,9.29-.67,13.93-.42,1.67.08,3.34.35,5,.27a25.23,25.23,0,0,0,3.56-.51l7.89-1.52a7.13,7.13,0,0,0,3.58-1.5A6.67,6.67,0,0,1,986.51,536.9Z" transform="translate(-267.35 39.11)"/><path class="cls-12" d="M891.38,346.63a53.26,53.26,0,0,1-6.78,8.72c-4.14,4.61-8.34,9.24-13.36,12.88-3.26,2.36-6.82,4.27-10.17,6.51-2.75,1.84-5.35,3.89-8,5.94L842.63,389c-3.43,2.71-6.91,5.47-9.54,9a26,26,0,0,0-3,5.09,5,5,0,0,0-.55,3.05,1.94,1.94,0,0,0,2.33,1.54l.67,1c1.31.16.92-.69,1.38-1l1.06.93c1.33.11,1.24-.35,1.74-1.21a14.21,14.21,0,0,1,1.78-6.3c.28-.48.73-1,1.27-.88a1.28,1.28,0,0,1,.66.56c1.39,1.93.36,7.32,2,6.73,1.21-5.09,2.11-5.71,1.8-8.71-.14-1.3-.43-2.7.18-3.85a5.27,5.27,0,0,1,1.72-1.7c9-6.3,20.13-9.21,28.63-16.16a72.37,72.37,0,0,0,5.9-5.59L899.71,352" transform="translate(-267.35 39.11)"/><path class="cls-32" d="M890.33,347.16c2.13-2.28,4.68-5.6,7.29-7.31a6.7,6.7,0,0,1,3.08-1.29,6.4,6.4,0,0,1,3.35.68,4.28,4.28,0,0,1,2.14,2.81,7.64,7.64,0,0,1-.05,2,12,12,0,0,1-1.39,3.23,22,22,0,0,1-2.8,3.91l-3.3,4a.79.79,0,0,1-.34.29.87.87,0,0,1-.73-.25,30.27,30.27,0,0,1-7.25-8" transform="translate(-267.35 39.11)"/><path class="cls-21" d="M886.82,406.91a278,278,0,0,1-10.34,36.72c-.83,2.3-1.68,4.59-2.68,6.83-1.16,2.61-2.52,5.14-3.87,7.67L856.51,483.2a1.11,1.11,0,0,0,.57,1.55q17.86,7,35.87,13.72a1,1,0,0,0,1.29-.74c2.77-14.82,7.55-29.19,11.62-43.72,4.18-14.9,7.64-30.19,7.35-45.66" transform="translate(-267.35 39.11)"/><path class="cls-29" d="M886.68,406.87q-2.74,13.13-6.74,26c-1.34,4.3-2.77,8.57-4.34,12.79a99,99,0,0,1-5.66,12.18L860.21,476c-1.26,2.35-2.6,4.68-3.79,7.08a1.28,1.28,0,0,0,.58,1.81c.86.42,1.8.71,2.68,1.06l3.45,1.34q6.36,2.49,12.74,4.92t13,4.93l2.93,1.09c.65.24,1.45.73,2.1.25s.57-1.41.7-2c.23-1.18.47-2.36.73-3.53,1.89-8.78,4.39-17.41,6.92-26,5-17,10.14-34.12,11-51.89q.15-3.3.09-6.62c0-.18-.29-.19-.28,0,.31,17.58-4.16,34.74-9,51.5-2.43,8.35-5,16.68-7.11,25.12q-.83,3.22-1.55,6.47c-.22,1-.44,2-.64,3l-.33,1.63a12.69,12.69,0,0,1-.32,1.63c-.34,1-1.19.61-1.91.34l-1.6-.59-3.2-1.19-6.12-2.31q-6.39-2.42-12.76-4.88l-6.1-2.37-2.91-1.14c-1-.38-3.45-.86-2.87-2.28.25-.6.63-1.17.93-1.74l2.29-4.28L870,458.39c1.44-2.71,2.9-5.42,4.13-8.23,1.71-3.9,3.08-8,4.42-12q4.13-12.33,7.07-25c.49-2.06.94-4.14,1.38-6.21,0-.18-.24-.26-.28-.08Z" transform="translate(-267.35 39.11)"/><path class="cls-29" d="M888.82,421.57c-4.9,17.54-12.22,34.29-19.16,51.09l-6,14.49c-.18.43.51.62.69.2l10.57-25.57c3.45-8.35,6.87-16.73,9.88-25.26,1.72-4.87,3.31-9.78,4.7-14.75a.36.36,0,0,0-.69-.2Z" transform="translate(-267.35 39.11)"/><path class="cls-29" d="M871.71,490.27c2.19-3.51,3.37-7.54,4.75-11.41l4.41-12.39,8.83-24.78,5-14c.16-.44-.53-.63-.69-.2q-8.75,24.58-17.51,49.16L874,483.51a32.71,32.71,0,0,1-2.94,6.39c-.25.39.37.76.61.37Z" transform="translate(-267.35 39.11)"/><path class="cls-29" d="M880.25,493.47c6-15.63,12.87-30.92,17.77-46.94,1.39-4.53,2.61-9.11,3.59-13.74.1-.45-.59-.65-.68-.2C897.42,449,891,464.53,884.8,480c-1.78,4.4-3.55,8.81-5.24,13.25-.17.43.52.63.69.2Z" transform="translate(-267.35 39.11)"/><path class="cls-29" d="M887.7,496.26c5.09-14.7,10.6-29.3,14.27-44.44q1.54-6.31,2.72-12.73c.09-.45-.6-.65-.68-.2q-2.13,11.44-5.36,22.64c-2.16,7.43-4.74,14.73-7.28,22-1.46,4.17-2.92,8.33-4.36,12.51-.15.43.54.63.69.19Z" transform="translate(-267.35 39.11)"/><path class="cls-33" d="M885.92,410.49s-6.92,26.32.43,44.12,14.52,15.88,14.52,15.88l7.5-24.81" transform="translate(-267.35 39.11)"/><path class="cls-21" d="M915.28,392.86c-7,.75-13.87-1.16-20.59-3.3-.51-.16-1.48-.72-2-.63-.32.05-.57.7-.94,1.07-4.83,4.91-6.69,12.38-6.21,19.25s3.14,13.41,6.45,19.44c1.9,3.45,4,6.78,5.78,10.32,1.36,2.75,2.49,5.6,3.63,8.46,6.14,15.5,12.3,31.06,16.16,47.28a15.31,15.31,0,0,0,1,2.88c.19.23,1.54,0,2.16,0,12,.17,23.47-4.48,34.55-9.07.85-.35,1.84-.87,1.91-1.79a2.58,2.58,0,0,0-.55-1.5c-7.46-12-10.66-26.14-16.67-38.93-4.21-8.95-9.76-17.19-14.6-25.82s-9-17.85-10.09-27.68" transform="translate(-267.35 39.11)"/><path class="cls-29" d="M915.28,392.72A41.78,41.78,0,0,1,900.13,391c-2.24-.61-4.41-1.32-6.58-2.1-.65-.23-1-.24-1.45.33-.59.82-1.32,1.52-1.94,2.33-5.18,6.69-5.76,15.93-3.76,23.89a55.88,55.88,0,0,0,5.33,13c2.37,4.33,5,8.48,7,13,2.09,4.68,3.88,9.51,5.75,14.29s3.66,9.49,5.38,14.28,3.29,9.52,4.72,14.34c.73,2.46,1.42,4.93,2,7.41a35.06,35.06,0,0,0,1.59,5.51c.2.45.38.51.88.52.88,0,1.77-.08,2.65-.08a52,52,0,0,0,7.15-.6,78.43,78.43,0,0,0,14.14-3.69c2.36-.83,4.7-1.73,7-2.66l3.13-1.28a19.17,19.17,0,0,0,3-1.33,1.88,1.88,0,0,0,1-1.56,5.61,5.61,0,0,0-1.22-2.54c-1.2-2-2.29-4.1-3.3-6.22-4-8.47-6.77-17.48-10.33-26.16-3.67-9-8.69-17.19-13.63-25.51s-9.71-16.91-12.13-26.35a52.24,52.24,0,0,1-1.3-7c0-.18-.3-.18-.28,0,1,9.09,4.62,17.62,8.93,25.6,4.53,8.41,9.9,16.34,14.24,24.85,4.18,8.18,7,16.9,10.3,25.44A118.16,118.16,0,0,0,954,481c.51,1,1,1.92,1.59,2.86s1.87,2.39,1.27,3.45c-.5.87-1.79,1.21-2.66,1.57l-3.55,1.45c-8.88,3.58-18.14,6.86-27.81,7.17-1,0-2,0-3,.06-.27,0-.86.15-1.11,0s-.29-.51-.37-.72a55.82,55.82,0,0,1-1.65-6c-1.24-4.74-2.66-9.43-4.2-14.07-3.11-9.35-6.71-18.53-10.34-27.69A109.33,109.33,0,0,0,896.31,436c-2.29-4.13-4.81-8.13-6.76-12.44-3.64-8.08-5.43-17.32-2.34-25.88a21.86,21.86,0,0,1,2.8-5.38c.6-.83,1.32-1.54,2-2.33.33-.41.51-1,1.13-.84a7.91,7.91,0,0,1,1.25.49,56.07,56.07,0,0,0,6.88,2,51.38,51.38,0,0,0,6.85,1.3,33.24,33.24,0,0,0,7.19.08c.18,0,.19-.31,0-.29Z" transform="translate(-267.35 39.11)"/><path class="cls-29" d="M893.58,389.26c-3.45,6.18-3.15,13.56-1.45,20.23a111.08,111.08,0,0,0,3.56,10.81c1.3,3.54,2.67,7.06,4.08,10.57,5.7,14.16,12.06,28,17.86,42.16,3.27,8,6.36,16,9,24.2.14.44.83.26.69-.18-4.66-14.3-10.59-28.13-16.54-41.92-3-6.91-6-13.81-8.85-20.77s-5.7-14-8-21.14c-2.44-7.59-3.84-16.28.24-23.59.22-.41-.39-.78-.62-.37Z" transform="translate(-267.35 39.11)"/><path class="cls-29" d="M898.26,390.9c1,14.31,4.57,28.29,9.56,41.7s11.45,26.5,18.09,39.31c3.9,7.53,7.69,15.22,9.94,23.43a.36.36,0,0,0,.69-.19A111,111,0,0,0,928,474.4c-3.26-6.43-6.62-12.81-9.74-19.32-6.21-12.95-11.72-26.3-15.3-40.22a133.94,133.94,0,0,1-4-23.95c0-.46-.75-.47-.72,0Z" transform="translate(-267.35 39.11)"/><path class="cls-29" d="M905.5,392.7a107.76,107.76,0,0,0,4.6,20.21c2.1,6.66,4.45,13.24,6.87,19.78q7.31,19.77,16.09,38.95Q938,482.44,943.4,493c.21.41.83.05.62-.36q-9.51-18.68-17.63-38c-5.42-12.92-10.39-26-14.77-39.36a113.91,113.91,0,0,1-5.4-22.58c-.05-.46-.77-.47-.72,0Z" transform="translate(-267.35 39.11)"/><path class="cls-29" d="M910.49,393.29c1.21,6.31,3.59,12.24,6.1,18.12l8.3,19.44q8.26,19.39,16.55,38.78a194.56,194.56,0,0,0,9.8,20.31.36.36,0,0,0,.62-.35,181.76,181.76,0,0,1-8.78-18c-2.75-6.31-5.42-12.65-8.12-19q-8.3-19.45-16.59-38.89c-2.87-6.72-5.8-13.43-7.18-20.65-.09-.45-.78-.27-.7.18Z" transform="translate(-267.35 39.11)"/><path class="cls-33" d="M915.28,392.72s-9.58,13.52-3.95,26.75,5,28.87,17.49,31.91,11.15-5,11.15-5-8.56-16.08-13.53-23.95S915.13,397.16,915.28,392.72Z" transform="translate(-267.35 39.11)"/><path class="cls-18" d="M950.16,320.49a182.57,182.57,0,0,0,2.23,20.74,7.65,7.65,0,0,0,1,3.15,4.09,4.09,0,0,0,4.12,1.6,4.31,4.31,0,0,0,3.19-3.11c.54-2.15-.6-4.32-1.53-6.33A36.8,36.8,0,0,1,956.13,317" transform="translate(-267.35 39.11)"/><path class="cls-34" d="M981.73,293.29a61.75,61.75,0,0,1-29.94,17.21l-.1,13.48a56.73,56.73,0,0,1,33.39,4.64" transform="translate(-267.35 39.11)"/><g class="cls-35"><path class="cls-18" d="M951.72,319.72l0,4.26a56.73,56.73,0,0,1,33.39,4.64L983.79,315A92.35,92.35,0,0,0,951.72,319.72Z" transform="translate(-267.35 39.11)"/></g><ellipse class="cls-18" cx="983.94" cy="310.91" rx="4.49" ry="18.03" transform="translate(-292.28 133.28) rotate(-5.41)"/><ellipse class="cls-17" cx="982.58" cy="311.47" rx="3.03" ry="12.18" transform="translate(-292.34 133.15) rotate(-5.41)"/><path class="cls-18" d="M952.56,310.26c-1.84.24-3.68.56-5.5.95a4.85,4.85,0,0,0-2.7,1.21,5.07,5.07,0,0,0-.94,3.52,41.84,41.84,0,0,0,.66,7.41,3.52,3.52,0,0,0,.55,1.58,3.09,3.09,0,0,0,2.43.95,12.53,12.53,0,0,0,7.19-2.21" transform="translate(-267.35 39.11)"/><path class="cls-34" d="M979.18,306.4s5.14-2,7.34.59,1.84,10.64-6.42,9.54A100.3,100.3,0,0,1,979.18,306.4Z" transform="translate(-267.35 39.11)"/><path class="cls-36" d="M986.52,307c-.1-.11-.2-.2-.31-.3,0,2.95-1.67,6.27-6.58,6.05.24,2.11.47,3.79.47,3.79C988.36,317.63,988.72,309.56,986.52,307Z" transform="translate(-267.35 39.11)"/><path class="cls-12" d="M955.93,327.31a1.56,1.56,0,0,1,.55-.64.59.59,0,0,1,.77.12.82.82,0,0,1,.09.38,3.41,3.41,0,0,1-.36,1.63c.29-.19.67-.38,1-.19a.75.75,0,0,1,.18.85,2.51,2.51,0,0,0-.21.91c.26-.24.72,0,.82.36a1.59,1.59,0,0,1-.2,1,1.07,1.07,0,0,1,.83.15,1,1,0,0,1,.1,1,5.06,5.06,0,0,1-1.56,2.37,1.37,1.37,0,0,1-.74.37.55.55,0,0,1-.59-.46.85.85,0,0,1,.12-.38c.2-.37.42-.73.65-1.08a.7.7,0,0,1-.94.33,1,1,0,0,1-.51-.92,1.62,1.62,0,0,1,.45-1c-.23-.11-.47.13-.73.18s-.71-.37-.68-.76a1.88,1.88,0,0,1,.56-1,.89.89,0,0,1-1.18-.08,1.15,1.15,0,0,1-.21-1.22,1.79,1.79,0,0,1,.87-.93" transform="translate(-267.35 39.11)"/><path class="cls-13" d="M915.42,330.07a5.18,5.18,0,0,1-4.56-.3,7.44,7.44,0,0,1-4.34-4.6,16.65,16.65,0,0,1-.95-4.29c-.08-1.77-1-3.09-1.05-4.85,0-.22,0-.51.24-.56a.49.49,0,0,1,.33.07,4.26,4.26,0,0,1,1.49,1.34" transform="translate(-267.35 39.11)"/><path class="cls-17" d="M932.54,314.83c-.21,1.35-.87,3-2.37,3.34-2.22.48-3-2.2-2.89-3.87s1.08-3.36,2.83-3.32c2,0,2.52,2.27,2.42,3.88,0,.11.18.12.18,0,.1-1.61-.47-3.9-2.41-4.11s-3,1.92-3.22,3.53.51,3.9,2.4,4.11,3-1.92,3.23-3.51C932.73,314.77,932.55,314.72,932.54,314.83Z" transform="translate(-267.35 39.11)"/><path class="cls-12" d="M928,301.29c3.31,2.85,5.3,7.51,4.1,11.71a12.33,12.33,0,0,0-.51,1.87c-.28,2.16,1.32,4.12,3.1,5.38a.77.77,0,0,1,.26.28.51.51,0,0,1-.1.44c-.45.64-1.34.73-2.06,1a3.15,3.15,0,0,0-1.76,2.26,1.68,1.68,0,0,1-.34,1,1.3,1.3,0,0,1-.95.2,23.17,23.17,0,0,1-3.8-.53,9.78,9.78,0,0,0,2.72,3c.25.18.55.46.42.75a.72.72,0,0,1-.36.28,5.62,5.62,0,0,0-2.81,3.31,3,3,0,0,1-.79,1.62,2.3,2.3,0,0,1-2.12,0,31.69,31.69,0,0,1-4.6-2.07c-.93-.5-1.82-1.05-2.72-1.6l-3.5-2.16a13.46,13.46,0,0,1-1.73-1.17,16.9,16.9,0,0,1-3.33-3.43c-2.85-5-2.41-10.88-.44-16.31" transform="translate(-267.35 39.11)"/><path class="cls-17" d="M927.71,313.77l-.21,1.55c0,.24.3.35.46.2a1.69,1.69,0,0,0,.49-1.7c-.07-.33-.59-.2-.52.14l-.35,1.18.46.19.21-1.56c0-.33-.49-.34-.54,0Z" transform="translate(-267.35 39.11)"/><path class="cls-13" d="M912.84,312.87c1.32,1,1.53,2.82,2.36,4.23a1.81,1.81,0,0,0,.77.78,2.21,2.21,0,0,0,1.63-.12,34,34,0,0,0,6.53-2.8,13.62,13.62,0,0,0,5-4.93" transform="translate(-267.35 39.11)"/><path class="cls-13" d="M914.27,313.52a2.15,2.15,0,0,0-1.57-.55,1.8,1.8,0,0,0-1.4.85,2.2,2.2,0,0,0-.27.78,3.55,3.55,0,0,0,2,3.67,1.07,1.07,0,0,0,.53.13,1.09,1.09,0,0,0,.46-.15,3.09,3.09,0,0,0,1.26-1.17" transform="translate(-267.35 39.11)"/><circle class="cls-13" cx="654.45" cy="359.81" r="2.42"/><path class="cls-17" d="M930.68,311a7.43,7.43,0,0,0-4.54.55c-.23.14,0,.52.2.38a7.22,7.22,0,0,1,4.31-.51c.27,0,.3-.4,0-.42Z" transform="translate(-267.35 39.11)"/><path class="cls-17" d="M932.68,314.34a5.47,5.47,0,0,0-1.44-.18c0-1.58-.6-3.58-2.41-3.78s-3.05,1.93-3.22,3.53a2.09,2.09,0,0,0,0,.25l-10.14.52c-.11,0-.12.19,0,.19l10.13-.53c0,1.56.69,3.49,2.42,3.69,2,.22,3-1.92,3.23-3.51v0h0v-.19a6,6,0,0,1,1.4.17A.07.07,0,1,0,932.68,314.34Zm-4,3.47c-2.21.47-3.05-2.21-2.88-3.87s1.08-3.37,2.83-3.32,2.44,2,2.42,3.6h0v.26C930.85,315.82,930.19,317.48,928.69,317.81Z" transform="translate(-267.35 39.11)"/><path class="cls-18" d="M900.78,307.74c.44.88.82,2.06,0,2.89a4.23,4.23,0,0,1-2.51.75,4.6,4.6,0,0,0-3.37,1.93,2.88,2.88,0,0,0-.28,1.95,5.74,5.74,0,0,0,.34,1.14c.21.5.55,1,.32,1.56-.35.85-1.5,1.05-2.28,1.47a5.12,5.12,0,0,0-1.5,1.23,4.63,4.63,0,0,0-1,4.13c0,.12.24.07.21-.05a4.48,4.48,0,0,1,1.22-4.28,6.35,6.35,0,0,1,2.16-1.32c.63-.27,1.29-.66,1.43-1.32s-.42-1.44-.61-2.11a2.83,2.83,0,0,1,.37-2.64,4.22,4.22,0,0,1,2.18-1.32c.8-.22,1.65-.21,2.44-.43,1.88-.55,1.67-2.36,1-3.68-.06-.11-.25,0-.19.1Z" transform="translate(-267.35 39.11)"/><path class="cls-18" d="M913.79,294.6a5,5,0,0,1,4.7-2.64,4.91,4.91,0,0,1,2.62,1.16,3.83,3.83,0,0,0,2,1.05c1.45.06,2.23-1.57,2.76-2.79a4.06,4.06,0,0,1,2.06-2.5,7.21,7.21,0,0,1,2.88-.28c1.73.07,3.63.21,5.09-1.11.11-.1,0-.26-.13-.16-1.55,1.39-3.6,1.07-5.4,1a6.44,6.44,0,0,0-2.57.33,3.35,3.35,0,0,0-1.65,1.61c-.79,1.46-1.55,4.33-3.63,3.5-.89-.35-1.54-1.16-2.4-1.59a4.49,4.49,0,0,0-2.25-.49,5.35,5.35,0,0,0-4.3,2.77.11.11,0,1,0,.18.11Z" transform="translate(-267.35 39.11)"/><path class="cls-18" d="M906.32,324.32a8,8,0,0,0,5.27-3.8,1.24,1.24,0,0,0,.2-.64,1.44,1.44,0,0,0-.52-.8,5.49,5.49,0,0,1-1.51-3.84,2.68,2.68,0,0,1,.3-1.28,2.34,2.34,0,0,1,1.86-1.09,3.37,3.37,0,0,1,3.24,1.74,1.86,1.86,0,0,0,.43.63,1.34,1.34,0,0,0,.74.19,17.77,17.77,0,0,0,12.79-4.58,7,7,0,0,0,2.37-3.7,6.65,6.65,0,0,0-1-4.34,16.71,16.71,0,0,0-6.19-6.05,25.47,25.47,0,0,0-8.22-2.87,13.08,13.08,0,0,0-5.5,0,10,10,0,0,0-3.57,1.82c-4.08,3.14-6,8.5-5.92,13.65s2.67,10.56,5.26,15" transform="translate(-267.35 39.11)"/><path class="cls-17" d="M928.77,310.36a19.74,19.74,0,0,1-7,3.13,9.7,9.7,0,0,1-3.82.31c-1.52-.26-2.89-1.09-4.41-1.35a5,5,0,0,0-4,1,3.87,3.87,0,0,0-1.38,3.76,10.19,10.19,0,0,0,.85,2,1.42,1.42,0,0,1,.14,1.3,1,1,0,0,1-.41.39,3.08,3.08,0,0,1-3.25-.3,9.27,9.27,0,0,1-2.08-2.59c-.22-.3-.58-1-.81-1.27a50.29,50.29,0,0,0,3.66,7.66h0a7.91,7.91,0,0,0,5.27-3.79,1.15,1.15,0,0,0,.2-.64,1.42,1.42,0,0,0-.51-.8,5.44,5.44,0,0,1-1.51-3.84A2.63,2.63,0,0,1,910,314a2.36,2.36,0,0,1,1.86-1.08,3.4,3.4,0,0,1,3.25,1.74,1.79,1.79,0,0,0,.42.62,1.27,1.27,0,0,0,.74.2,17.74,17.74,0,0,0,12.79-4.58,8,8,0,0,0,2.08-2.78A15.37,15.37,0,0,1,928.77,310.36Z" transform="translate(-267.35 39.11)"/><g class="cls-37"><path class="cls-20" d="M904.75,310.17a10.79,10.79,0,0,1,3.66-6.81.07.07,0,0,0-.1-.11,11,11,0,0,0-3.71,6.92c0,.09.14.09.15,0Z" transform="translate(-267.35 39.11)"/><path class="cls-20" d="M908.93,308.16a5.07,5.07,0,0,1,2.22-2.49c.08-.05,0-.18-.07-.12a5.25,5.25,0,0,0-2.29,2.57.07.07,0,0,0,.14,0Z" transform="translate(-267.35 39.11)"/><path class="cls-20" d="M913.09,307a3.65,3.65,0,0,1,1.8-1.13c.09,0,.05-.17,0-.14a3.89,3.89,0,0,0-1.88,1.16c-.06.07,0,.18.11.11Z" transform="translate(-267.35 39.11)"/><path class="cls-20" d="M915.75,308.61a5.5,5.5,0,0,1,2.38-1.05c.09,0,0-.16,0-.14a5.73,5.73,0,0,0-2.44,1.09c-.07.05,0,.16.1.1Z" transform="translate(-267.35 39.11)"/><path class="cls-20" d="M920.38,306.32c1-.37,2-.78,2.91-1.24.09,0,0-.17-.07-.13a30.38,30.38,0,0,1-2.88,1.23c-.08,0-.05.17,0,.14Z" transform="translate(-267.35 39.11)"/><path class="cls-20" d="M921.63,309.26l2.58-1.68c.08-.05,0-.18-.07-.12l-2.59,1.68c-.07.05,0,.17.08.12Z" transform="translate(-267.35 39.11)"/><path class="cls-20" d="M926.29,307.84a8.17,8.17,0,0,1,1.89-1.82c.08,0,0-.18-.07-.13a8.65,8.65,0,0,0-2,1.87c0,.08.07.15.13.08Z" transform="translate(-267.35 39.11)"/><path class="cls-20" d="M922.08,299.29l-2,1.2a.07.07,0,1,0,.07.12l2-1.19c.07-.05,0-.18-.08-.13Z" transform="translate(-267.35 39.11)"/><path class="cls-20" d="M917.3,298a10.16,10.16,0,0,0-1.88,1.05.07.07,0,1,0,.07.12,9.57,9.57,0,0,1,1.88-1c.08,0,0-.16-.07-.13Z" transform="translate(-267.35 39.11)"/><path class="cls-20" d="M916.44,301.82a5.47,5.47,0,0,0-1.32.67c-.07.05,0,.18.08.12a5.44,5.44,0,0,1,1.27-.65c.09,0,0-.17,0-.14Z" transform="translate(-267.35 39.11)"/><path class="cls-20" d="M908.64,311.22a4,4,0,0,0-.94,2c0,.09.13.13.14,0a3.92,3.92,0,0,1,.9-2c.06-.07,0-.17-.1-.1Z" transform="translate(-267.35 39.11)"/><path class="cls-20" d="M904.85,314a3.19,3.19,0,0,0-.42,1.76.07.07,0,0,0,.14,0,3,3,0,0,1,.41-1.68c0-.08-.08-.16-.13-.08Z" transform="translate(-267.35 39.11)"/><path class="cls-20" d="M903.08,311.73a2,2,0,0,0-.16,1.16c0,.09.15.05.14,0a2,2,0,0,1,.15-1.08c0-.08-.1-.12-.13,0Z" transform="translate(-267.35 39.11)"/><path class="cls-20" d="M909.66,299.75a5.92,5.92,0,0,0-1.19,1,.07.07,0,0,0,.1.11,5.34,5.34,0,0,1,1.16-1c.08-.05,0-.18-.07-.13Z" transform="translate(-267.35 39.11)"/><path class="cls-20" d="M910.94,310.1c-.25-.34,1.32-.87,1.43-.9s0-.17,0-.14a6,6,0,0,0-1.64.82.08.08,0,0,0,0,.1l.14.19c.06.08.18,0,.13-.07Z" transform="translate(-267.35 39.11)"/><path class="cls-20" d="M916.21,311a1.38,1.38,0,0,1,1-.54c.09,0,.09-.16,0-.15a1.58,1.58,0,0,0-1.11.59c-.06.07,0,.17.1.1Z" transform="translate(-267.35 39.11)"/></g><path class="cls-18" d="M911.47,300.24a6.46,6.46,0,0,0,4.16-3.3,14.21,14.21,0,0,0,1.48-5.24,7.29,7.29,0,0,0-.59-4.76,5.39,5.39,0,0,0-4.14-2.26,16.17,16.17,0,0,0-4.83.56,11.43,11.43,0,0,0-3.77-9.31,10.43,10.43,0,0,0-6.13-2.87,7.37,7.37,0,0,0-6.18,2.42,5.7,5.7,0,0,0-.65,6.43,7,7,0,0,0-8.05,1.36,9.46,9.46,0,0,0-2.36,8.1,7.81,7.81,0,0,0,4,6,11.8,11.8,0,0,0,3.49.78,9.63,9.63,0,0,0,3.23,11.63,5.67,5.67,0,0,0,4.24,1.08c1.63-.34,2.86-1.63,4-2.85.76,1.81,3.36,2.15,5.06,1.19s2.73-2.77,3.66-4.5" transform="translate(-267.35 39.11)"/><path class="cls-17" d="M893.14,288.17c.93,1.09,3.23,1.73,4.66,1.77,2.33.06,4.67-1.29,6.41-2.85a6.94,6.94,0,0,1-2.78,3.46,7.77,7.77,0,0,1-3.32,1.44,4.26,4.26,0,0,1-3.41-.91,6.16,6.16,0,0,1-1.56-2.91" transform="translate(-267.35 39.11)"/><path class="cls-17" d="M904.82,305.73c-1,0-1.92-.52-2.91-.55-1.82-.05-3.22,1.41-4.92,2a6,6,0,0,1-5.18-.68,5.8,5.8,0,0,1-2.54-4.22c-.14-1.38.21-2.82-.25-4.15a.9.9,0,0,0-.28-.44,1.3,1.3,0,0,0-.71-.14,8.13,8.13,0,0,1-4-1.29,18,18,0,0,1-2.84-2.29,6.88,6.88,0,0,0,3.25,3.41,11.49,11.49,0,0,0,3.49.78,9.63,9.63,0,0,0,3.22,11.63,5.7,5.7,0,0,0,4.25,1.08c1.63-.34,2.86-1.62,4-2.85.76,1.81,3.36,2.15,5.06,1.19s2.73-2.77,3.66-4.5l.58-.77-.33.25A6,6,0,0,1,904.82,305.73Z" transform="translate(-267.35 39.11)"/><path class="cls-17" d="M916.5,286.94a5.42,5.42,0,0,0-4.14-2.26,16.17,16.17,0,0,0-4.83.56,11.41,11.41,0,0,0-3.77-9.31,10.43,10.43,0,0,0-6.14-2.87,7.38,7.38,0,0,0-6.18,2.42,5.76,5.76,0,0,0-.85,6,5.67,5.67,0,0,1,1.64-4.66,7.1,7.1,0,0,1,6.19-2.18,9.17,9.17,0,0,1,5.75,3.45,13.93,13.93,0,0,1,2.71,6.43,1.37,1.37,0,0,0,.33.85,1.07,1.07,0,0,0,.57.21c1,.18,2.1.2,3.12.48a6.53,6.53,0,0,1,4.44,4.06,8.71,8.71,0,0,1-.81,6.83c-.5.76-1.08,1.81-1.66,2.76a7,7,0,0,0,2.74-2.77,14.61,14.61,0,0,0,1.48-5.24A7.29,7.29,0,0,0,916.5,286.94Z" transform="translate(-267.35 39.11)"/><g class="cls-38"><path class="cls-20" d="M891.53,305.79a5,5,0,0,0,2.13,1.16.05.05,0,0,0,0-.1,4.68,4.68,0,0,1-2.08-1.14c-.05,0-.13,0-.08.08Z" transform="translate(-267.35 39.11)"/><path class="cls-20" d="M893.83,303.86c.29.8,1.65.92,2.36,1,.07,0,.07-.1,0-.11-.62-.07-2-.21-2.26-.91,0-.07-.12,0-.1,0Z" transform="translate(-267.35 39.11)"/><path class="cls-20" d="M896,306.48a4.8,4.8,0,0,0,2.33.46c.07,0,.07-.11,0-.11a4.61,4.61,0,0,1-2.28-.44c-.06,0-.11.06-.05.09Z" transform="translate(-267.35 39.11)"/><path class="cls-20" d="M899.4,303.88a4,4,0,0,0,1.89,1.34c.06,0,.09-.07,0-.1a3.85,3.85,0,0,1-1.84-1.31c0-.05-.12,0-.08.07Z" transform="translate(-267.35 39.11)"/><path class="cls-20" d="M898.2,300.54a4.73,4.73,0,0,0,1.49,1.36s.11,0,0-.09a4.58,4.58,0,0,1-1.45-1.32c0-.05-.13,0-.09.05Z" transform="translate(-267.35 39.11)"/><path class="cls-20" d="M891.94,299.06c-.15.62.78,1.27,1.21,1.58.06,0,.11-.05.06-.09-.36-.26-1.3-.93-1.17-1.46a.05.05,0,1,0-.1,0Z" transform="translate(-267.35 39.11)"/><path class="cls-20" d="M890,300.77a2.78,2.78,0,0,0,.84,1.45s.13,0,.08-.07a2.7,2.7,0,0,1-.82-1.41c0-.06-.11,0-.1,0Z" transform="translate(-267.35 39.11)"/><path class="cls-20" d="M883.35,289.8a.67.67,0,0,0-.13.62,7.69,7.69,0,0,0,.46,1.48c0,.06.13,0,.11,0-.18-.45-.73-1.57-.37-2,0-.06,0-.13-.07-.08Z" transform="translate(-267.35 39.11)"/><path class="cls-20" d="M885.31,290.23a7.93,7.93,0,0,0,.55,1.71c0,.06.12,0,.09-.06a8.14,8.14,0,0,1-.54-1.67c0-.07-.11,0-.1,0Z" transform="translate(-267.35 39.11)"/><path class="cls-20" d="M888.3,290a3.17,3.17,0,0,0,.63,1.72s.13,0,.09-.06a3,3,0,0,1-.62-1.66c0-.06-.11-.07-.1,0Z" transform="translate(-267.35 39.11)"/><path class="cls-20" d="M885.4,294.24a4.31,4.31,0,0,0,.93,1.15s.13,0,.08-.08a4,4,0,0,1-.92-1.12c0-.06-.12,0-.09.05Z" transform="translate(-267.35 39.11)"/><path class="cls-20" d="M889.21,294.65a4.9,4.9,0,0,0,.67.9.05.05,0,0,0,.08-.07,4.71,4.71,0,0,1-.66-.88c0-.06-.13,0-.09,0Z" transform="translate(-267.35 39.11)"/><path class="cls-20" d="M885.78,284.65a1.77,1.77,0,0,0,0,1.28.05.05,0,0,0,.1,0,1.71,1.71,0,0,1,0-1.22c0-.07-.07-.1-.1,0Z" transform="translate(-267.35 39.11)"/><path class="cls-20" d="M896.41,279.35a10.24,10.24,0,0,0,1.33,1.12s.11-.06,0-.09a9.86,9.86,0,0,1-1.31-1.11.05.05,0,0,0-.07.08Z" transform="translate(-267.35 39.11)"/><path class="cls-20" d="M898.74,276.18a2,2,0,0,0,.91.81c.06,0,.11-.06.05-.09a1.89,1.89,0,0,1-.87-.78c0-.05-.13,0-.09.06Z" transform="translate(-267.35 39.11)"/><path class="cls-20" d="M902.5,276.64l.84,1.2c0,.06.13,0,.09,0l-.84-1.2c0-.06-.13,0-.09.05Z" transform="translate(-267.35 39.11)"/><path class="cls-20" d="M899.89,280.13c.38.49.79,1,1.21,1.42,0,.05.12,0,.07-.08-.42-.45-.82-.92-1.21-1.41,0-.05-.11,0-.07.07Z" transform="translate(-267.35 39.11)"/><path class="cls-20" d="M903.5,280.94a5.07,5.07,0,0,0,.5,1.2c0,.06.12,0,.09-.05a5.47,5.47,0,0,1-.49-1.17c0-.07-.12,0-.1,0Z" transform="translate(-267.35 39.11)"/><path class="cls-20" d="M907.55,288.56l1.42,1.2c0,.05.13,0,.08-.07l-1.42-1.2c0-.05-.13,0-.08.07Z" transform="translate(-267.35 39.11)"/><path class="cls-20" d="M910.71,287a11.09,11.09,0,0,0,1.21,1.69s.12,0,.07-.07A11.51,11.51,0,0,1,910.8,287c0-.06-.12,0-.09.05Z" transform="translate(-267.35 39.11)"/><path class="cls-20" d="M914.3,287.35l.49,1.63c0,.07.12,0,.1,0l-.49-1.62c0-.07-.12,0-.1,0Z" transform="translate(-267.35 39.11)"/><path class="cls-20" d="M910.53,290.44a.74.74,0,0,0,0,.8,11.14,11.14,0,0,0,.64,1.46c0,.06.13,0,.1-.05-.15-.28-.29-.56-.41-.84s-.48-1-.21-1.29c0,0,0-.13-.07-.08Z" transform="translate(-267.35 39.11)"/><path class="cls-20" d="M914.08,291.65l-.09,1.87c0,.06.1.06.1,0l.09-1.87a.05.05,0,1,0-.1,0Z" transform="translate(-267.35 39.11)"/><path class="cls-20" d="M910.73,294.93a15,15,0,0,1,.58,2c0,.06.11,0,.1,0a15.87,15.87,0,0,0-.58-2,.05.05,0,0,0-.1,0Z" transform="translate(-267.35 39.11)"/><path class="cls-20" d="M902.3,302.24a3,3,0,0,0,1.13.53c.07,0,.1-.09,0-.11a2.77,2.77,0,0,1-1.1-.51c-.06,0-.11.05-.06.09Z" transform="translate(-267.35 39.11)"/><path class="cls-20" d="M893.91,297.7a3.48,3.48,0,0,0,1.14,1c.05,0,.11-.05.05-.09a3.44,3.44,0,0,1-1.1-1s-.13,0-.09.05Z" transform="translate(-267.35 39.11)"/></g><path class="cls-13" d="M836.43,406.78a3.19,3.19,0,0,1-1.71-2.63.86.86,0,0,1,.27-.74c.24-.19.71-.15.8.1a3.15,3.15,0,0,1-.23-2.69c.67-.94,1.25.47,1.71.88a2.48,2.48,0,0,1,.07-2.73,1.13,1.13,0,0,1,.24-.25c.4-.22.91.11,1.22.42l1.44,1.43a3,3,0,0,1,.71.89.88.88,0,0,1-.15,1,.86.86,0,0,1-1.12,0,1.52,1.52,0,0,1,.14,1.44,1.19,1.19,0,0,1-1.47.47c.39.77.59,1.24-.15,1.8s-.9,1-1.77.58" transform="translate(-267.35 39.11)"/><path class="cls-39" d="M845.58,562.4H694a4.83,4.83,0,0,1-4.83-4.83h0a4.83,4.83,0,0,1,4.83-4.83H845.58a4.83,4.83,0,0,1,4.83,4.83h0A4.83,4.83,0,0,1,845.58,562.4Z" transform="translate(-267.35 39.11)"/><path class="cls-39" d="M975.17,557.54H867.76a4.83,4.83,0,0,1-4.83-4.83h0a4.83,4.83,0,0,1,4.83-4.83H975.17a4.83,4.83,0,0,1,4.83,4.83h0A4.83,4.83,0,0,1,975.17,557.54Z" transform="translate(-267.35 39.11)"/><path class="cls-39" d="M675,557.54H567.61a4.83,4.83,0,0,1-4.83-4.83h0a4.83,4.83,0,0,1,4.83-4.83H675a4.83,4.83,0,0,1,4.83,4.83h0A4.83,4.83,0,0,1,675,557.54Z" transform="translate(-267.35 39.11)"/></g></svg>