<svg xmlns="http://www.w3.org/2000/svg" viewBox="0 0 467.47 432.47"><defs><style>.cls-1{fill:#d2ebfc;}.cls-2{fill:#14aa04;}.cls-3{fill:#a9ffbf;}.cls-4{fill:#f4b387;}.cls-41,.cls-5{fill:#112b46;}.cls-10,.cls-11,.cls-12,.cls-13,.cls-14,.cls-15,.cls-17,.cls-34,.cls-5,.cls-59,.cls-6,.cls-60,.cls-7,.cls-8,.cls-9{fill-rule:evenodd;}.cls-6{fill:#21496d;}.cls-46,.cls-7{fill:#495dea;}.cls-45,.cls-51,.cls-55,.cls-8{fill:#fff;}.cls-40,.cls-9{fill:#606bf1;}.cls-10{fill:#20318d;}.cls-11,.cls-50{fill:#ffc8af;}.cls-12,.cls-28{fill:#7181f4;}.cls-13{fill:#f4ae92;}.cls-14,.cls-27{fill:#ec827d;}.cls-15,.cls-35{fill:#fbd15b;}.cls-16{fill:#83c9ff;}.cls-17,.cls-18{fill:#56548c;}.cls-19{isolation:isolate;}.cls-20{fill:#a3d8ef;}.cls-21{fill:#cee9f4;}.cls-22{fill:#6cc6e5;}.cls-23{fill:#bee1f4;}.cls-24{fill:#d86868;}.cls-25{fill:#d34c4c;}.cls-26{fill:#f49898;}.cls-29{fill:#71f480;}.cls-30{fill:#35c94a;}.cls-31{fill:#4bea5e;}.cls-32{fill:#efbc3f;}.cls-33{fill:#ffdc85;}.cls-34{fill:#f2ad91;}.cls-36{fill:#a5b7c6;}.cls-37{fill:#b6c7d3;}.cls-38{fill:none;}.cls-39{fill:#878cf0;}.cls-42{fill:#ccd9e2;}.cls-43{fill:#eee;}.cls-44{fill:#879faf;}.cls-47{fill:#00c3b6;}.cls-48{fill:#ceccff;}.cls-49{fill:#eaeeef;}.cls-51{font-size:9.47px;}.cls-51,.cls-55{font-family:OpenSans-Semibold, OpenSans Semibold;font-weight:600;}.cls-52{letter-spacing:-0.01em;}.cls-53{letter-spacing:-0.08em;}.cls-54{letter-spacing:-0.07em;}.cls-55{font-size:11.26px;}.cls-56{letter-spacing:-0.01em;}.cls-57{letter-spacing:-0.08em;}.cls-58{letter-spacing:-0.07em;}.cls-59{fill:#303072;}.cls-60{fill:#46467f;}</style></defs><title>LandingPage_projectIcon</title><g id="Layer_2" data-name="Layer 2"><path class="cls-1" d="M474.57,421.28h0c91-52.87,90.49-138.6-1.08-191.46S233.92,177,143,229.82,52.43,368.4,144,421.28,383.6,474.15,474.57,421.28Z" transform="translate(-75.02 -28.46)"/></g><g id="Layer_1" data-name="Layer 1"><path class="cls-2" d="M414.13,206.47a17.16,17.16,0,0,0,12.38,4.62,23.57,23.57,0,0,0,14.3-5.9c.12-.1.24-.2.35-.31-1,0-1.94-.12-2.9-.19-4.42-.36-9.09-.88-12.92-2.92a42.69,42.69,0,0,0,20.4-1.74,36.74,36.74,0,0,0,5.6-10.07,23,23,0,0,1-2.55,1.36c-5.85,2.68-12.5,2.74-18.93,1.76a85.59,85.59,0,0,0,23.19-9.42,35.88,35.88,0,0,0,.45-9.08,22.2,22.2,0,0,0-2.24,2.61c-1.3,1.8-2.31,3.87-4,5.26-2.35,1.88-5.57,2.14-8.58,2.22-1.53,0-3.07.05-4.62,0,1.82-.66,3.63-1.35,5.41-2.08a32.7,32.7,0,0,0,4.66-2.24c3.69-2.23,6.48-5.6,9-9.16a33.1,33.1,0,0,0-1.52-5.55A44.11,44.11,0,0,1,438,174.51a69.42,69.42,0,0,0,12.35-11.75,32.63,32.63,0,0,0-2.61-4.51,33,33,0,0,1-12.64,9.47,43.37,43.37,0,0,0,10.25-12.53c-.87-1-1.79-2-2.75-2.93a19.69,19.69,0,0,1-2.69,2.71,21,21,0,0,1-2.72,1.85,32,32,0,0,0,3.61-6.23,43.39,43.39,0,0,0-4-3.15Z" transform="translate(-75.02 -28.46)"/><path class="cls-2" d="M414.13,206.47c-2.33.64-6.55.05-8.75-.95a19.64,19.64,0,0,1-6.54-4.72c-3.52-4-5-9.36-5.44-14.65a27.93,27.93,0,0,0,6.27,4.41,54.2,54.2,0,0,0,7.41,2.9c-2.5-2.51-4.78-5.32-7.56-7.52-1-.77-2-1.48-3-2.3a15.31,15.31,0,0,1-3.22-3.9,34.6,34.6,0,0,1,2.89-12.11,38.64,38.64,0,0,0,2.37,5.5,20.63,20.63,0,0,0,3.67,5.57,14.88,14.88,0,0,0,4.19,2.81,23.63,23.63,0,0,1-2.39-3c-3.13-4.71-4-10.5-4.77-16.14a31,31,0,0,1,4.26-4.61,30.11,30.11,0,0,0,9,18.55c-.46-.88-.87-1.79-1.27-2.69a57.9,57.9,0,0,1-3.37-8.77,45,45,0,0,1-1.05-5.65,20.65,20.65,0,0,1-.24-2.83c0-.36,0-.72.07-1.08a39.17,39.17,0,0,1,5.42-3.2,20.17,20.17,0,0,0,0,7.43,23.33,23.33,0,0,0,1.45,4.37,36.05,36.05,0,0,0,4.71,8.14,30.1,30.1,0,0,1-1.86-21.8,30.64,30.64,0,0,1,4.28-1.22,23.17,23.17,0,0,0,.07,8.86,23.11,23.11,0,0,1,2.67-9.33c1.64-.23,3.29-.37,5-.49a18.85,18.85,0,0,0-.16,5.61,18.33,18.33,0,0,1,2.12-5.73c2.06-.13,4.17-.26,6.37-.51Z" transform="translate(-75.02 -28.46)"/><path class="cls-2" d="M421.37,197.34c1.17.08,2.34.19,3.52.23,2.35.13,4.7.16,7.05.12s4.7-.19,7-.43a52.05,52.05,0,0,0,6.94-1.15,52.55,52.55,0,0,1-7,1c-2.34.19-4.68.25-7,.25s-4.68-.12-7-.31c-1.17-.07-2.33-.22-3.5-.32l-2.63-.34,2.52-6.92a37.85,37.85,0,0,0,4.64.13,49,49,0,0,0,5.14-.42A61.62,61.62,0,0,0,441.17,187a61,61,0,0,1-10.11,1.79c-1.7.17-3.41.23-5.11.23a39.89,39.89,0,0,1-4.37-.27l2.41-6.6a32,32,0,0,0,6.18-.66,39,39,0,0,0,6.35-1.91,50.25,50.25,0,0,0,6-2.85,45.71,45.71,0,0,0,5.51-3.65,46.38,46.38,0,0,1-5.58,3.53,48.08,48.08,0,0,1-6,2.7,36.7,36.7,0,0,1-6.33,1.76,30.83,30.83,0,0,1-5.9.53l2.54-7a31.69,31.69,0,0,0,5.14-1.46,35.8,35.8,0,0,0,5.05-2.38,42.68,42.68,0,0,0,4.68-3.05,39.4,39.4,0,0,0,4.22-3.63,39.38,39.38,0,0,1-4.31,3.52,44,44,0,0,1-4.72,2.91,35.14,35.14,0,0,1-5.07,2.23A28.39,28.39,0,0,1,427,174l2.64-7.24a37.74,37.74,0,0,0,6-4,36.25,36.25,0,0,0,5.26-5.1,36.46,36.46,0,0,1-5.37,5,37.88,37.88,0,0,1-5.72,3.6l4.62-12.66-6.69,16.66a23.35,23.35,0,0,1-1.66-3.76c-.28-.73-.46-1.49-.68-2.24s-.35-1.52-.46-2.29a29.1,29.1,0,0,1-.38-4.66,25.18,25.18,0,0,1,.4-4.67,25.16,25.16,0,0,0-.49,4.66,29.6,29.6,0,0,0,.29,4.7c.09.78.27,1.54.41,2.32s.37,1.53.64,2.27a25.69,25.69,0,0,0,1.74,4.12l-2.65,6.6a32.54,32.54,0,0,1-3.18-5,31.94,31.94,0,0,1-2.44-6.14,32.73,32.73,0,0,1-1.19-6.51,29.42,29.42,0,0,1,.13-6.63,29.51,29.51,0,0,0-.27,6.64,33.32,33.32,0,0,0,1.06,6.58,32.66,32.66,0,0,0,2.33,6.25,34.67,34.67,0,0,0,3.32,5.42l-2.43,6-.78-.79-.66-.66-.6-.7L419,180.36l-1.11-1.5a43.5,43.5,0,0,1-3.83-6.4,51.58,51.58,0,0,1-2.82-6.93,47.66,47.66,0,0,1-1.8-7.27,47.26,47.26,0,0,0,1.62,7.33,53.7,53.7,0,0,0,2.66,7,43.69,43.69,0,0,0,3.71,6.56l1.09,1.55,1.19,1.47.59.73.65.69,1,1.06-1.47,3.65a37.25,37.25,0,0,1-4.9-3.58,44.4,44.4,0,0,1-4.79-4.81,54.48,54.48,0,0,1-4.11-5.43,49.37,49.37,0,0,1-3.39-5.91,50.3,50.3,0,0,0,3.23,6,54.68,54.68,0,0,0,4,5.57,45.3,45.3,0,0,0,4.71,5,36.72,36.72,0,0,0,5,3.85l-1.69,4.19c-.78-.35-1.57-.69-2.35-1.06-1-.49-2-.94-2.94-1.48-1.95-1-3.81-2.17-5.66-3.37a61.27,61.27,0,0,1-5.29-3.92,43.74,43.74,0,0,1-4.79-4.54,43.9,43.9,0,0,0,4.67,4.68,64,64,0,0,0,5.2,4.09c1.82,1.26,3.67,2.48,5.6,3.55.95.57,1.95,1.06,2.92,1.58.78.4,1.58.77,2.37,1.15l-3.44,8.56a20,20,0,0,1-4.87-1.15,29.58,29.58,0,0,1-5.17-2.7,41.31,41.31,0,0,1-4.6-3.64,39.77,39.77,0,0,1-4-4.27,40.73,40.73,0,0,0,8.43,8.22,29.46,29.46,0,0,0,5.17,2.91,20.82,20.82,0,0,0,4.8,1.32l-6,15,2.1.81,5.58-15.28a27.46,27.46,0,0,0,3.62,1.53,30.36,30.36,0,0,0,4.67,1.25,32.25,32.25,0,0,0,4.79.56,28.59,28.59,0,0,0,4.81-.16,28.5,28.5,0,0,1-4.8,0,31.32,31.32,0,0,1-4.72-.74,29.31,29.31,0,0,1-4.56-1.41,28.29,28.29,0,0,1-3.57-1.68l2.16-5.91Z" transform="translate(-75.02 -28.46)"/><path class="cls-2" d="M151.61,291.6A17.15,17.15,0,0,0,156,279.15a23.55,23.55,0,0,0-6.14-14.2c-.1-.12-.2-.24-.31-.35q-.06,1.45-.15,2.91c-.29,4.42-.73,9.1-2.71,13a42.55,42.55,0,0,0-2.07-20.38,36.73,36.73,0,0,0-10.16-5.43,24.76,24.76,0,0,1,1.4,2.53c2.78,5.81,3,12.45,2.07,18.89a85.62,85.62,0,0,0-9.8-23,35.93,35.93,0,0,0-9.09-.3,24.16,24.16,0,0,0,2.65,2.2c1.82,1.27,3.91,2.24,5.32,4,1.92,2.31,2.24,5.53,2.37,8.54.06,1.53.1,3.07.11,4.62-.68-1.81-1.4-3.61-2.17-5.38a31.13,31.13,0,0,0-2.31-4.62c-2.29-3.65-5.7-6.38-9.31-8.82a32.79,32.79,0,0,0-5.52,1.6,44.59,44.59,0,0,1,9.06,13.44,69.47,69.47,0,0,0-12-12.15,30.47,30.47,0,0,0-4.46,2.68,33.06,33.06,0,0,1,9.67,12.48,43.24,43.24,0,0,0-12.69-10,38.2,38.2,0,0,0-2.89,2.8,19.08,19.08,0,0,1,2.75,2.64,21.77,21.77,0,0,1,1.9,2.69,32.3,32.3,0,0,0-6.29-3.51A43,43,0,0,0,92.22,270Z" transform="translate(-75.02 -28.46)"/><path class="cls-2" d="M151.61,291.6c.68,2.32.16,6.55-.8,8.77A19.57,19.57,0,0,1,146.2,307c-3.9,3.59-9.27,5.15-14.56,5.69a27.68,27.68,0,0,0,4.31-6.35,54.11,54.11,0,0,0,2.77-7.45c-2.47,2.54-5.23,4.87-7.39,7.69-.76,1-1.45,2-2.25,3a15.56,15.56,0,0,1-3.85,3.29,35,35,0,0,1-12.16-2.69,40,40,0,0,0,5.47-2.46,20.89,20.89,0,0,0,5.51-3.77,14.83,14.83,0,0,0,2.73-4.23,21.44,21.44,0,0,1-2.94,2.43c-4.65,3.22-10.43,4.21-16,5a31,31,0,0,1-4.68-4.18,30,30,0,0,0,18.39-9.31c-.87.47-1.77.89-2.67,1.31a57.76,57.76,0,0,1-8.7,3.51,43.71,43.71,0,0,1-5.64,1.15,20.72,20.72,0,0,1-2.82.28c-.36,0-.72,0-1.09-.05a39,39,0,0,1-3.28-5.36,20.55,20.55,0,0,0,7.42-.15,23.42,23.42,0,0,0,4.35-1.53,36.17,36.17,0,0,0,8.06-4.84,30.13,30.13,0,0,1-21.77,2.22A31.19,31.19,0,0,1,94.08,286a23.13,23.13,0,0,0,8.85-.22,23,23,0,0,1-9.37-2.52c-.26-1.63-.43-3.28-.57-4.94a18.84,18.84,0,0,0,5.61.06,18.45,18.45,0,0,1-5.77-2c-.16-2.06-.33-4.17-.61-6.36Z" transform="translate(-75.02 -28.46)"/><path class="cls-2" d="M142.36,284.52c.06-1.18.16-2.35.18-3.53.09-2.35.08-4.7,0-7.05s-.26-4.69-.55-7a52,52,0,0,0-1.26-6.92,52.4,52.4,0,0,1,1.07,6.94c.23,2.33.33,4.67.37,7s0,4.68-.19,7c0,1.16-.18,2.33-.27,3.49l-.29,2.64-7-2.4a39.93,39.93,0,0,0,0-4.64c-.09-1.72-.24-3.44-.5-5.14a62.64,62.64,0,0,0-2.33-10,61.9,61.9,0,0,1,2,10.08c.19,1.69.28,3.4.31,5.11a39.83,39.83,0,0,1-.2,4.37l-6.63-2.3a32.75,32.75,0,0,0-.77-6.17,37.69,37.69,0,0,0-2-6.31,48.79,48.79,0,0,0-2.94-5.93,46,46,0,0,0-3.74-5.44,44.24,44.24,0,0,1,3.61,5.51,47.6,47.6,0,0,1,2.81,6,37.61,37.61,0,0,1,1.86,6.3,30.77,30.77,0,0,1,.63,5.89l-7-2.42a31.47,31.47,0,0,0-1.55-5.12,35.78,35.78,0,0,0-2.46-5,42.61,42.61,0,0,0-3.12-4.63,40.67,40.67,0,0,0-3.71-4.16,38.24,38.24,0,0,1,3.59,4.25,42.48,42.48,0,0,1,3,4.67,35.68,35.68,0,0,1,2.32,5,30.29,30.29,0,0,1,1.33,4.76l-7.29-2.53a39,39,0,0,0-4.06-5.95,36.83,36.83,0,0,0-5.19-5.18,37.16,37.16,0,0,1,5,5.3,38.07,38.07,0,0,1,3.69,5.65L98.4,272.21l16.77,6.42a23.32,23.32,0,0,1-3.73,1.72c-.72.29-1.48.48-2.23.71s-1.51.38-2.28.5a29,29,0,0,1-4.66.46,26.07,26.07,0,0,1-4.67-.32,25.26,25.26,0,0,0,4.67.41,29.45,29.45,0,0,0,4.69-.36c.78-.11,1.54-.3,2.31-.46s1.53-.39,2.26-.67a26.74,26.74,0,0,0,4.1-1.81l6.64,2.54a33.5,33.5,0,0,1-11,5.8,32.6,32.6,0,0,1-6.49,1.3,29.4,29.4,0,0,1-6.63,0,28.91,28.91,0,0,0,6.64.16,34.12,34.12,0,0,0,12.77-3.6,33.74,33.74,0,0,0,5.36-3.41l6.07,2.33-.78.8-.65.66-.7.62-1.39,1.23L124,288.35a42.71,42.71,0,0,1-6.34,3.94,53.49,53.49,0,0,1-6.88,2.94,47.63,47.63,0,0,1-7.24,1.91,48.4,48.4,0,0,0,7.3-1.73,53.3,53.3,0,0,0,7-2.79,43.68,43.68,0,0,0,6.5-3.81l1.53-1.11,1.45-1.22.72-.61.68-.66,1-1,3.67,1.41a36.47,36.47,0,0,1-3.5,5,43.41,43.41,0,0,1-4.73,4.86,54.31,54.31,0,0,1-5.35,4.2,50.86,50.86,0,0,1-5.86,3.49,51.17,51.17,0,0,0,6-3.33,55.77,55.77,0,0,0,5.5-4.07,45.32,45.32,0,0,0,4.91-4.79,37.35,37.35,0,0,0,3.77-5.06l4.21,1.61c-.33.79-.66,1.59-1,2.37-.47,1-.91,2-1.43,3-1,2-2.11,3.85-3.27,5.72a65.31,65.31,0,0,1-3.84,5.36,43.62,43.62,0,0,1-4.46,4.86,43.9,43.9,0,0,0,4.61-4.74,65.77,65.77,0,0,0,4-5.27c1.23-1.84,2.42-3.71,3.46-5.66.55-1,1-2,1.53-2.95.38-.79.74-1.59,1.11-2.39l8.61,3.3a19.62,19.62,0,0,1-1.07,4.89,29.5,29.5,0,0,1-2.61,5.21,40.14,40.14,0,0,1-3.56,4.66,40.85,40.85,0,0,1-4.21,4.11,41,41,0,0,0,4.35-4,40.08,40.08,0,0,0,3.73-4.58,29.89,29.89,0,0,0,2.83-5.22,20.33,20.33,0,0,0,1.24-4.82l15.08,5.77.77-2.11-15.37-5.32a28.69,28.69,0,0,0,1.47-3.65,30.46,30.46,0,0,0,1.17-4.7,32.13,32.13,0,0,0,.48-4.79,27.6,27.6,0,0,0-.24-4.81,27.49,27.49,0,0,1,.05,4.8,31.3,31.3,0,0,1-.66,4.73,30,30,0,0,1-1.33,4.58,27.74,27.74,0,0,1-1.63,3.6l-5.94-2.06Z" transform="translate(-75.02 -28.46)"/><path class="cls-3" d="M268.42,103.44h0a27.67,27.67,0,0,0-4.3-1.7l-.24-.06c-.39-.12-.79-.23-1.19-.32l-.41-.1-1.06-.22-.48-.08c-.34-.06-.69-.11-1-.15l-.51-.07q-.54-.06-1.08-.09l-.47,0c-.51,0-1,0-1.55,0h0a27.72,27.72,0,0,0-15.57,4.75,27.73,27.73,0,0,0-5.92,5.38c-.28.34-.56.69-.83,1q-.79,1.08-1.5,2.22c-.23.39-.45.78-.67,1.17s-.54,1-.79,1.58-.51,1.17-.74,1.76a27.62,27.62,0,0,0-1.83,9.93q0,.66,0,1.32l0,.41c0,.3,0,.6.07.89s0,.32,0,.47.07.57.11.85,0,.3.07.44c.05.35.11.69.18,1,0,.11,0,.22.07.34.07.36.15.72.24,1.07,0,.17.09.34.14.51s.13.46.2.69.11.37.17.56l.21.61c.07.19.13.39.2.58s.16.39.23.58c.15.36.3.72.46,1.08.08.16.14.32.22.48s.21.43.32.64.14.29.22.43l.35.64.22.39.39.66.18.27c.33.53.68,1,1.05,1.55h0a27.85,27.85,0,1,0,34.76-41.47Z" transform="translate(-75.02 -28.46)"/><path class="cls-3" d="M186.1,94.39h0a38.05,38.05,0,0,0-5.85-2.31l-.33-.09c-.54-.15-1.08-.3-1.63-.43l-.54-.13c-.49-.11-1-.21-1.46-.3l-.65-.12-1.4-.2-.7-.09-1.47-.13-.63,0c-.7,0-1.41-.06-2.12-.06a37.93,37.93,0,0,0-37.93,37.93c0,.6,0,1.2,0,1.79,0,.19,0,.38,0,.57,0,.4,0,.81.09,1.21l.06.64.15,1.15.09.61c.07.47.16.93.25,1.4l.09.45c.1.5.21,1,.34,1.47.05.23.12.46.18.7l.27.93.24.77c.09.28.18.55.28.83s.18.52.28.78.2.53.31.79c.2.51.42,1,.64,1.51.09.2.18.41.28.61s.29.6.44.89l.29.57.49.89c.09.17.19.34.29.51l.54.91c.08.12.16.24.23.36A37.94,37.94,0,1,0,186.1,94.39Z" transform="translate(-75.02 -28.46)"/><path class="cls-3" d="M231.7,30.51l-.41-.12c-.69-.2-1.39-.38-2.09-.55l-.7-.16c-.61-.14-1.23-.27-1.85-.39l-.84-.15c-.59-.1-1.19-.18-1.79-.26l-.88-.11c-.63-.07-1.25-.12-1.88-.17l-.81-.06c-.9-.05-1.8-.08-2.7-.08h0a48.23,48.23,0,0,0-25.12,7c-.66.41-1.32.83-2,1.26a48.8,48.8,0,0,0-10.3,9.36A48.22,48.22,0,0,0,169.31,76.9q0,1.14.06,2.28c0,.24,0,.48,0,.72,0,.52.07,1,.12,1.55,0,.27.05.55.08.82.06.49.12,1,.19,1.47,0,.26.07.52.11.78.1.6.2,1.19.32,1.78l.12.58c.13.63.27,1.26.43,1.88.07.29.16.59.24.88s.22.8.34,1.2.2.65.3,1l.36,1.07.36,1,.39,1c.26.65.54,1.29.83,1.93.11.26.23.53.35.78s.37.76.56,1.14l.38.73.61,1.13c.13.22.25.44.38.65.23.39.45.78.69,1.16.1.15.2.3.29.46A48.44,48.44,0,1,0,231.7,30.51Z" transform="translate(-75.02 -28.46)"/><polygon class="cls-4" points="181.07 102.64 144.81 122.25 142.72 62.41 140.22 134.11 96.23 99.95 140.01 140.38 138.17 193.16 147.28 193.16 145 127.9 181.07 102.64"/><path class="cls-5" d="M168.37,304.48s9.78,11.43,12.39,12.19.25,3.46-1.75,3.66-8.37-.07-10.22-1.89-7.1-3.77-7.1-3.77a29.5,29.5,0,0,1,1.42-9.65Z" transform="translate(-75.02 -28.46)"/><path class="cls-5" d="M171.8,223.79s1.27,25.28.8,33.57-2.48,49.44-2.48,49.44a17.85,17.85,0,0,1-8.75,0c-1.77-31.55-1.71-40.63-2.22-45.33S158,243.16,158,243.16c-3.77-7.81.18-18,2-20.42S171.8,223.79,171.8,223.79Z" transform="translate(-75.02 -28.46)"/><path class="cls-5" d="M152.39,315.33c.33,4.62,2,10.06,2.42,12.83a6.6,6.6,0,0,1-1.21,5.24c-.64.88-8.45-1.7-9.52-4.71s1.12-5.64,1.29-11.29C147.9,312.88,152.39,315.33,152.39,315.33Z" transform="translate(-75.02 -28.46)"/><path class="cls-6" d="M163.68,225.75s-1.35,23-3.47,30.68-4,30.14-4.93,34.06-2,28.13-2,28.13a17.16,17.16,0,0,1-8.69,0c.11-22.67-.44-41.11,0-47.33s-.17-24.65-.17-24.65c-2-8.58-2.14-9.67,0-15.37S155.72,221.05,163.68,225.75Z" transform="translate(-75.02 -28.46)"/><path class="cls-7" d="M168.11,171.15c7.94,2.23,12.2,22.19,14.43,26.67s20.76,5.6,20.76,5.6c1.12,3.89-2,8-2,8-17.85-.74-24.15-2.23-27.46-9.27S158.87,173.55,168.11,171.15Z" transform="translate(-75.02 -28.46)"/><path class="cls-8" d="M168.11,171.15c-7.06-.32-23.41,3.35-28.79,10.22s2.43,19,4.3,26.32-.86,25.67-.86,27.43c8.36,5.54,28.49,6.24,30.75-2,.93-9-1.13-19.67-1.24-24.93C172.54,196.86,177.45,174.49,168.11,171.15Z" transform="translate(-75.02 -28.46)"/><path class="cls-9" d="M162.05,172.82c4.54,16,5.61,33.84,5.17,40.61s-.63,28.64-.63,28.64c5.29-2.78,7.6-7.88,7.6-10.19s-2-22.12-1.92-23.71,2.67-19.77,1.92-27.93-6.08-9.09-6.08-9.09h-6.8Z" transform="translate(-75.02 -28.46)"/><path class="cls-10" d="M166.43,153.57c3.11,1,0,8.05,0,8.05Z" transform="translate(-75.02 -28.46)"/><path class="cls-11" d="M166.59,154.5a21.79,21.79,0,0,1,.73,7.35c-.44,3.22-.73,9.62-3.58,11.66s-6.93-.33-9.63-2.62a16,16,0,0,1-5.63-11.65c-.07-5.12,1.94-11.39,9.32-11.07S166.59,154.5,166.59,154.5Z" transform="translate(-75.02 -28.46)"/><path class="cls-11" d="M152.25,166.35s.58,6.59-1.15,9c-.12,1.62,4.53,8.5,9.15,7.3,2.7-.7,2.38-3.84,2.38-3.84a73.62,73.62,0,0,1,0-8.2Z" transform="translate(-75.02 -28.46)"/><path class="cls-5" d="M168.4,149c1.06,3.8-.14,5.16-3.34,6.25s-11.72-1.38-11.72-1.38c.58,4.07-.7,6.18-.7,6.18-1.41-4-2.69-2-2.82,1.23s1.67,3.12,1.67,3.12c-.13,2.69-1,3.6-1,3.6-3.42-2.36-8.08-18.19-1.91-18.55C148.67,143.9,166.15,140.85,168.4,149Z" transform="translate(-75.02 -28.46)"/><path class="cls-9" d="M150.81,174.32c5.49,11.57,8.37,22.14,8.18,31.69s-2.16,37.36-2.16,37.36c-9.52-2.32-16-5-17.86-8.25,4.08-10.75,5.56-18,4.73-21s-8-26.39-4.3-33.31C143,176.9,150.81,174.32,150.81,174.32Z" transform="translate(-75.02 -28.46)"/><path class="cls-12" d="M142.5,180.57c6.57,3.27,11.78,21.37,16.79,26.22,2.84,2.75,16.85,6.34,20.74,6.44,1.51,3.44-1.2,7.26-1.2,7.26-23.92-2.25-25-3.57-32.33-13C137.36,195.89,133.71,178.32,142.5,180.57Z" transform="translate(-75.02 -28.46)"/><path class="cls-13" d="M162.51,174.12c-2,.76-4.9-.44-8.69-3.48,0,0,1.12,4.44,8.69,6.07Z" transform="translate(-75.02 -28.46)"/><path class="cls-8" d="M152,172.78a13.79,13.79,0,0,1-1.23,1.54s2.38,5.2,3.24,7.5a12.11,12.11,0,0,0,3.12,4.21l3.08-3.36C156,180.42,152,172.78,152,172.78Z" transform="translate(-75.02 -28.46)"/><path class="cls-8" d="M162.24,174.44c-.28-.35-1,6.49-2,8.23a12.6,12.6,0,0,0,3.16,2.36S164.59,177.36,162.24,174.44Z" transform="translate(-75.02 -28.46)"/><path class="cls-5" d="M372.17,245.49c-.24,3.43-.56,6.85-.56,6.85h-.76s0-5.18-.81-4.09C370.15,245.43,372.17,245.49,372.17,245.49Z" transform="translate(-75.02 -28.46)"/><path class="cls-11" d="M361.6,251.32a2.08,2.08,0,0,1-1.3-1c.78-.93,1.55-1.84,2.06-2.55,1.65-2.28,4.31-7.35,4.44-9.63s-1.27-26.09-1.65-29-1.47-13.93-1.37-14.56S374,198.49,374,198.49c-.13.9-1.5,6.6-.94,10.27s1.44,6.1.94,12.11-3.42,15.63-2.41,20.19c0,.09,0,.16.05.24C368.68,245.38,367.63,253.33,361.6,251.32Z" transform="translate(-75.02 -28.46)"/><path class="cls-5" d="M360.3,250.33a2.08,2.08,0,0,0,1.3,1c6,2,7.08-5.94,10.06-10,.94,4.33.52,4.84-.26,5.46s-3.59,4.06-4.1,6.46-8.1,2.16-9.5,1.65C356.84,254.52,358.59,252.38,360.3,250.33Z" transform="translate(-75.02 -28.46)"/><path class="cls-11" d="M382.55,219c.29,2.66,1.85,23.18,1.6,26.61a65.06,65.06,0,0,1-1.76,8,8.91,8.91,0,0,0-.4,3.77c.61,1.76.64,7,3.47,5.8s4.71-4.81,4.13-8.84.11-6,0-8.36,1.45-17.36,1.7-22.67-1.52-7.86-1.65-11.41a89.7,89.7,0,0,1,.94-10.94s-12.21-6.4-11.2,1.32S382.26,216.36,382.55,219Z" transform="translate(-75.02 -28.46)"/><path class="cls-5" d="M381.49,257.59c.19,3.57,1.14,6.79,4,5.61s4.71-4.81,4.13-8.84c-1.52,4.44-7.32,4.25-7.2-.73A24.77,24.77,0,0,0,381.49,257.59Z" transform="translate(-75.02 -28.46)"/><path class="cls-14" d="M363,169.12s0,24.75,0,32.87,2.11,35.48,2.11,35.48a11.21,11.21,0,0,0,8.16-.38c.6-7.07,2.67-18.7,3-24.81s-2.43-7.13-1.27-11.6,4.3-28.37,4.3-28.37Z" transform="translate(-75.02 -28.46)"/><path class="cls-14" d="M376.24,174.33s2.11,26.57,3,29.94,1.55,16.35,2.22,20.82.73,17.34.73,17.34c1.61,5.26,8.28.81,8.28.81,2.77-16.46.85-24.64.77-29.47s2.27-17.45,1.8-22.7-1.05-16.15,0-18.18,2.17-5.39,2.54-11.45c-7.86-3-20.19.37-20.19.37Z" transform="translate(-75.02 -28.46)"/><path class="cls-8" d="M364.14,116.51c7-.35,18.78,7.88,24.13,14.63s2,14.07.23,21.3,1,25.33,1,27.07c-8.22,5.52-23.58,6.21-25.86-1.94-1-8.87,1-18.12,1.1-23.31C364.41,143.1,355,119.86,364.14,116.51Z" transform="translate(-75.02 -28.46)"/><path class="cls-15" d="M370.22,118.13c-3.62,15.73-2.48,32.74-1.68,39.4s.95,28.87.95,28.87c-5.36-2.72-7.93-7.73-8.05-10s1.95-21.53,1.8-23.1-2.88-16.43-2.59-24.47,3.32-9.27,3.32-9.27l6.89-3.08Z" transform="translate(-75.02 -28.46)"/><path class="cls-15" d="M380.3,119.78c-5.36,11.45-2.78,21.95-2.54,31.37S382.87,187,382.87,187c9.39-2.34,10.51-8.63,12.33-11.84,4.33-22-1.14-39.94-5.21-46.55C386.8,123.46,380.3,119.78,380.3,119.78Z" transform="translate(-75.02 -28.46)"/><path class="cls-16" d="M342.54,155.41a5.22,5.22,0,0,0,4.73,0c1.31-.75,1.31-2,0-2.72a5.2,5.2,0,0,0-4.72,0C341.25,153.44,341.24,154.66,342.54,155.41Z" transform="translate(-75.02 -28.46)"/><path class="cls-15" d="M386.22,128.81c-6.5,3.19-7.1,22.29-12.07,27.06-2.82,2.7-14.08.54-17.93.62-1.5,3.38.54,7.48.54,7.48,21.46,1.05,24.05,1.71,29.5-8.72C390.52,147.1,394.91,126.64,386.22,128.81Z" transform="translate(-75.02 -28.46)"/><path class="cls-15" d="M364,119.55c-4.16,2.17-6.13,19.57-11.1,23.92-2.81,2.47-4.06,4.73-9.79,7.59-1.5,3.09,2.58,5,2.58,5,11.44-4.33,14-8.06,17.88-13.83C368.27,135.09,372.65,117.57,364,119.55Z" transform="translate(-75.02 -28.46)"/><path class="cls-11" d="M345.43,155.44a20.75,20.75,0,0,1-2.25,2.73c-1,1.13-2.57,3.07-3.05,2.59s.45-2.4.45-2.4a32.43,32.43,0,0,0-3.46,3.72c-.53.94-.23-1.77.52-3-1.88,2.86-2.33,3.5-2.48,2.79s1.41-4.59,1.19-4.22c-2.17,3.28-3,3.73-2.77,2.22s2.33-4.06,3.61-4.77c-3.76,2.44-4,2.18-3.08,1.09a16.24,16.24,0,0,1,9.07-4.4C346.14,154.56,345.43,155.44,345.43,155.44Z" transform="translate(-75.02 -28.46)"/><path class="cls-11" d="M342.93,161.45c1.22-1.88,3-4,5.23-4.66a8.47,8.47,0,0,1,4.79.4,41.65,41.65,0,0,1,4.22,1.12,10.7,10.7,0,0,1,.86,4,3.78,3.78,0,0,1-.83.18,27.94,27.94,0,0,1-3.94.58,15.86,15.86,0,0,1-3.08,0c.33.1.71.26.76.59a.6.6,0,0,1-.48.62c-1.92.5-3.61-1.84-4.79-2.92C345.79,161.49,341.35,163.9,342.93,161.45Z" transform="translate(-75.02 -28.46)"/><path class="cls-17" d="M363.09,100.46a3.49,3.49,0,0,0-.25.59c-.35,1-.11,2.27-.36,3.35-.4,1.71-1.61,3.06-2.19,4.72-2.11,6.08,3.94,9.49,9.18,9a5,5,0,0,0,2.66-.87c2.54-2-.33-5-1.53-6.86-.84-1.26-2-3-2.11-4.52s.69-2.72.39-4.28A3.13,3.13,0,0,0,363.09,100.46Z" transform="translate(-75.02 -28.46)"/><path class="cls-11" d="M378.73,112.77s-1.72,6,2.22,8.49c.12,1.45-4,7.64-8.17,6.58-2.42-.61-3.66-4.07-3.66-4.07a67.54,67.54,0,0,1,1.48-6.7Z" transform="translate(-75.02 -28.46)"/><path class="cls-11" d="M364.73,100.62a19.73,19.73,0,0,0-.67,6.73c.4,3,.67,8.81,3.28,10.69s6.35-.3,8.83-2.4A14.78,14.78,0,0,0,381.33,105c.06-4.69-1.78-10.44-8.55-10.15S364.73,100.62,364.73,100.62Z" transform="translate(-75.02 -28.46)"/><path class="cls-17" d="M369.46,97.75c-1.75,2.15-.92,4.77,1.25,6.35,1.49,1.1,2.8,1.79,3.79,3.47a11.3,11.3,0,0,1,1.53,5.16c.07,1.49.09,3,.16,4.46,0,.69.08,1.64.81,1.83a6.19,6.19,0,0,0,3.37-.86,12.28,12.28,0,0,0,3.25-2.8,12.87,12.87,0,0,0,3.05-7.72c.19-5.24-2.8-8.62-6.6-11.67S372.57,94,369.46,97.75Z" transform="translate(-75.02 -28.46)"/><path class="cls-17" d="M367.16,95.13l0,0c1.32-.89,6.68-2.55,6.71.18s-4,5.48-6.12,6.7a23.54,23.54,0,0,0-2.75,1.61c-1.11.86-1.2,2.5-2.18,3.25-1.48-1.43-1.1-5-.51-6.72C363.14,97.79,365.19,96.46,367.16,95.13Z" transform="translate(-75.02 -28.46)"/><path class="cls-13" d="M370.17,118.72c2.77-.23,5.79-2.91,5.79-2.91s-.63,3.22-6.14,4.37Z" transform="translate(-75.02 -28.46)"/><path class="cls-18" d="M448.87,280.23c-2.67,4.16-2.05,7.11-1.29,7.44,15.85,7.06,25.71,4.91,28.12,4.09-2.62-3.65-5.11-7.17-8.07-11.17C459.87,282,448.87,280.23,448.87,280.23Z" transform="translate(-75.02 -28.46)"/><g class="cls-19"><polygon class="cls-20" points="327.86 138.97 327.81 156.45 296.07 174.89 296.12 157.41 327.86 138.97"/><polygon class="cls-21" points="185.09 157.42 185.04 174.9 153.1 156.46 153.15 138.98 185.09 157.42"/><path class="cls-22" d="M342.56,210.17l0-17.48c0-2.47,1.63-4.93,4.87-6.81,6.51-3.79,17.12-3.79,23.68,0l0,17.48c-6.56-3.79-17.16-3.79-23.68,0C344.18,205.24,342.56,207.7,342.56,210.17Z" transform="translate(-75.02 -28.46)"/><path class="cls-20" d="M288.74,192.79l-.05,17.48c0-2.5-1.64-5-4.94-6.91-6.56-3.79-17.16-3.79-23.68,0l.05-17.48c6.52-3.79,17.12-3.79,23.68,0C287.1,187.78,288.75,190.29,288.74,192.79Z" transform="translate(-75.02 -28.46)"/><polygon class="cls-21" points="240.78 189.57 240.74 207.05 208.8 188.62 208.85 171.14 240.78 189.57"/><polygon class="cls-20" points="272.52 171.13 272.47 188.61 240.74 207.05 240.78 189.57 272.52 171.13"/><path class="cls-23" d="M402.88,167.44l-31.73,18.44c-6.56-3.79-17.17-3.79-23.68,0s-6.48,9.93.07,13.71L315.81,218,283.88,199.6c6.52-3.79,6.48-9.93-.08-13.72s-17.16-3.79-23.68,0l-32-18.44,87.08-50.6Z" transform="translate(-75.02 -28.46)"/></g><g class="cls-19"><path class="cls-24" d="M262.33,208.14l-.05,17.47c0,2.47-1.63,4.94-4.86,6.82l0-17.48C260.7,213.07,262.33,210.6,262.33,208.14Z" transform="translate(-75.02 -28.46)"/><polygon class="cls-24" points="214.37 204.92 214.32 222.4 182.6 240.84 182.65 223.36 214.37 204.92"/><path class="cls-25" d="M229.07,276.11l.05-17.48c0-2.46,1.63-4.92,4.87-6.8,6.52-3.79,17.13-3.79,23.68,0l-.05,17.48c-6.55-3.78-17.16-3.78-23.68,0C230.7,271.19,229.08,273.65,229.07,276.11Z" transform="translate(-75.02 -28.46)"/><polygon class="cls-24" points="159.04 237.08 158.99 254.56 127.26 273 127.31 255.52 159.04 237.08"/><polygon class="cls-26" points="127.31 255.52 127.26 273 39.63 222.4 39.67 204.92 127.31 255.52"/><path class="cls-27" d="M257.39,201.23c6.56,3.78,6.59,9.93.07,13.72l31.94,18.43-31.73,18.44c-6.55-3.78-17.16-3.78-23.68,0s-6.48,9.93.08,13.71L202.33,284,114.7,233.39l87.06-50.6,31.94,18.44C240.22,197.44,250.82,197.44,257.39,201.23Z" transform="translate(-75.02 -28.46)"/></g><path class="cls-28" d="M369.14,225.52l.05-17.48c0,2.5,1.64,5,4.94,6.9l-.05,17.48C370.78,230.52,369.13,228,369.14,225.52Z" transform="translate(-75.02 -28.46)"/><polygon class="cls-29" points="299.31 223.36 299.26 240.84 267.32 222.4 267.37 204.92 299.31 223.36"/><path class="cls-30" d="M403,258.73l0,17.48c0-2.5-1.64-5-4.93-6.91-6.57-3.78-17.18-3.78-23.7,0l.05-17.47c6.52-3.79,17.13-3.79,23.7,0C401.32,253.73,403,256.23,403,258.73Z" transform="translate(-75.02 -28.46)"/><polygon class="cls-29" points="355.01 255.52 354.96 273 323.02 254.56 323.07 237.08 355.01 255.52"/><polygon class="cls-30" points="442.08 204.92 442.03 222.4 354.96 273 355.01 255.52 442.08 204.92"/><path class="cls-31" d="M517.11,233.38,430,284l-32-18.45c6.52-3.78,6.49-9.93-.06-13.71s-17.18-3.79-23.7,0l-31.94-18.45,31.74-18.44c-6.57-3.79-6.59-9.93-.07-13.72s17.11-3.78,23.67,0l31.74-18.44Z" transform="translate(-75.02 -28.46)"/><g class="cls-19"><path class="cls-32" d="M376.55,274.08l-.05,17.48c0,2.46-1.63,4.93-4.87,6.81l.05-17.48C374.92,279,376.54,276.55,376.55,274.08Z" transform="translate(-75.02 -28.46)"/><path class="cls-33" d="M255.66,291.46l.05-17.48c0,2.5,1.64,5,4.94,6.91l0,17.48C257.3,296.46,255.65,294,255.66,291.46Z" transform="translate(-75.02 -28.46)"/><path class="cls-34" d="M285.31,356.05s.85.29,2.87,1.14a20.91,20.91,0,0,0,9.06.69c2.71-.43,6.44-1,5.72-2s-14.35-4.4-14.92-4.13S285.31,356.05,285.31,356.05Z" transform="translate(-75.02 -28.46)"/><polygon class="cls-33" points="241.53 321.47 241.49 338.95 153.84 288.35 153.89 270.87 241.53 321.47"/><polygon class="cls-32" points="328.6 270.87 328.55 288.35 241.49 338.95 241.53 321.47 328.6 270.87"/><path class="cls-35" d="M371.61,267.17c6.56,3.79,6.59,9.93.07,13.72l31.94,18.44-87.06,50.6-87.64-50.6,31.73-18.44c-6.56-3.79-6.6-9.93-.08-13.72s17.12-3.79,23.69,0L316,248.73l31.94,18.44C354.44,263.39,365.05,263.39,371.61,267.17Z" transform="translate(-75.02 -28.46)"/></g><g class="cls-19"><path class="cls-36" d="M316.75,295.61v1.82c0,1.44-.95,2.87-2.83,4a15.17,15.17,0,0,1-13.79,0c-1.92-1.11-2.88-2.57-2.88-4v-1.82c0,1.45.95,2.91,2.88,4a15.17,15.17,0,0,0,13.79,0C315.8,298.48,316.74,297.05,316.75,295.61Z" transform="translate(-75.02 -28.46)"/><path class="cls-37" d="M313.86,291.59c3.83,2.2,3.85,5.78.06,8a15.17,15.17,0,0,1-13.79,0c-3.82-2.2-3.84-5.78-.05-8A15.15,15.15,0,0,1,313.86,291.59Z" transform="translate(-75.02 -28.46)"/></g><path class="cls-37" d="M330,236.49a2.21,2.21,0,0,0-2.25.22l-48.63,28.07a6.94,6.94,0,0,0-3.15,5.47L276,306.6a2.22,2.22,0,0,0,.92,2l3.15,1.83a2.2,2.2,0,0,1-.92-2l-.08-36.35a7,7,0,0,1,3.16-5.47l48.63-28.08a2.21,2.21,0,0,1,2.24-.21Z" transform="translate(-75.02 -28.46)"/><path class="cls-36" d="M330.89,238.53c1.74-1,3.16-.19,3.17,1.82l.07,36.35a6.92,6.92,0,0,1-3.15,5.46l-48.62,28.07c-1.76,1-3.18.2-3.18-1.8l-.08-36.35a7,7,0,0,1,3.16-5.47Z" transform="translate(-75.02 -28.46)"/><line class="cls-38" x1="206.31" y1="243.61" x2="206.31" y2="243.61"/><polygon class="cls-39" points="256.82 219.09 256.8 212.11 255.45 212.89 252.51 214.58 213.36 237.19 206.31 241.26 206.31 243.61 206.31 243.61 206.34 260.88 206.37 275.28 237.36 257.39 242.19 254.6 256.87 246.12 256.82 219.09"/><polygon class="cls-40" points="213.36 237.19 206.37 241.22 206.37 243.43 256.81 214.31 256.8 212.1 213.36 237.19"/><path class="cls-40" d="M287.28,274.68a3.53,3.53,0,0,1-1.6,2.76c-.88.51-1.59.1-1.59-.92a3.52,3.52,0,0,1,1.59-2.76C286.56,273.25,287.28,273.66,287.28,274.68Z" transform="translate(-75.02 -28.46)"/><path class="cls-27" d="M287.28,280.28a3.51,3.51,0,0,1-1.6,2.76c-.88.51-1.59.1-1.59-.92a3.53,3.53,0,0,1,1.59-2.76C286.56,278.86,287.28,279.27,287.28,280.28Z" transform="translate(-75.02 -28.46)"/><path class="cls-35" d="M287.28,285.83a3.54,3.54,0,0,1-1.6,2.76c-.88.51-1.59.09-1.59-.92a3.52,3.52,0,0,1,1.59-2.76C286.56,284.4,287.28,284.81,287.28,285.83Z" transform="translate(-75.02 -28.46)"/><path class="cls-27" d="M287.06,304.31a2.53,2.53,0,0,1-1.14,2c-.63.36-1.14.07-1.14-.66a2.52,2.52,0,0,1,1.14-2C286.55,303.28,287.06,303.58,287.06,304.31Z" transform="translate(-75.02 -28.46)"/><polygon class="cls-18" points="276.68 277.25 261.11 268.26 281.84 256.3 297.41 265.29 276.68 277.25"/><polygon class="cls-41" points="276.68 277.94 276.68 277.25 297.41 265.29 297.41 265.97 276.68 277.94"/><polygon class="cls-41" points="276.68 277.25 276.68 277.94 261.11 268.95 261.11 268.26 276.68 277.25"/><polygon class="cls-42" points="221.14 288.16 221.14 289.5 236.35 298.33 236.34 296.99 221.14 288.16"/><polygon class="cls-36" points="236.34 296.99 236.35 298.33 270 278.9 270 277.56 236.34 296.99"/><polygon class="cls-37" points="221.14 288.16 236.34 296.99 270 277.56 254.79 268.73 221.14 288.16"/><g class="cls-19"><polygon class="cls-42" points="252.74 270.95 252.74 271.62 254.84 272.85 254.84 272.18 252.74 270.95"/><polygon class="cls-36" points="254.84 272.18 254.84 272.85 256.92 271.65 256.92 270.98 254.84 272.18"/><polygon class="cls-37" points="252.74 270.95 254.84 272.18 256.92 270.98 254.81 269.75 252.74 270.95"/></g><g class="cls-19"><polygon class="cls-42" points="250.07 272.49 250.08 273.16 252.18 274.38 252.18 273.71 250.07 272.49"/><polygon class="cls-36" points="252.18 273.71 252.18 274.38 254.25 273.18 254.25 272.51 252.18 273.71"/><polygon class="cls-37" points="250.07 272.49 252.18 273.71 254.25 272.51 252.15 271.29 250.07 272.49"/></g><g class="cls-19"><polygon class="cls-42" points="247.42 274.02 247.42 274.69 249.52 275.92 249.52 275.25 247.42 274.02"/><polygon class="cls-36" points="249.52 275.25 249.52 275.92 251.6 274.72 251.6 274.05 249.52 275.25"/><polygon class="cls-37" points="247.42 274.02 249.52 275.25 251.6 274.05 249.49 272.83 247.42 274.02"/></g><g class="cls-19"><polygon class="cls-42" points="244.76 275.56 244.76 276.23 246.87 277.45 246.86 276.78 244.76 275.56"/><polygon class="cls-36" points="246.86 276.78 246.87 277.45 248.94 276.25 248.94 275.58 246.86 276.78"/><polygon class="cls-37" points="244.76 275.56 246.86 276.78 248.94 275.58 246.84 274.36 244.76 275.56"/></g><g class="cls-19"><polygon class="cls-42" points="242.1 277.1 242.1 277.76 244.2 278.99 244.2 278.32 242.1 277.1"/><polygon class="cls-36" points="244.2 278.32 244.2 278.99 246.28 277.79 246.28 277.12 244.2 278.32"/><polygon class="cls-37" points="242.1 277.1 244.2 278.32 246.28 277.12 244.17 275.9 242.1 277.1"/></g><g class="cls-19"><polygon class="cls-42" points="239.44 278.63 239.44 279.3 241.55 280.52 241.54 279.85 239.44 278.63"/><polygon class="cls-36" points="241.54 279.85 241.55 280.52 243.62 279.32 243.62 278.65 241.54 279.85"/><polygon class="cls-37" points="239.44 278.63 241.54 279.85 243.62 278.65 241.52 277.43 239.44 278.63"/></g><g class="cls-19"><polygon class="cls-42" points="236.78 280.16 236.78 280.83 238.89 282.06 238.89 281.39 236.78 280.16"/><polygon class="cls-36" points="238.89 281.39 238.89 282.06 240.96 280.86 240.96 280.19 238.89 281.39"/><polygon class="cls-37" points="236.78 280.16 238.89 281.39 240.96 280.19 238.86 278.97 236.78 280.16"/></g><g class="cls-19"><polygon class="cls-42" points="234.12 281.7 234.12 282.37 236.23 283.59 236.22 282.92 234.12 281.7"/><polygon class="cls-36" points="236.22 282.92 236.23 283.59 238.31 282.39 238.31 281.72 236.22 282.92"/><polygon class="cls-37" points="234.12 281.7 236.22 282.92 238.31 281.72 236.2 280.5 234.12 281.7"/></g><g class="cls-19"><polygon class="cls-42" points="231.46 283.24 231.47 283.9 233.57 285.13 233.57 284.46 231.46 283.24"/><polygon class="cls-36" points="233.57 284.46 233.57 285.13 235.65 283.93 235.64 283.26 233.57 284.46"/><polygon class="cls-37" points="231.46 283.24 233.57 284.46 235.64 283.26 233.54 282.04 231.46 283.24"/></g><g class="cls-19"><polygon class="cls-42" points="228.81 284.77 228.81 285.44 230.91 286.66 230.91 285.99 228.81 284.77"/><polygon class="cls-36" points="230.91 285.99 230.91 286.66 232.99 285.46 232.99 284.79 230.91 285.99"/><polygon class="cls-37" points="228.81 284.77 230.91 285.99 232.99 284.79 230.88 283.57 228.81 284.77"/></g><g class="cls-19"><polygon class="cls-42" points="223.49 287.84 223.49 288.51 225.59 289.73 225.59 289.06 223.49 287.84"/><polygon class="cls-36" points="225.59 289.06 225.59 289.73 230.33 287 230.33 286.33 225.59 289.06"/><polygon class="cls-37" points="223.49 287.84 225.59 289.06 230.33 286.33 228.22 285.11 223.49 287.84"/></g><g class="cls-19"><polygon class="cls-42" points="252.76 274.05 252.76 274.72 254.86 275.94 254.86 275.27 252.76 274.05"/><polygon class="cls-36" points="254.86 275.27 254.86 275.94 259.6 273.2 259.6 272.54 254.86 275.27"/><polygon class="cls-37" points="252.76 274.05 254.86 275.27 259.6 272.54 257.49 271.31 252.76 274.05"/></g><g class="cls-19"><polygon class="cls-42" points="250.1 275.58 250.1 276.25 252.2 277.48 252.2 276.81 250.1 275.58"/><polygon class="cls-36" points="252.2 276.81 252.2 277.48 254.28 276.28 254.28 275.61 252.2 276.81"/><polygon class="cls-37" points="250.1 275.58 252.2 276.81 254.28 275.61 252.17 274.38 250.1 275.58"/></g><g class="cls-19"><polygon class="cls-42" points="247.44 277.12 247.44 277.79 249.55 279.01 249.54 278.34 247.44 277.12"/><polygon class="cls-36" points="249.54 278.34 249.55 279.01 251.62 277.81 251.62 277.14 249.54 278.34"/><polygon class="cls-37" points="247.44 277.12 249.54 278.34 251.62 277.14 249.52 275.92 247.44 277.12"/></g><g class="cls-19"><polygon class="cls-42" points="244.78 278.65 244.78 279.32 246.88 280.55 246.88 279.88 244.78 278.65"/><polygon class="cls-36" points="246.88 279.88 246.88 280.55 248.96 279.35 248.96 278.68 246.88 279.88"/><polygon class="cls-37" points="244.78 278.65 246.88 279.88 248.96 278.68 246.85 277.46 244.78 278.65"/></g><g class="cls-19"><polygon class="cls-42" points="242.12 280.19 242.12 280.86 244.23 282.08 244.23 281.41 242.12 280.19"/><polygon class="cls-36" points="244.23 281.41 244.23 282.08 246.3 280.88 246.3 280.21 244.23 281.41"/><polygon class="cls-37" points="242.12 280.19 244.23 281.41 246.3 280.21 244.2 278.99 242.12 280.19"/></g><g class="cls-19"><polygon class="cls-42" points="239.47 281.72 239.47 282.39 241.57 283.61 241.57 282.94 239.47 281.72"/><polygon class="cls-36" points="241.57 282.94 241.57 283.61 243.65 282.42 243.64 281.75 241.57 282.94"/><polygon class="cls-37" points="239.47 281.72 241.57 282.94 243.64 281.75 241.54 280.52 239.47 281.72"/></g><g class="cls-19"><polygon class="cls-42" points="236.8 283.26 236.8 283.93 238.91 285.15 238.91 284.48 236.8 283.26"/><polygon class="cls-36" points="238.91 284.48 238.91 285.15 240.99 283.95 240.99 283.28 238.91 284.48"/><polygon class="cls-37" points="236.8 283.26 238.91 284.48 240.99 283.28 238.88 282.06 236.8 283.26"/></g><g class="cls-19"><polygon class="cls-42" points="234.15 284.79 234.15 285.46 236.25 286.69 236.25 286.02 234.15 284.79"/><polygon class="cls-36" points="236.25 286.02 236.25 286.69 238.33 285.49 238.32 284.82 236.25 286.02"/><polygon class="cls-37" points="234.15 284.79 236.25 286.02 238.32 284.82 236.22 283.6 234.15 284.79"/></g><g class="cls-19"><polygon class="cls-42" points="231.49 286.33 231.49 287 233.59 288.22 233.59 287.55 231.49 286.33"/><polygon class="cls-36" points="233.59 287.55 233.59 288.22 235.67 287.02 235.67 286.35 233.59 287.55"/><polygon class="cls-37" points="231.49 286.33 233.59 287.55 235.67 286.35 233.56 285.13 231.49 286.33"/></g><g class="cls-19"><polygon class="cls-42" points="228.83 287.87 228.83 288.53 230.93 289.76 230.93 289.09 228.83 287.87"/><polygon class="cls-36" points="230.93 289.09 230.93 289.76 233.01 288.56 233.01 287.89 230.93 289.09"/><polygon class="cls-37" points="228.83 287.87 230.93 289.09 233.01 287.89 230.91 286.66 228.83 287.87"/></g><g class="cls-19"><polygon class="cls-42" points="226.17 289.4 226.17 290.07 228.27 291.29 228.27 290.62 226.17 289.4"/><polygon class="cls-36" points="228.27 290.62 228.27 291.29 230.35 290.09 230.35 289.42 228.27 290.62"/><polygon class="cls-37" points="226.17 289.4 228.27 290.62 230.35 289.42 228.24 288.2 226.17 289.4"/></g><g class="cls-19"><polygon class="cls-42" points="255.44 275.61 255.44 276.28 257.54 277.5 257.54 276.83 255.44 275.61"/><polygon class="cls-36" points="257.54 276.83 257.54 277.5 262.28 274.76 262.28 274.09 257.54 276.83"/><polygon class="cls-37" points="255.44 275.61 257.54 276.83 262.28 274.09 260.18 272.87 255.44 275.61"/></g><g class="cls-19"><polygon class="cls-42" points="252.78 277.14 252.78 277.81 254.89 279.03 254.88 278.36 252.78 277.14"/><polygon class="cls-36" points="254.88 278.36 254.89 279.03 256.96 277.83 256.96 277.17 254.88 278.36"/><polygon class="cls-37" points="252.78 277.14 254.88 278.36 256.96 277.17 254.86 275.94 252.78 277.14"/></g><g class="cls-19"><polygon class="cls-42" points="250.12 278.68 250.13 279.34 252.23 280.57 252.23 279.9 250.12 278.68"/><polygon class="cls-36" points="252.23 279.9 252.23 280.57 254.3 279.37 254.3 278.7 252.23 279.9"/><polygon class="cls-37" points="250.12 278.68 252.23 279.9 254.3 278.7 252.2 277.48 250.12 278.68"/></g><g class="cls-19"><polygon class="cls-42" points="247.46 280.21 247.46 280.88 249.57 282.1 249.56 281.44 247.46 280.21"/><polygon class="cls-36" points="249.56 281.44 249.57 282.1 251.64 280.91 251.64 280.24 249.56 281.44"/><polygon class="cls-37" points="247.46 280.21 249.56 281.44 251.64 280.24 249.54 279.01 247.46 280.21"/></g><g class="cls-19"><polygon class="cls-42" points="244.8 281.75 244.81 282.42 246.91 283.64 246.91 282.97 244.8 281.75"/><polygon class="cls-36" points="246.91 282.97 246.91 283.64 248.98 282.44 248.98 281.77 246.91 282.97"/><polygon class="cls-37" points="244.8 281.75 246.91 282.97 248.98 281.77 246.88 280.55 244.8 281.75"/></g><g class="cls-19"><polygon class="cls-42" points="242.15 283.28 242.15 283.95 244.25 285.17 244.25 284.5 242.15 283.28"/><polygon class="cls-36" points="244.25 284.5 244.25 285.17 246.33 283.97 246.32 283.31 244.25 284.5"/><polygon class="cls-37" points="242.15 283.28 244.25 284.5 246.32 283.31 244.22 282.08 242.15 283.28"/></g><g class="cls-19"><polygon class="cls-42" points="239.48 284.82 239.49 285.49 241.59 286.71 241.59 286.04 239.48 284.82"/><polygon class="cls-36" points="241.59 286.04 241.59 286.71 243.67 285.51 243.67 284.84 241.59 286.04"/><polygon class="cls-37" points="239.48 284.82 241.59 286.04 243.67 284.84 241.56 283.62 239.48 284.82"/></g><g class="cls-19"><polygon class="cls-42" points="236.83 286.35 236.83 287.02 238.93 288.24 238.93 287.57 236.83 286.35"/><polygon class="cls-36" points="238.93 287.57 238.93 288.24 241.01 287.05 241.01 286.38 238.93 287.57"/><polygon class="cls-37" points="236.83 286.35 238.93 287.57 241.01 286.38 238.9 285.15 236.83 286.35"/></g><g class="cls-19"><polygon class="cls-42" points="234.17 287.89 234.17 288.56 236.28 289.78 236.27 289.11 234.17 287.89"/><polygon class="cls-36" points="236.27 289.11 236.28 289.78 238.35 288.58 238.35 287.91 236.27 289.11"/><polygon class="cls-37" points="234.17 287.89 236.27 289.11 238.35 287.91 236.25 286.69 234.17 287.89"/></g><g class="cls-19"><polygon class="cls-42" points="228.85 290.96 228.85 291.63 230.96 292.85 230.95 292.18 228.85 290.96"/><polygon class="cls-36" points="230.95 292.18 230.96 292.85 235.69 290.11 235.69 289.44 230.95 292.18"/><polygon class="cls-37" points="228.85 290.96 230.95 292.18 235.69 289.44 233.59 288.22 228.85 290.96"/></g><g class="cls-19"><polygon class="cls-42" points="255.47 278.7 255.47 279.37 257.57 280.59 257.57 279.93 255.47 278.7"/><polygon class="cls-36" points="257.57 279.93 257.57 280.59 264.97 276.32 264.96 275.66 257.57 279.93"/><polygon class="cls-37" points="255.47 278.7 257.57 279.93 264.96 275.66 262.86 274.43 255.47 278.7"/></g><g class="cls-19"><polygon class="cls-42" points="252.81 280.24 252.81 280.91 254.91 282.13 254.91 281.46 252.81 280.24"/><polygon class="cls-36" points="254.91 281.46 254.91 282.13 256.99 280.93 256.99 280.26 254.91 281.46"/><polygon class="cls-37" points="252.81 280.24 254.91 281.46 256.99 280.26 254.88 279.04 252.81 280.24"/></g><g class="cls-19"><polygon class="cls-42" points="250.15 281.77 250.15 282.44 252.25 283.67 252.25 283 250.15 281.77"/><polygon class="cls-36" points="252.25 283 252.25 283.67 254.33 282.47 254.33 281.8 252.25 283"/><polygon class="cls-37" points="250.15 281.77 252.25 283 254.33 281.8 252.22 280.58 250.15 281.77"/></g><g class="cls-19"><polygon class="cls-42" points="247.49 283.31 247.49 283.98 249.6 285.2 249.59 284.53 247.49 283.31"/><polygon class="cls-36" points="249.59 284.53 249.6 285.2 251.67 284 251.67 283.33 249.59 284.53"/><polygon class="cls-37" points="247.49 283.31 249.59 284.53 251.67 283.33 249.57 282.11 247.49 283.31"/></g><g class="cls-19"><polygon class="cls-42" points="244.83 284.84 244.84 285.51 246.94 286.73 246.94 286.06 244.83 284.84"/><polygon class="cls-36" points="246.94 286.06 246.94 286.73 249.01 285.54 249.01 284.87 246.94 286.06"/><polygon class="cls-37" points="244.83 284.84 246.94 286.06 249.01 284.87 246.91 283.64 244.83 284.84"/></g><g class="cls-19"><polygon class="cls-42" points="242.17 286.38 242.17 287.05 244.28 288.27 244.27 287.6 242.17 286.38"/><polygon class="cls-36" points="244.27 287.6 244.28 288.27 246.36 287.07 246.35 286.4 244.27 287.6"/><polygon class="cls-37" points="242.17 286.38 244.27 287.6 246.35 286.4 244.25 285.18 242.17 286.38"/></g><g class="cls-19"><polygon class="cls-42" points="239.51 287.91 239.52 288.58 241.62 289.81 241.62 289.14 239.51 287.91"/><polygon class="cls-36" points="241.62 289.14 241.62 289.81 243.69 288.61 243.69 287.94 241.62 289.14"/><polygon class="cls-37" points="239.51 287.91 241.62 289.14 243.69 287.94 241.59 286.71 239.51 287.91"/></g><g class="cls-19"><polygon class="cls-42" points="236.86 289.45 236.86 290.12 238.96 291.34 238.96 290.67 236.86 289.45"/><polygon class="cls-36" points="238.96 290.67 238.96 291.34 241.04 290.14 241.03 289.47 238.96 290.67"/><polygon class="cls-37" points="236.86 289.45 238.96 290.67 241.03 289.47 238.93 288.25 236.86 289.45"/></g><g class="cls-19"><polygon class="cls-42" points="231.54 292.52 231.54 293.19 233.64 294.41 233.64 293.74 231.54 292.52"/><polygon class="cls-36" points="233.64 293.74 233.64 294.41 238.38 291.68 238.38 291.01 233.64 293.74"/><polygon class="cls-37" points="231.54 292.52 233.64 293.74 238.38 291.01 236.28 289.78 231.54 292.52"/></g><g class="cls-19"><polygon class="cls-42" points="263.47 277.19 263.47 277.86 265.57 279.08 265.57 278.41 263.47 277.19"/><polygon class="cls-36" points="265.57 278.41 265.57 279.08 267.65 277.88 267.65 277.21 265.57 278.41"/><polygon class="cls-37" points="263.47 277.19 265.57 278.41 267.65 277.21 265.54 275.99 263.47 277.19"/></g><g class="cls-19"><polygon class="cls-42" points="260.81 278.73 260.81 279.4 262.91 280.62 262.91 279.95 260.81 278.73"/><polygon class="cls-36" points="262.91 279.95 262.91 280.62 264.99 279.42 264.98 278.75 262.91 279.95"/><polygon class="cls-37" points="260.81 278.73 262.91 279.95 264.98 278.75 262.88 277.53 260.81 278.73"/></g><g class="cls-19"><polygon class="cls-42" points="258.15 280.26 258.15 280.93 260.25 282.15 260.25 281.48 258.15 280.26"/><polygon class="cls-36" points="260.25 281.48 260.25 282.15 262.33 280.95 262.33 280.29 260.25 281.48"/><polygon class="cls-37" points="258.15 280.26 260.25 281.48 262.33 280.29 260.22 279.06 258.15 280.26"/></g><g class="cls-19"><polygon class="cls-42" points="244.85 287.94 244.85 288.61 246.96 289.83 246.96 289.16 244.85 287.94"/><polygon class="cls-36" points="246.96 289.16 246.96 289.83 259.67 282.49 259.67 281.82 246.96 289.16"/><polygon class="cls-37" points="244.85 287.94 246.96 289.16 259.67 281.82 257.57 280.6 244.85 287.94"/></g><g class="cls-19"><polygon class="cls-42" points="242.19 289.47 242.2 290.14 244.3 291.36 244.3 290.69 242.19 289.47"/><polygon class="cls-36" points="244.3 290.69 244.3 291.36 246.38 290.17 246.37 289.5 244.3 290.69"/><polygon class="cls-37" points="242.19 289.47 244.3 290.69 246.37 289.5 244.27 288.27 242.19 289.47"/></g><g class="cls-19"><polygon class="cls-42" points="239.54 291.01 239.54 291.68 241.64 292.9 241.64 292.23 239.54 291.01"/><polygon class="cls-36" points="241.64 292.23 241.64 292.9 243.72 291.7 243.72 291.03 241.64 292.23"/><polygon class="cls-37" points="239.54 291.01 241.64 292.23 243.72 291.03 241.61 289.81 239.54 291.01"/></g><g class="cls-19"><polygon class="cls-42" points="234.22 294.08 234.22 294.75 236.32 295.97 236.32 295.3 234.22 294.08"/><polygon class="cls-36" points="236.32 295.3 236.32 295.97 241.06 293.23 241.06 292.56 236.32 295.3"/><polygon class="cls-37" points="234.22 294.08 236.32 295.3 241.06 292.56 238.96 291.34 234.22 294.08"/></g><polygon class="cls-40" points="242.34 234.06 242.37 244.62 251.56 239.32 251.53 228.76 242.34 234.06"/><g class="cls-19"><polygon class="cls-37" points="233.56 243.1 233.56 243.52 240.23 239.67 240.23 239.25 233.56 243.1"/><polygon class="cls-37" points="233.56 241.78 233.56 242.2 240.23 238.35 240.22 237.93 233.56 241.78"/><polygon class="cls-37" points="233.56 240.46 233.56 240.88 240.22 237.03 240.22 236.61 233.56 240.46"/><polygon class="cls-37" points="233.55 239.14 233.55 239.56 240.22 235.71 240.22 235.29 233.55 239.14"/></g><polygon class="cls-37" points="233.57 245.75 233.57 246.17 240.24 242.32 240.24 241.9 233.57 245.75"/><polygon class="cls-37" points="233.57 244.42 233.57 244.84 240.23 241 240.23 240.57 233.57 244.42"/><polygon class="cls-37" points="235.26 246.09 235.26 246.51 240.24 243.64 240.24 243.22 235.26 246.09"/><g class="cls-19"><path class="cls-35" d="M325.26,253.68a.69.69,0,0,0-.32.55c0,.2.15.28.32.18a.69.69,0,0,0,.32-.55C325.58,253.66,325.44,253.58,325.26,253.68Z" transform="translate(-75.02 -28.46)"/><path class="cls-37" d="M328.16,251.43c.33-.2.61,0,.61.35v2.87a.34.34,0,0,0-.56-.32l-21.17,12.22a1.25,1.25,0,0,0-.55,1v-2.87a1.32,1.32,0,0,1,.61-1.05Zm-1.62,2.24a.69.69,0,0,0,.32-.55c0-.2-.14-.28-.32-.18a.71.71,0,0,0-.31.55c0,.2.14.28.31.18m-1.28.74a.69.69,0,0,0,.32-.55c0-.2-.14-.28-.32-.18a.69.69,0,0,0-.32.55c0,.2.15.28.32.18m2.57-1.48a.69.69,0,0,0,.32-.55c0-.2-.15-.28-.32-.18a.69.69,0,0,0-.32.55c0,.2.14.28.32.18" transform="translate(-75.02 -28.46)"/><path class="cls-23" d="M328.22,254.33a.34.34,0,0,1,.56.32l0,13.83a1.23,1.23,0,0,1-.56,1L307.1,281.66c-.31.18-.56,0-.56-.32l0-13.83a1.25,1.25,0,0,1,.55-1Zm-10.83,18.76,9.19-5.31,0-10.56-9.19,5.3,0,10.57m-8.8.22,6.67-3.85V269l-6.67,3.84v.43m0-4,6.67-3.85v-.42l-6.67,3.85v.42m0,1.32,6.66-3.85v-.42l-6.67,3.85v.42m0-2.64,6.66-3.85v-.42l-6.66,3.85V268m0,6.61,6.66-3.85v-.42l-6.66,3.85v.42m0-2.65,6.66-3.85v-.41l-6.66,3.84V272m1.7,3,5-2.87v-.42l-5,2.87V275" transform="translate(-75.02 -28.46)"/></g><path class="cls-27" d="M327.83,252.2a.69.69,0,0,0-.32.55c0,.2.14.28.32.18a.69.69,0,0,0,.32-.55C328.15,252.18,328,252.1,327.83,252.2Z" transform="translate(-75.02 -28.46)"/><path class="cls-40" d="M326.54,252.94a.71.71,0,0,0-.31.55c0,.2.14.28.31.18a.69.69,0,0,0,.32-.55C326.86,252.92,326.72,252.84,326.54,252.94Z" transform="translate(-75.02 -28.46)"/><path class="cls-36" d="M362.06,296.63c0,.09-.05.16-.11.22s-4.3,2.45-4.3,2.45l-.72-.47c1.19-.67,3.65-2,5.08-2.81A4.07,4.07,0,0,1,362.06,296.63Z" transform="translate(-75.02 -28.46)"/><path class="cls-43" d="M362,296c-1.43.79-3.89,2.14-5.08,2.81l-8.78-5.59,2.28-1.28c1.44-.8,3-1.86,4.65-2.06A6.9,6.9,0,0,1,362,296Z" transform="translate(-75.02 -28.46)"/><path class="cls-42" d="M357.38,299.29a.29.29,0,0,0,.44-.27,6.09,6.09,0,0,0-3.54-5.51c-1-.58-4.1-1.81-6.34-.14a.31.31,0,0,0,0,.5C351.36,295.87,355.93,298.47,357.38,299.29Z" transform="translate(-75.02 -28.46)"/><path class="cls-36" d="M235.08,233.58l-1.49.87a1,1,0,0,0,.43-1l1.5-.87A1.06,1.06,0,0,1,235.08,233.58Z" transform="translate(-75.02 -28.46)"/><path class="cls-36" d="M191.16,173.66l1.49-.87a1.06,1.06,0,0,1,1.07.11l-1.49.86A1.06,1.06,0,0,0,191.16,173.66Z" transform="translate(-75.02 -28.46)"/><polygon class="cls-36" points="159.08 171.21 160.57 170.34 160.49 204.16 159 205.03 159.08 171.21"/><polygon class="cls-36" points="117.2 145.3 118.69 144.44 159.08 167.75 157.59 168.62 117.2 145.3"/><path class="cls-36" d="M232.61,197.08l1.49-.87a3.31,3.31,0,0,1,1.5,2.59l-1.49.87A3.29,3.29,0,0,0,232.61,197.08Z" transform="translate(-75.02 -28.46)"/><path class="cls-41" d="M232.61,197.08a3.29,3.29,0,0,1,1.5,2.59L234,233.49c0,.95-.68,1.33-1.5.86L192.13,211a3.28,3.28,0,0,1-1.49-2.59l.08-33.82c0-1,.68-1.34,1.51-.86Z" transform="translate(-75.02 -28.46)"/><polygon class="cls-39" points="117.19 148.7 117.12 179.17 157.5 202.48 157.58 172.02 117.19 148.7"/><path class="cls-44" d="M233.14,235.22v1.72a1.05,1.05,0,0,1-.62.86v-1.72A1,1,0,0,0,233.14,235.22Z" transform="translate(-75.02 -28.46)"/><path class="cls-44" d="M203.58,252.86v1.72a3.28,3.28,0,0,1-3,0v-1.72A3.35,3.35,0,0,0,203.58,252.86Z" transform="translate(-75.02 -28.46)"/><path class="cls-44" d="M159.58,230.4v-1.73a1.05,1.05,0,0,0,.63.87v1.73A1.05,1.05,0,0,1,159.58,230.4Z" transform="translate(-75.02 -28.46)"/><polygon class="cls-44" points="157.5 207.62 157.5 209.34 128.55 226.12 128.56 224.4 157.5 207.62"/><polygon class="cls-44" points="125.57 224.4 125.56 226.12 85.18 202.81 85.18 201.08 125.57 224.4"/><path class="cls-36" d="M232.52,234.35a.92.92,0,0,1,0,1.73l-28.95,16.78a3.35,3.35,0,0,1-3,0l-40.38-23.32a.91.91,0,0,1,0-1.73L189.14,211a3.28,3.28,0,0,1,3,0Z" transform="translate(-75.02 -28.46)"/><g class="cls-19"><path class="cls-37" d="M199.76,238.72l-14.89-8.6a1.66,1.66,0,0,0-1.49,0l-7.69,4.43a.46.46,0,0,0,0,.87L190.58,244a1.63,1.63,0,0,0,1.49,0l7.69-4.43c.42-.24.42-.62,0-.86" transform="translate(-75.02 -28.46)"/></g><g class="cls-19"><polygon class="cls-41" points="117.55 185.2 117.55 185.63 114.83 187.22 114.83 186.78 117.55 185.2"/><polygon class="cls-41" points="114.83 186.78 114.83 187.22 112.16 185.67 112.16 185.24 114.83 186.78"/><polygon class="cls-18" points="117.55 185.2 114.83 186.78 112.16 185.24 114.88 183.66 117.55 185.2"/></g><g class="cls-19"><polygon class="cls-41" points="120.99 187.19 120.98 187.62 118.27 189.2 118.27 188.76 120.99 187.19"/><polygon class="cls-41" points="118.27 188.76 118.27 189.2 115.58 187.65 115.58 187.22 118.27 188.76"/><polygon class="cls-18" points="120.99 187.19 118.27 188.76 115.58 187.22 118.3 185.64 120.99 187.19"/></g><g class="cls-19"><polygon class="cls-41" points="124.41 189.16 124.41 189.59 121.69 191.17 121.69 190.74 124.41 189.16"/><polygon class="cls-41" points="121.69 190.74 121.69 191.17 119.02 189.63 119.02 189.2 121.69 190.74"/><polygon class="cls-18" points="124.41 189.16 121.69 190.74 119.02 189.2 121.74 187.62 124.41 189.16"/></g><g class="cls-19"><polygon class="cls-41" points="127.84 191.14 127.84 191.57 125.12 193.15 125.12 192.72 127.84 191.14"/><polygon class="cls-41" points="125.12 192.72 125.12 193.15 122.44 191.61 122.44 191.18 125.12 192.72"/><polygon class="cls-18" points="127.84 191.14 125.12 192.72 122.44 191.18 125.16 189.6 127.84 191.14"/></g><g class="cls-19"><polygon class="cls-41" points="131.26 193.12 131.26 193.55 128.54 195.13 128.54 194.7 131.26 193.12"/><polygon class="cls-41" points="128.54 194.7 128.54 195.13 125.87 193.59 125.87 193.15 128.54 194.7"/><polygon class="cls-18" points="131.26 193.12 128.54 194.7 125.87 193.15 128.59 191.57 131.26 193.12"/></g><g class="cls-19"><polygon class="cls-41" points="134.69 195.1 134.69 195.53 131.97 197.11 131.98 196.68 134.69 195.1"/><polygon class="cls-41" points="131.98 196.68 131.97 197.11 129.3 195.57 129.3 195.13 131.98 196.68"/><polygon class="cls-18" points="134.69 195.1 131.98 196.68 129.3 195.13 132.02 193.56 134.69 195.1"/></g><g class="cls-19"><polygon class="cls-41" points="138.12 197.08 138.12 197.51 135.4 199.09 135.4 198.66 138.12 197.08"/><polygon class="cls-41" points="135.4 198.66 135.4 199.09 132.72 197.54 132.73 197.11 135.4 198.66"/><polygon class="cls-18" points="138.12 197.08 135.4 198.66 132.73 197.11 135.44 195.53 138.12 197.08"/></g><g class="cls-19"><polygon class="cls-41" points="141.55 199.06 141.54 199.49 138.83 201.07 138.83 200.64 141.55 199.06"/><polygon class="cls-41" points="138.83 200.64 138.83 201.07 136.15 199.52 136.15 199.09 138.83 200.64"/><polygon class="cls-18" points="141.55 199.06 138.83 200.64 136.15 199.09 138.87 197.51 141.55 199.06"/></g><g class="cls-19"><polygon class="cls-41" points="144.98 201.04 144.98 201.47 142.26 203.05 142.26 202.62 144.98 201.04"/><polygon class="cls-41" points="142.26 202.62 142.26 203.05 139.58 201.5 139.58 201.07 142.26 202.62"/><polygon class="cls-18" points="144.98 201.04 142.26 202.62 139.58 201.07 142.3 199.49 144.98 201.04"/></g><g class="cls-19"><polygon class="cls-41" points="148.41 203.01 148.4 203.45 145.69 205.03 145.69 204.59 148.41 203.01"/><polygon class="cls-41" points="145.69 204.59 145.69 205.03 143.01 203.48 143.01 203.05 145.69 204.59"/><polygon class="cls-18" points="148.41 203.01 145.69 204.59 143.01 203.05 145.73 201.47 148.41 203.01"/></g><g class="cls-19"><polygon class="cls-41" points="155.26 206.97 155.26 207.41 152.54 208.99 152.54 208.56 155.26 206.97"/><polygon class="cls-41" points="152.54 208.56 152.54 208.99 146.44 205.46 146.44 205.03 152.54 208.56"/><polygon class="cls-18" points="155.26 206.97 152.54 208.56 146.44 205.03 149.15 203.45 155.26 206.97"/></g><g class="cls-19"><polygon class="cls-41" points="117.52 189.2 117.52 189.63 114.81 191.21 114.81 190.77 117.52 189.2"/><polygon class="cls-41" points="114.81 190.77 114.81 191.21 108.7 187.68 108.7 187.25 114.81 190.77"/><polygon class="cls-18" points="117.52 189.2 114.81 190.77 108.7 187.25 111.41 185.67 117.52 189.2"/></g><g class="cls-19"><polygon class="cls-41" points="120.95 191.18 120.95 191.61 118.23 193.18 118.24 192.75 120.95 191.18"/><polygon class="cls-41" points="118.24 192.75 118.23 193.18 115.56 191.64 115.56 191.21 118.24 192.75"/><polygon class="cls-18" points="120.95 191.18 118.24 192.75 115.56 191.21 118.27 189.63 120.95 191.18"/></g><g class="cls-19"><polygon class="cls-41" points="124.37 193.15 124.37 193.59 121.66 195.16 121.66 194.73 124.37 193.15"/><polygon class="cls-41" points="121.66 194.73 121.66 195.16 118.98 193.62 118.99 193.19 121.66 194.73"/><polygon class="cls-18" points="124.37 193.15 121.66 194.73 118.99 193.19 121.7 191.61 124.37 193.15"/></g><g class="cls-19"><polygon class="cls-41" points="127.8 195.13 127.8 195.56 125.09 197.14 125.09 196.71 127.8 195.13"/><polygon class="cls-41" points="125.09 196.71 125.09 197.14 122.41 195.59 122.41 195.16 125.09 196.71"/><polygon class="cls-18" points="127.8 195.13 125.09 196.71 122.41 195.16 125.12 193.59 127.8 195.13"/></g><g class="cls-19"><polygon class="cls-41" points="131.23 197.11 131.23 197.54 128.52 199.12 128.52 198.69 131.23 197.11"/><polygon class="cls-41" points="128.52 198.69 128.52 199.12 125.84 197.58 125.84 197.14 128.52 198.69"/><polygon class="cls-18" points="131.23 197.11 128.52 198.69 125.84 197.14 128.56 195.57 131.23 197.11"/></g><g class="cls-19"><polygon class="cls-41" points="134.66 199.09 134.66 199.52 131.94 201.1 131.94 200.67 134.66 199.09"/><polygon class="cls-41" points="131.94 200.67 131.94 201.1 129.27 199.55 129.27 199.12 131.94 200.67"/><polygon class="cls-18" points="134.66 199.09 131.94 200.67 129.27 199.12 131.98 197.55 134.66 199.09"/></g><g class="cls-19"><polygon class="cls-41" points="138.08 201.07 138.08 201.5 135.37 203.08 135.37 202.65 138.08 201.07"/><polygon class="cls-41" points="135.37 202.65 135.37 203.08 132.69 201.53 132.69 201.1 135.37 202.65"/><polygon class="cls-18" points="138.08 201.07 135.37 202.65 132.69 201.1 135.41 199.52 138.08 201.07"/></g><g class="cls-19"><polygon class="cls-41" points="141.51 203.05 141.51 203.48 138.8 205.06 138.8 204.63 141.51 203.05"/><polygon class="cls-41" points="138.8 204.63 138.8 205.06 136.12 203.51 136.12 203.08 138.8 204.63"/><polygon class="cls-18" points="141.51 203.05 138.8 204.63 136.12 203.08 138.83 201.5 141.51 203.05"/></g><g class="cls-19"><polygon class="cls-41" points="144.94 205.03 144.94 205.46 142.23 207.04 142.23 206.6 144.94 205.03"/><polygon class="cls-41" points="142.23 206.6 142.23 207.04 139.55 205.49 139.55 205.06 142.23 206.6"/><polygon class="cls-18" points="144.94 205.03 142.23 206.6 139.55 205.06 142.26 203.48 144.94 205.03"/></g><g class="cls-19"><polygon class="cls-41" points="148.37 207.01 148.37 207.44 145.65 209.01 145.65 208.58 148.37 207.01"/><polygon class="cls-41" points="145.65 208.58 145.65 209.01 142.98 207.47 142.98 207.04 145.65 208.58"/><polygon class="cls-18" points="148.37 207.01 145.65 208.58 142.98 207.04 145.69 205.46 148.37 207.01"/></g><g class="cls-19"><polygon class="cls-41" points="151.8 208.99 151.8 209.42 149.09 211 149.09 210.56 151.8 208.99"/><polygon class="cls-41" points="149.09 210.56 149.09 211 146.4 209.45 146.4 209.01 149.09 210.56"/><polygon class="cls-18" points="151.8 208.99 149.09 210.56 146.4 209.01 149.12 207.44 151.8 208.99"/></g><g class="cls-19"><polygon class="cls-41" points="114.06 191.21 114.06 191.64 111.35 193.22 111.35 192.78 114.06 191.21"/><polygon class="cls-41" points="111.35 192.78 111.35 193.22 105.24 189.69 105.25 189.26 111.35 192.78"/><polygon class="cls-18" points="114.06 191.21 111.35 192.78 105.25 189.26 107.96 187.68 114.06 191.21"/></g><g class="cls-19"><polygon class="cls-41" points="117.49 193.19 117.49 193.62 114.78 195.19 114.78 194.76 117.49 193.19"/><polygon class="cls-41" points="114.78 194.76 114.78 195.19 112.1 193.65 112.1 193.22 114.78 194.76"/><polygon class="cls-18" points="117.49 193.19 114.78 194.76 112.1 193.22 114.81 191.64 117.49 193.19"/></g><g class="cls-19"><polygon class="cls-41" points="120.92 195.16 120.92 195.59 118.2 197.17 118.2 196.74 120.92 195.16"/><polygon class="cls-41" points="118.2 196.74 118.2 197.17 115.53 195.63 115.53 195.19 118.2 196.74"/><polygon class="cls-18" points="120.92 195.16 118.2 196.74 115.53 195.19 118.24 193.62 120.92 195.16"/></g><g class="cls-19"><polygon class="cls-41" points="124.34 197.14 124.34 197.57 121.63 199.15 121.63 198.72 124.34 197.14"/><polygon class="cls-41" points="121.63 198.72 121.63 199.15 118.95 197.6 118.95 197.17 121.63 198.72"/><polygon class="cls-18" points="124.34 197.14 121.63 198.72 118.95 197.17 121.67 195.6 124.34 197.14"/></g><g class="cls-19"><polygon class="cls-41" points="127.77 199.12 127.77 199.55 125.06 201.13 125.06 200.7 127.77 199.12"/><polygon class="cls-41" points="125.06 200.7 125.06 201.13 122.39 199.59 122.39 199.15 125.06 200.7"/><polygon class="cls-18" points="127.77 199.12 125.06 200.7 122.39 199.15 125.1 197.58 127.77 199.12"/></g><g class="cls-19"><polygon class="cls-41" points="131.2 201.1 131.2 201.53 128.49 203.11 128.49 202.68 131.2 201.1"/><polygon class="cls-41" points="128.49 202.68 128.49 203.11 125.81 201.56 125.81 201.13 128.49 202.68"/><polygon class="cls-18" points="131.2 201.1 128.49 202.68 125.81 201.13 128.52 199.56 131.2 201.1"/></g><g class="cls-19"><polygon class="cls-41" points="134.63 203.08 134.62 203.51 131.91 205.09 131.91 204.65 134.63 203.08"/><polygon class="cls-41" points="131.91 204.65 131.91 205.09 129.24 203.54 129.24 203.11 131.91 204.65"/><polygon class="cls-18" points="134.63 203.08 131.91 204.65 129.24 203.11 131.95 201.53 134.63 203.08"/></g><g class="cls-19"><polygon class="cls-41" points="138.06 205.06 138.06 205.49 135.34 207.07 135.35 206.64 138.06 205.06"/><polygon class="cls-41" points="135.35 206.64 135.34 207.07 132.66 205.52 132.66 205.09 135.35 206.64"/><polygon class="cls-18" points="138.06 205.06 135.35 206.64 132.66 205.09 135.38 203.51 138.06 205.06"/></g><g class="cls-19"><polygon class="cls-41" points="141.48 207.04 141.48 207.47 138.77 209.04 138.77 208.61 141.48 207.04"/><polygon class="cls-41" points="138.77 208.61 138.77 209.04 136.09 207.5 136.1 207.07 138.77 208.61"/><polygon class="cls-18" points="141.48 207.04 138.77 208.61 136.1 207.07 138.81 205.49 141.48 207.04"/></g><g class="cls-19"><polygon class="cls-41" points="148.34 211 148.34 211.43 145.63 213 145.63 212.57 148.34 211"/><polygon class="cls-41" points="145.63 212.57 145.63 213 139.52 209.48 139.52 209.05 145.63 212.57"/><polygon class="cls-18" points="148.34 211 145.63 212.57 139.52 209.05 142.23 207.47 148.34 211"/></g><g class="cls-19"><polygon class="cls-41" points="114.03 195.19 114.03 195.63 111.32 197.2 111.32 196.77 114.03 195.19"/><polygon class="cls-41" points="111.32 196.77 111.32 197.2 101.79 191.7 101.79 191.27 111.32 196.77"/><polygon class="cls-18" points="114.03 195.19 111.32 196.77 101.79 191.27 104.5 189.69 114.03 195.19"/></g><g class="cls-19"><polygon class="cls-41" points="117.46 197.17 117.46 197.6 114.75 199.18 114.75 198.75 117.46 197.17"/><polygon class="cls-41" points="114.75 198.75 114.75 199.18 112.07 197.63 112.07 197.2 114.75 198.75"/><polygon class="cls-18" points="117.46 197.17 114.75 198.75 112.07 197.2 114.78 195.63 117.46 197.17"/></g><g class="cls-19"><polygon class="cls-41" points="120.89 199.15 120.88 199.58 118.17 201.16 118.17 200.73 120.89 199.15"/><polygon class="cls-41" points="118.17 200.73 118.17 201.16 115.5 199.61 115.5 199.18 118.17 200.73"/><polygon class="cls-18" points="120.89 199.15 118.17 200.73 115.5 199.18 118.21 197.6 120.89 199.15"/></g><g class="cls-19"><polygon class="cls-41" points="124.32 201.13 124.32 201.56 121.6 203.14 121.61 202.71 124.32 201.13"/><polygon class="cls-41" points="121.61 202.71 121.6 203.14 118.93 201.59 118.93 201.16 121.61 202.71"/><polygon class="cls-18" points="124.32 201.13 121.61 202.71 118.93 201.16 121.64 199.59 124.32 201.13"/></g><g class="cls-19"><polygon class="cls-41" points="127.74 203.11 127.74 203.54 125.03 205.12 125.03 204.69 127.74 203.11"/><polygon class="cls-41" points="125.03 204.69 125.03 205.12 122.35 203.57 122.36 203.14 125.03 204.69"/><polygon class="cls-18" points="127.74 203.11 125.03 204.69 122.36 203.14 125.07 201.56 127.74 203.11"/></g><g class="cls-19"><polygon class="cls-41" points="131.17 205.09 131.17 205.52 128.46 207.09 128.46 206.66 131.17 205.09"/><polygon class="cls-41" points="128.46 206.66 128.46 207.09 125.78 205.55 125.78 205.12 128.46 206.66"/><polygon class="cls-18" points="131.17 205.09 128.46 206.66 125.78 205.12 128.49 203.54 131.17 205.09"/></g><g class="cls-19"><polygon class="cls-41" points="134.6 207.07 134.6 207.5 131.89 209.08 131.89 208.65 134.6 207.07"/><polygon class="cls-41" points="131.89 208.65 131.89 209.08 129.21 207.53 129.21 207.1 131.89 208.65"/><polygon class="cls-18" points="134.6 207.07 131.89 208.65 129.21 207.1 131.92 205.52 134.6 207.07"/></g><g class="cls-19"><polygon class="cls-41" points="138.03 209.05 138.03 209.48 135.31 211.05 135.31 210.62 138.03 209.05"/><polygon class="cls-41" points="135.31 210.62 135.31 211.05 132.64 209.51 132.64 209.08 135.31 210.62"/><polygon class="cls-18" points="138.03 209.05 135.31 210.62 132.64 209.08 135.35 207.5 138.03 209.05"/></g><g class="cls-19"><polygon class="cls-41" points="144.88 213.01 144.88 213.44 142.17 215.01 142.17 214.58 144.88 213.01"/><polygon class="cls-41" points="142.17 214.58 142.17 215.01 136.06 211.49 136.06 211.06 142.17 214.58"/><polygon class="cls-18" points="144.88 213.01 142.17 214.58 136.06 211.06 138.78 209.48 144.88 213.01"/></g><g class="cls-19"><polygon class="cls-41" points="103.72 193.24 103.72 193.68 101 195.25 101 194.82 103.72 193.24"/><polygon class="cls-41" points="101 194.82 101 195.25 98.32 193.71 98.32 193.28 101 194.82"/><polygon class="cls-18" points="103.72 193.24 101 194.82 98.32 193.28 101.04 191.7 103.72 193.24"/></g><g class="cls-19"><polygon class="cls-41" points="107.15 195.22 107.15 195.66 104.43 197.24 104.43 196.81 107.15 195.22"/><polygon class="cls-41" points="104.43 196.81 104.43 197.24 101.75 195.69 101.75 195.26 104.43 196.81"/><polygon class="cls-18" points="107.15 195.22 104.43 196.81 101.75 195.26 104.47 193.68 107.15 195.22"/></g><g class="cls-19"><polygon class="cls-41" points="110.58 197.2 110.58 197.63 107.86 199.21 107.86 198.78 110.58 197.2"/><polygon class="cls-41" points="107.86 198.78 107.86 199.21 105.18 197.67 105.18 197.24 107.86 198.78"/><polygon class="cls-18" points="110.58 197.2 107.86 198.78 105.18 197.24 107.9 195.66 110.58 197.2"/></g><g class="cls-19"><polygon class="cls-41" points="127.71 207.1 127.71 207.53 124.99 209.11 124.99 208.68 127.71 207.1"/><polygon class="cls-41" points="124.99 208.68 124.99 209.11 108.61 199.65 108.61 199.22 124.99 208.68"/><polygon class="cls-18" points="127.71 207.1 124.99 208.68 108.61 199.22 111.33 197.64 127.71 207.1"/></g><g class="cls-19"><polygon class="cls-41" points="131.14 209.08 131.14 209.51 128.42 211.09 128.43 210.66 131.14 209.08"/><polygon class="cls-41" points="128.43 210.66 128.42 211.09 125.74 209.54 125.74 209.11 128.43 210.66"/><polygon class="cls-18" points="131.14 209.08 128.43 210.66 125.74 209.11 128.46 207.53 131.14 209.08"/></g><g class="cls-19"><polygon class="cls-41" points="134.57 211.06 134.57 211.49 131.85 213.07 131.85 212.63 134.57 211.06"/><polygon class="cls-41" points="131.85 212.63 131.85 213.07 129.17 211.52 129.18 211.09 131.85 212.63"/><polygon class="cls-18" points="134.57 211.06 131.85 212.63 129.18 211.09 131.89 209.51 134.57 211.06"/></g><g class="cls-19"><polygon class="cls-41" points="141.43 215.01 141.43 215.45 138.71 217.03 138.71 216.59 141.43 215.01"/><polygon class="cls-41" points="138.71 216.59 138.71 217.03 132.6 213.5 132.6 213.07 138.71 216.59"/><polygon class="cls-18" points="141.43 215.01 138.71 216.59 132.6 213.07 135.32 211.49 141.43 215.01"/></g><polygon class="cls-23" points="121.86 177.82 153.12 195.87 153.12 173.36 153.12 173.36 121.86 155.32 121.86 177.82"/><polygon class="cls-39" points="151.01 175.5 139.84 169.05 139.84 184.74 151.01 191.19 151.01 175.5"/><polygon class="cls-18" points="124.97 161.39 137.49 168.62 137.49 167.7 124.97 160.47 124.97 161.39"/><polygon class="cls-18" points="124.97 163.51 137.49 170.74 137.49 169.82 124.97 162.59 124.97 163.51"/><polygon class="cls-18" points="124.97 165.64 137.49 172.87 137.49 171.94 124.97 164.72 124.97 165.64"/><polygon class="cls-18" points="124.97 167.76 137.49 174.99 137.49 174.07 124.97 166.84 124.97 167.76"/><polygon class="cls-18" points="124.97 169.88 137.49 177.12 137.49 176.19 124.97 168.97 124.97 169.88"/><polygon class="cls-18" points="124.97 172.01 137.49 179.24 137.49 178.32 124.97 171.09 124.97 172.01"/><polygon class="cls-18" points="124.97 176.26 133.69 181.29 133.69 180.37 124.97 175.34 124.97 176.26"/><polygon class="cls-18" points="124.97 174.13 137.49 181.36 137.49 180.44 124.97 173.21 124.97 174.13"/><polygon class="cls-35" points="144.49 173.15 141.19 177.84 147.79 181.65 144.49 173.15"/><polygon class="cls-40" points="147.13 176.05 143.83 180.75 150.43 184.56 147.13 176.05"/><path class="cls-27" d="M224.73,214.14c0,1.65-1.15,2.31-2.58,1.49a5.69,5.69,0,0,1-2.57-4.46c0-1.64,1.15-2.3,2.57-1.48A5.66,5.66,0,0,1,224.73,214.14Z" transform="translate(-75.02 -28.46)"/><polygon class="cls-45" points="265.01 123.37 268.38 127.24 270.05 124.36 265.01 123.37"/><polygon class="cls-40" points="265.01 123.37 265.93 124.43 266.39 123.64 265.01 123.37"/><path class="cls-40" d="M345.07,152.82a.82.82,0,0,0-.84.08,2.58,2.58,0,0,0-1.17,2,.81.81,0,0,0,.34.75L368.06,170a.84.84,0,0,1-.34-.76,2.61,2.61,0,0,1,1.17-2,.86.86,0,0,1,.85-.08Z" transform="translate(-75.02 -28.46)"/><path class="cls-46" d="M368.89,167.23c.66-.37,1.19-.07,1.19.68a2.62,2.62,0,0,1-1.18,2c-.65.37-1.18.07-1.18-.68A2.61,2.61,0,0,1,368.89,167.23Z" transform="translate(-75.02 -28.46)"/><polygon class="cls-45" points="276.76 125.39 280.13 129.26 281.8 126.38 276.76 125.39"/><polygon class="cls-27" points="276.76 125.39 277.69 126.45 278.14 125.66 276.76 125.39"/><path class="cls-27" d="M356.82,154.84a.84.84,0,0,0-.84.08,2.61,2.61,0,0,0-1.17,2,.83.83,0,0,0,.34.76L371.07,167a.8.8,0,0,1-.35-.76,2.62,2.62,0,0,1,1.18-2,.87.87,0,0,1,.84-.08Z" transform="translate(-75.02 -28.46)"/><path class="cls-25" d="M371.9,164.18c.65-.37,1.18-.07,1.18.68a2.58,2.58,0,0,1-1.17,2c-.66.37-1.19.07-1.19-.68A2.62,2.62,0,0,1,371.9,164.18Z" transform="translate(-75.02 -28.46)"/><path class="cls-46" d="M336,159.27a.43.43,0,0,1-.25-.35V162a.45.45,0,0,0,.26.35l3.47,2v-3.09Z" transform="translate(-75.02 -28.46)"/><polygon class="cls-47" points="269.1 130.13 269.09 133.22 264.46 135.91 264.46 132.82 269.1 130.13"/><path class="cls-40" d="M344.12,158.59l-4.63,2.69-3.48-2a.36.36,0,0,1,0-.69l3.44-2a1.33,1.33,0,0,1,1.2,0Z" transform="translate(-75.02 -28.46)"/><polygon class="cls-43" points="271.52 131.53 271.51 134.62 266.88 137.31 266.89 134.22 271.52 131.53"/><polygon class="cls-48" points="266.89 134.22 266.88 137.31 264.46 135.91 264.46 132.82 266.89 134.22"/><polygon class="cls-45" points="271.52 131.53 266.89 134.22 264.46 132.82 269.1 130.13 271.52 131.53"/><path class="cls-25" d="M350,162.69l-3.45,2a1.31,1.31,0,0,1-1.19,0l-3.48-2v3.09l3.48,2a1.31,1.31,0,0,0,1.19,0l3.45-2a.43.43,0,0,0,.24-.34v-3.1A.43.43,0,0,1,350,162.69Z" transform="translate(-75.02 -28.46)"/><path class="cls-27" d="M350,162a.37.37,0,0,1,0,.7l-3.45,2a1.31,1.31,0,0,1-1.19,0l-3.48-2,4.63-2.69Z" transform="translate(-75.02 -28.46)"/><path class="cls-45" d="M303.41,133,253.94,161.6c-1.14.66-1,1.81.33,2.57l28.64,16.54a5,5,0,0,0,4.46.19l49.47-28.56c1.14-.66,1-1.81-.32-2.58l-28.65-16.54A5,5,0,0,0,303.41,133Z" transform="translate(-75.02 -28.46)"/><polygon class="cls-49" points="232.73 113.82 235.98 111.95 254.91 122.88 251.66 124.75 232.73 113.82"/><polygon class="cls-49" points="225.77 117.84 229.02 115.96 247.95 126.9 244.71 128.77 225.77 117.84"/><polygon class="cls-49" points="218.81 121.86 222.06 119.98 241 130.91 237.75 132.79 218.81 121.86"/><polygon class="cls-49" points="211.85 125.87 215.1 124 234.04 134.93 230.79 136.81 211.85 125.87"/><polygon class="cls-49" points="204.9 129.89 208.14 128.02 227.08 138.95 223.83 140.82 204.9 129.89"/><polygon class="cls-50" points="232.73 113.82 235.98 111.95 240.71 114.68 237.46 116.55 232.73 113.82"/><polygon class="cls-35" points="225.77 117.84 229.02 115.96 240.05 122.34 236.81 124.21 225.77 117.84"/><polygon class="cls-40" points="218.81 121.86 222.06 119.98 230.11 124.63 226.86 126.51 218.81 121.86"/><polygon class="cls-18" points="211.85 125.87 215.1 124 228.76 131.89 225.51 133.76 211.85 125.87"/><polygon class="cls-27" points="204.9 129.89 208.14 128.02 224.25 137.31 221 139.19 204.9 129.89"/><polygon class="cls-49" points="219.32 141.85 208.79 147.93 210.16 148.72 220.68 142.64 219.32 141.85"/><polygon class="cls-49" points="216.16 140.03 205.63 146.11 207 146.9 217.53 140.82 216.16 140.03"/><polygon class="cls-49" points="213 138.21 202.48 144.28 203.84 145.07 214.37 139 213 138.21"/><polygon class="cls-49" points="209.85 136.39 199.32 142.46 200.69 143.25 211.22 137.18 209.85 136.39"/><polygon class="cls-49" points="206.69 134.56 196.17 140.64 197.53 141.43 208.06 135.35 206.69 134.56"/><polygon class="cls-49" points="203.54 132.74 193.01 138.82 194.38 139.61 204.9 133.53 203.54 132.74"/><polygon class="cls-49" points="197.22 129.1 189.9 133.33 191.26 134.12 198.59 129.89 197.22 129.1"/><polygon class="cls-49" points="200.38 130.92 189.85 137 191.22 137.79 201.75 131.71 200.38 130.92"/><polygon class="cls-49" points="232.67 110.04 201.59 127.98 202.95 128.77 234.03 110.83 232.67 110.04"/><polygon class="cls-35" points="231.1 148.81 253.24 136.04 265.83 143.31 243.7 156.09 231.1 148.81"/><polygon class="cls-32" points="243.7 156.09 246.15 144.72 265.83 143.31 243.7 156.09"/><polygon class="cls-33" points="253.24 136.04 250.73 147.37 231.1 148.81 253.24 136.04"/><polygon class="cls-45" points="353.5 165.71 391.74 187.78 343.46 215.66 305.22 193.58 353.5 165.71"/><polygon class="cls-38" points="343.15 193.76 343.15 193.76 343.15 193.76 343.15 193.76"/><polygon class="cls-27" points="343.15 193.76 343.15 193.76 343.15 193.76 343.15 193.76"/><path class="cls-27" d="M418.17,222.22l-5.28-8.4a19.05,19.05,0,0,0-5.69,2.07Z" transform="translate(-75.02 -28.46)"/><path class="cls-46" d="M418.17,222.22l11-6.33c-4.37-2.52-10.77-3.21-16.26-2.07Z" transform="translate(-75.02 -28.46)"/><path class="cls-27" d="M407.2,228.56l11-6.34-15.39-1.14C402.17,223.83,403.8,226.6,407.2,228.56Z" transform="translate(-75.02 -28.46)"/><path class="cls-40" d="M423.45,230.63a19.39,19.39,0,0,0,5.7-2.07c6-3.48,6-9.2,0-12.67l-11,6.33Z" transform="translate(-75.02 -28.46)"/><path class="cls-35" d="M423.45,230.63l-5.28-8.41-11,6.34C411.56,231.08,418,231.76,423.45,230.63Z" transform="translate(-75.02 -28.46)"/><path class="cls-48" d="M449.35,221.27a.44.44,0,0,1-.22-.05L420.35,204.6a.44.44,0,0,1,.44-.76l28.78,16.62a.44.44,0,0,1,.16.6A.43.43,0,0,1,449.35,221.27Z" transform="translate(-75.02 -28.46)"/><path class="cls-48" d="M452.73,219.32a.42.42,0,0,1-.21-.06l-28.79-16.61a.44.44,0,0,1,.44-.76L453,218.51a.43.43,0,0,1,.16.59A.44.44,0,0,1,452.73,219.32Z" transform="translate(-75.02 -28.46)"/><path class="cls-48" d="M456.12,217.37a.43.43,0,0,1-.22-.06l-28.79-16.62a.44.44,0,0,1-.16-.59.44.44,0,0,1,.6-.16l28.78,16.62a.42.42,0,0,1,.16.59A.42.42,0,0,1,456.12,217.37Z" transform="translate(-75.02 -28.46)"/><g class="cls-19"><path class="cls-32" d="M459,246l0,5.35a2.41,2.41,0,0,1-1.41,2l0-5.36A2.38,2.38,0,0,0,459,246Z" transform="translate(-75.02 -28.46)"/><path class="cls-33" d="M405,251.28l0-5.36a2.39,2.39,0,0,0,1.43,2l0,5.36A2.43,2.43,0,0,1,405,251.28Z" transform="translate(-75.02 -28.46)"/><polygon class="cls-32" points="382.59 219.45 382.58 224.81 360.49 237.65 360.5 232.29 382.59 219.45"/><polygon class="cls-33" points="353.68 232.3 353.66 237.65 331.42 224.81 331.43 219.45 353.68 232.3"/><path class="cls-33" d="M435.53,260.76l0,5.35a7.5,7.5,0,0,1-6.82,0v-5.35a7.62,7.62,0,0,0,6.84,0Z" transform="translate(-75.02 -28.46)"/><path class="cls-35" d="M457.61,244c1.88,1.09,1.89,2.86,0,3.95l-22.09,12.84a7.51,7.51,0,0,1-6.83,0l-22.24-12.85c-1.9-1.09-1.91-2.86,0-4l22.09-12.83a7.5,7.5,0,0,1,6.84,0Z" transform="translate(-75.02 -28.46)"/></g><g class="cls-19"><path class="cls-24" d="M503.53,230.72l0,5.35a2.4,2.4,0,0,1-1.41,2l0-5.35A2.45,2.45,0,0,0,503.53,230.72Z" transform="translate(-75.02 -28.46)"/><path class="cls-26" d="M449.51,236.05v-5.36a2.46,2.46,0,0,0,1.43,2V238A2.41,2.41,0,0,1,449.51,236.05Z" transform="translate(-75.02 -28.46)"/><polygon class="cls-24" points="427.09 204.22 427.08 209.58 404.99 222.42 405 217.06 427.09 204.22"/><polygon class="cls-26" points="398.17 217.07 398.16 222.42 375.91 209.58 375.93 204.22 398.17 217.07"/><path class="cls-24" d="M480,245.52v5.36a7.62,7.62,0,0,1-6.84,0l0-5.36a7,7,0,0,0,3.41.82A7,7,0,0,0,480,245.52Z" transform="translate(-75.02 -28.46)"/><path class="cls-27" d="M502.1,228.73c1.89,1.09,1.9,2.86,0,4L480,245.52a7.51,7.51,0,0,1-6.83,0L451,232.69c-1.89-1.1-1.9-2.87,0-4L473,215.89a7.5,7.5,0,0,1,6.84,0Z" transform="translate(-75.02 -28.46)"/></g><text class="cls-51" transform="matrix(-0.87, -0.5, 0.87, -0.5, 371.8, 221.3)"><tspan class="cls-52">D</tspan><tspan class="cls-53" x="6.17" y="0">A</tspan><tspan class="cls-54" x="11.24" y="0">T</tspan><tspan x="15.23" y="0">A</tspan></text><text class="cls-55" transform="matrix(-0.87, -0.5, 0.87, -0.5, 418.5, 207.57)"><tspan class="cls-56">D</tspan><tspan class="cls-57" x="7.34" y="0">A</tspan><tspan class="cls-58" x="13.36" y="0">T</tspan><tspan x="18.11" y="0">A</tspan></text><path class="cls-26" d="M476.61,246.34v5.35a7,7,0,0,1-3.43-.81l0-5.36A7,7,0,0,0,476.61,246.34Z" transform="translate(-75.02 -28.46)"/><path class="cls-32" d="M435.53,260.76l0,5.35a6.83,6.83,0,0,1-3.41.82v-5.36A7.21,7.21,0,0,0,435.53,260.76Z" transform="translate(-75.02 -28.46)"/><path class="cls-11" d="M484.35,221.75c-4.27,1.89-8.2,16.14-5.86,21.15s6.06,5.4,10.75,4.15,10-7.4,11.73-13.11C503.32,226.16,496.51,216.34,484.35,221.75Z" transform="translate(-75.02 -28.46)"/><path class="cls-5" d="M479.34,393.57v1.12c-2.24,1.32-7.28.62-8.6,0-.86-1.31-3.21-1-4.53-.44-5,.44-6.87-.31-8.55-1.54-.85-.62-2.38-2.24-2.2-4C461.45,390.12,479.34,393.57,479.34,393.57Z" transform="translate(-75.02 -28.46)"/><path class="cls-5" d="M470.74,384.85s-5.49,1.55-8.75,2-5.57-.08-6.35,1.08.93,4.18,3.8,5.19,8.75-.15,10.92.31,7.66,1.47,9,.12,0-7.94,0-7.94Z" transform="translate(-75.02 -28.46)"/><path class="cls-5" d="M501.23,377.61l-9.84-11c-3.92-1.12-8.05-1.35-7.53,2.27.47,3.21,5.58,4.62,9.1,7.74l3.24,2.88c2.34,2.07,5.31.26,5-1.87" transform="translate(-75.02 -28.46)"/><path class="cls-11" d="M491.91,239.63a9.71,9.71,0,0,1-1.21,1.11,22.3,22.3,0,0,1-8.12,4c-.5.13-1,.24-1.59.34l.25,2.85c3.32.91,6.54-.49,8.84-1.13,1.7-.47,4.35-.91,4.35-2.71l-2.51-4.44Z" transform="translate(-75.02 -28.46)"/><path class="cls-5" d="M496.2,379.48,493,376.6c-3.52-3.12-8.63-4.53-9.1-7.74h0v0h0a3.25,3.25,0,0,0,0,1.08c.47,3.22,5.58,4.62,9.1,7.75l3.24,2.87c2.75,2.45,5.65.7,5-2.91.28,2.13-2.69,3.94-5,1.87" transform="translate(-75.02 -28.46)"/><path class="cls-59" d="M501.16,301.06c3.4,4.81-5.09,18.13-2.77,34.7C500,347,503,365.86,502.3,376.51c-.13,1.94-7.71,3.33-9.77-6.06-3.49-16-7.87-25.92-9.41-38.31l.81-35.92Z" transform="translate(-75.02 -28.46)"/><path class="cls-60" d="M490.3,299.32c.94,14.92-9.75,33.18-9.05,45.23.73,12.43-.62,27.54-.65,41,0,0-11,5.2-11.48-2.84-1.62-26.34-6.66-34.55.15-82.76Z" transform="translate(-75.02 -28.46)"/><path class="cls-17" d="M470.4,284.87a153.7,153.7,0,0,1,2.3-28.55,19.54,19.54,0,0,1,4.69-4.78l3.51-4.26c2.5-.61,5-1.3,7.41-2.05a20.65,20.65,0,0,1,12.11,0h0c5.19,2.2,6.18,5.69,3.87,12.39.06.3-4.56,18.71-5.15,24.34-.06.55,3.93,15.47,4.8,21.56,0,0-3.79,3.46-4.84,4.33-7.7,9.57-32.89-2-33.84-7.12C464.9,298.8,468,292.89,470.4,284.87Z" transform="translate(-75.02 -28.46)"/><path class="cls-5" d="M482.76,222.63a8.91,8.91,0,0,0-2,3.65,17.28,17.28,0,0,0-.64,5.44c-.07,1.28-.59,2-.33,2.63s1.83-2.85,3.32-3.2,1.27,4.13-2,5.4c-1.4,2.13-.29,7.36.5,8.51s5.61,2.6,9.69,1.16,6.79-5.55,10.16-10.95,0-9.31,0-9.31c1.67-3.69-11-8.45-16.23-8.59C481.93,217.44,482.76,222.63,482.76,222.63Z" transform="translate(-75.02 -28.46)"/><path class="cls-18" d="M488.72,259.91c1.64-5.65-4.63-12.6-10.22-10.75-2,.66-3.68,1.31-4.73,3.07-2.58,4.35-3,19.19-5.14,28.17-.33.08-.66.13-1,.19,3.42,4.62,5,7,8.07,11.17a6.62,6.62,0,0,0,.65-.25C477.24,291,488.71,260,488.72,259.91Z" transform="translate(-75.02 -28.46)"/><path class="cls-5" d="M226.29,432.4l9.23-.83a94.18,94.18,0,0,0,9.41,2.16c3.49.5,6-.08,6.82,1.17a1.45,1.45,0,0,1,.2.85h0s0,0,0,0c.16,1.84-1.46,3.56-2.36,4.23-1.81,1.32-3.79,2.12-9.2,1.64-1.41-.56-3.94-.93-4.87.48-1.41.66-6.82,1.41-9.23,0v-1.21C224.87,439.48,226.29,432.4,226.29,432.4Z" transform="translate(-75.02 -28.46)"/><path class="cls-9" d="M222.23,347.37c-3,15.73,7.86,32.93,7,45.63-1.22,17.4-1.89,25-3.68,39.18,0,0,7.07,4.19,12.27-.61,5.33-27.76,7.69-32.74,6.95-83.54Z" transform="translate(-75.02 -28.46)"/><path class="cls-34" d="M265.22,275c3.13,3.64.5,18.6-3.88,22.23s-8,2.34-11.81-.89-6-11.28-5.11-17.34C245.65,270.78,256.32,264.66,265.22,275Z" transform="translate(-75.02 -28.46)"/><path class="cls-17" d="M266.31,276.56a9.09,9.09,0,0,1,.28,4.28,17.71,17.71,0,0,1-1.8,5.34c-.5,1.22-.33,2.11-.85,2.59s-.44-3.45-1.67-4.43-3,3.27-.53,5.89c.36,2.59-3,7-4.22,7.68s-6.36-.06-9.52-3.19-3.85-8.15-4.6-14.65,4.1-8.64,4.1-8.64c.08-4.17,13.92-3,18.87-.83C269.37,272.1,266.31,276.56,266.31,276.56Z" transform="translate(-75.02 -28.46)"/><path class="cls-5" d="M244,440.78l9.23-.83s5.91,1.66,9.41,2.16,6-.08,6.82,1.16a1.47,1.47,0,0,1,.2.86h0v0c.16,1.83-1.45,3.56-2.36,4.22-1.81,1.32-3.79,2.12-9.2,1.65-1.41-.56-3.94-.93-4.87.47-1.41.67-6.82,1.42-9.23,0v-1.2C242.55,447.85,244,440.78,244,440.78Z" transform="translate(-75.02 -28.46)"/><path class="cls-9" d="M229.24,351.34c-1,16,12.12,33.58,12.88,46.52,1,17.75,1.07,30.3,1.11,44.75,0,0,11.8,5.59,12.33-3.05,1.74-28.31,3.59-35.75-3.72-87.55Z" transform="translate(-75.02 -28.46)"/><path class="cls-14" d="M260.14,299.91c-6.6-3.29-17.27-12.29-26-.52-8.18,11.05-11.55,44.23-12.48,50.85-1.27,8.95,23.68,13.74,29.24,13.5a2.33,2.33,0,0,0,2.38-1.87c.46-1.63-.86-2.81-.5-4.31a6.34,6.34,0,0,1,1.3-2.28,5.14,5.14,0,0,0,1.21-2.32c.21-1.43-.68-2.76-.84-4.19a8.38,8.38,0,0,1,.43-3.09c2.26-8.43,6.19-16.24,8.38-24.72,1.48-5.74,3.6-14.86-1.12-19.61A5.23,5.23,0,0,0,260.14,299.91Z" transform="translate(-75.02 -28.46)"/><path class="cls-14" d="M264.18,304.35c5.28,16.74,5.77,25,10.94,31.65.38.49,14.65,15.78,14.65,15.78a10,10,0,0,1-6.9,4.36c-8-3.4-17-15.94-19.41-18.63-1.4-1.55-9.27-16-10.45-23.32S262,297.74,264.18,304.35Z" transform="translate(-75.02 -28.46)"/><path class="cls-59" d="M467.63,292.7a49.16,49.16,0,0,0,8.72-1.19s6.95-14.91,8.85-22.13c0,0-2.51,15.34-4.21,20.33s-4.07,6.94-7.73,6.51a51.28,51.28,0,0,1-6.45-1.17Z" transform="translate(-75.02 -28.46)"/></g></svg>